<?xml version="1.0" encoding="utf-8"?>
<!-- Generator: Adobe Illustrator 22.1.0, SVG Export Plug-In . SVG Version: 6.00 Build 0)  -->
<svg version="1.1" id="Layer_1" xmlns="http://www.w3.org/2000/svg" xmlns:xlink="http://www.w3.org/1999/xlink" x="0px" y="0px"
	 viewBox="0 0 100 100" style="enable-background:new 0 0 100 100;" xml:space="preserve">
<style type="text/css">
	.st0{opacity:0.19;fill:#203C66;}
	.st1{clip-path:url(#SVGID_2_);}
	.st2{fill:#102A4F;}
	.st3{fill:#203C66;}
	.st4{fill:url(#SVGID_3_);}
	.st5{fill:url(#SVGID_4_);}
	.st6{fill:url(#SVGID_5_);}
	.st7{fill:url(#SVGID_6_);}
	.st8{fill:url(#SVGID_7_);}
	.st9{fill:url(#SVGID_8_);}
	.st10{fill:url(#SVGID_9_);}
	.st11{fill:url(#SVGID_10_);}
	.st12{fill:url(#SVGID_11_);}
	.st13{fill:url(#SVGID_12_);}
	.st14{fill:#5D9CE8;}
	.st15{fill:url(#SVGID_13_);}
	.st16{fill:url(#SVGID_14_);}
	.st17{fill:url(#SVGID_15_);}
	.st18{fill:#F0C999;}
	.st19{fill:#961B27;}
	.st20{fill:url(#SVGID_16_);}
	.st21{fill:url(#SVGID_17_);}
	.st22{fill:#F86D78;}
	.st23{fill:url(#SVGID_18_);}
	.st24{fill:#FF9AA2;}
	.st25{fill:url(#SVGID_19_);}
	.st26{fill:url(#SVGID_20_);}
	.st27{fill:url(#SVGID_21_);}
	.st28{fill:url(#SVGID_22_);}
	.st29{fill:url(#SVGID_23_);}
	.st30{fill:url(#SVGID_24_);}
	.st31{fill:url(#SVGID_25_);}
	.st32{fill:url(#SVGID_26_);}
	.st33{fill:url(#SVGID_27_);}
	.st34{fill:#DBA779;}
	.st35{fill:#F7D9AB;}
	.st36{fill:url(#SVGID_28_);}
	.st37{fill:url(#SVGID_29_);}
	.st38{fill:url(#SVGID_30_);}
	.st39{fill:url(#SVGID_31_);}
	.st40{fill:url(#SVGID_32_);}
	.st41{fill:url(#SVGID_33_);}
	.st42{fill:url(#SVGID_34_);}
	.st43{fill:url(#SVGID_35_);}
	.st44{fill:url(#SVGID_36_);}
	.st45{fill:url(#SVGID_37_);}
	.st46{fill:url(#SVGID_38_);}
	.st47{fill:url(#SVGID_39_);}
	.st48{fill:url(#SVGID_40_);}
	.st49{fill:url(#SVGID_41_);}
	.st50{fill:url(#SVGID_42_);}
	.st51{fill:url(#SVGID_43_);}
	.st52{fill:url(#SVGID_44_);}
	.st53{fill:url(#SVGID_45_);}
	.st54{fill:url(#SVGID_46_);}
	.st55{fill:url(#SVGID_47_);}
	.st56{fill:url(#SVGID_48_);}
	.st57{fill:url(#SVGID_49_);}
	.st58{fill:url(#SVGID_50_);}
	.st59{fill:url(#SVGID_51_);}
	.st60{fill:url(#SVGID_52_);}
	.st61{fill:url(#SVGID_53_);}
	.st62{fill:url(#SVGID_54_);}
	.st63{fill:url(#SVGID_55_);}
	.st64{fill:url(#SVGID_56_);}
	.st65{fill:url(#SVGID_57_);}
	.st66{fill:url(#SVGID_58_);}
	.st67{fill:url(#SVGID_59_);}
	.st68{fill:#DDDDDD;}
	.st69{fill:url(#SVGID_60_);}
	.st70{fill:url(#SVGID_61_);}
	.st71{fill:url(#SVGID_62_);}
	.st72{fill:url(#SVGID_63_);}
	.st73{fill:#FFFFFF;}
	.st74{fill:url(#SVGID_64_);}
	.st75{fill:url(#SVGID_65_);}
	.st76{fill:url(#SVGID_66_);}
	.st77{fill:url(#SVGID_67_);}
	.st78{fill:url(#SVGID_68_);}
	.st79{fill:url(#SVGID_69_);}
	.st80{fill:url(#SVGID_70_);}
	.st81{fill:url(#SVGID_71_);}
	.st82{fill:url(#SVGID_72_);}
	.st83{fill:url(#SVGID_73_);}
	.st84{fill:url(#SVGID_74_);}
	.st85{fill:url(#SVGID_75_);}
	.st86{fill:url(#SVGID_76_);}
	.st87{fill:url(#SVGID_77_);}
	.st88{fill:url(#SVGID_78_);}
</style>
<ellipse transform="matrix(0.895 -0.4461 0.4461 0.895 -17.0548 27.5577)" class="st0" cx="50" cy="50" rx="47.8" ry="47.8"/>
<g>
	<defs>
		<ellipse id="SVGID_1_" transform="matrix(0.895 -0.4461 0.4461 0.895 -17.0548 27.5577)" cx="50" cy="50" rx="47.8" ry="47.8"/>
	</defs>
	<clipPath id="SVGID_2_">
		<use xlink:href="#SVGID_1_"  style="overflow:visible;"/>
	</clipPath>
	<g class="st1">
		<g>
			<path class="st2" d="M40.1,74.5c-1,0.2-1.6,0.4-2.6,0.7c-0.6,0.2-1.6,2.4-1.5,2.7l1.2,5.5l25.6-0.6c0,0-0.2-6.1-1.7-7.4
				C59.7,74.1,50.3,72.2,40.1,74.5z"/>
		</g>
		<path class="st3" d="M41,74.2c-1.2,0.3-2.8,0.6-3.5,0.9c-0.7,0.3,0.2,2,0.2,2s0.4-2.1,5-2.3c4.6-0.2,15-1.7,17.7,2l0.5-1.7
			c0,0-1.9-1.2-5.7-1.4C52.4,73.6,42.2,74,41,74.2z"/>
		<linearGradient id="SVGID_3_" gradientUnits="userSpaceOnUse" x1="60.6539" y1="58.07" x2="52.986" y2="80.0343">
			<stop  offset="0" style="stop-color:#F0C999"/>
			<stop  offset="0.517" style="stop-color:#F1CB9C"/>
			<stop  offset="0.8546" style="stop-color:#F4D3A4"/>
			<stop  offset="1" style="stop-color:#F7D9AB"/>
		</linearGradient>
		<path class="st4" d="M73,84.3c-1.3-0.1-16.4-6.5-16.9-9.1c-0.8-4.6,0.1-8.2,0.1-8.2l-12.4-4.2c0.6,4.6-1.4,11.1-2.8,13.9
			c-0.9,1.8-5.2,4.5-10.4,6c0.8,0.8,9.5,13.9,16.4,20.8c0.7,0,1.5,0.1,2.2,0.1c1.4,0,2.8-0.1,4.2-0.2C59.9,98.4,72,88,73,84.3z"/>
		<linearGradient id="SVGID_4_" gradientUnits="userSpaceOnUse" x1="61.024" y1="83.7965" x2="57.036" y2="78.5512">
			<stop  offset="0" style="stop-color:#FFDEB3"/>
			<stop  offset="0.6815" style="stop-color:#FCDCB0"/>
			<stop  offset="1" style="stop-color:#F7D9AB"/>
		</linearGradient>
		<path class="st5" d="M64.6,81c-1.9-0.3-11.3,0.4-11.3,0.4C55.9,84.1,66.5,81.3,64.6,81z"/>
		<linearGradient id="SVGID_5_" gradientUnits="userSpaceOnUse" x1="34.7135" y1="82.1855" x2="45.8647" y2="82.1855">
			<stop  offset="0" style="stop-color:#FFDEB3"/>
			<stop  offset="0.6815" style="stop-color:#FCDCB0"/>
			<stop  offset="1" style="stop-color:#F7D9AB"/>
		</linearGradient>
		<path class="st6" d="M46,81.4c0,0-8.8,0.4-10.6,0.8C33.4,82.6,43.4,84.2,46,81.4z"/>
		<linearGradient id="SVGID_6_" gradientUnits="userSpaceOnUse" x1="50.748" y1="89.39" x2="49.7973" y2="81.3622">
			<stop  offset="0" style="stop-color:#F0C999"/>
			<stop  offset="0.517" style="stop-color:#F1CB9C"/>
			<stop  offset="0.8546" style="stop-color:#F4D3A4"/>
			<stop  offset="1" style="stop-color:#F7D9AB"/>
		</linearGradient>
		<path class="st7" d="M49.6,83.2c-0.4-0.2-2.2-2.4-2.1-1.9c0.1,0.5,2,4.4,2.8,3.6c0.8-0.9,1.7-3.5,1.7-3.5
			C51.5,81.7,50,83.4,49.6,83.2z"/>
		<linearGradient id="SVGID_7_" gradientUnits="userSpaceOnUse" x1="54.3757" y1="50.1814" x2="46.5823" y2="104.0263">
			<stop  offset="0" style="stop-color:#F0C999"/>
			<stop  offset="0.517" style="stop-color:#F1CB9C"/>
			<stop  offset="0.8546" style="stop-color:#F4D3A4"/>
			<stop  offset="1" style="stop-color:#F7D9AB"/>
		</linearGradient>
		<path class="st8" d="M67.8,80.6c-6.5-1.3-10.8-4.7-11-5c-0.5-0.4-0.8-2.2-0.8-4.1c0-0.8,0.1-2,0.1-3c-0.2,0.3-5.8,1.8-6.4,1.8
			c-1.3,0-7.5-4.2-8-5.1l-0.3,0c0,0,0.4,8.6-1.3,12c-0.2,0.4-5,3.5-8.6,4.5c-1.7,1,6.2,14,7.1,18.2c1.2,5.5,23.6,0.7,23.6,0.7
			S70.3,81,67.8,80.6z M49.6,93.9c-12.7-0.7-13.3-7.4-14.4-11.3c0.5-1.1,7.2,0,7.9-4.8c0,0,5.5,0.2,11.4-3.6c1,9.3,9.5,5.8,10.1,7.1
			C65.7,83.7,62.3,94.7,49.6,93.9z"/>
		<linearGradient id="SVGID_8_" gradientUnits="userSpaceOnUse" x1="60.5687" y1="78.0799" x2="61.5175" y2="103.5261">
			<stop  offset="0" style="stop-color:#F0C999"/>
			<stop  offset="0.517" style="stop-color:#F1CB9C"/>
			<stop  offset="0.8546" style="stop-color:#F4D3A4"/>
			<stop  offset="1" style="stop-color:#F7D9AB"/>
		</linearGradient>
		<path class="st9" d="M59.9,77.7l0.3,12.7l-0.3,2.9c0,0,2.1-1.4,2.4-1.6l-0.8-13.2L59.9,77.7z"/>
		<path class="st3" d="M33.4,80.2C20.8,83.3,19.2,84,19.2,84c1.4,0.8,5.3,8.9,6.8,11.1c0.3,0.5,0.6,1.4,0.9,2.5c3,1.6,6.1,3,9.4,3.9
			c-0.9-6-1.8-11.9-2.1-18C33.6,81.6,33.4,80.2,33.4,80.2z"/>
		<path class="st3" d="M72.5,81.6c-3.2-0.9-6-1.6-6-1.6c-0.3,0.4-0.8,3.2-2.1,6.5c0.1,4,0.5,8.1,0.3,12c-0.1,0.8-0.2,1.5-0.3,2.3
			c3.1-1.1,6-2.5,8.8-4.1c2.8-5,8.4-12.8,8.4-12.8C81.3,83.6,76.6,82.7,72.5,81.6z"/>
		<linearGradient id="SVGID_9_" gradientUnits="userSpaceOnUse" x1="37.3522" y1="78.7816" x2="38.1797" y2="100.972">
			<stop  offset="0" style="stop-color:#F0C999"/>
			<stop  offset="0.517" style="stop-color:#F1CB9C"/>
			<stop  offset="0.8546" style="stop-color:#F4D3A4"/>
			<stop  offset="1" style="stop-color:#F7D9AB"/>
		</linearGradient>
		<polygon class="st10" points="38.5,78.4 36.2,79.6 37,91.2 38.6,91.9 38.5,90.6 		"/>
		<linearGradient id="SVGID_10_" gradientUnits="userSpaceOnUse" x1="51.0929" y1="120.2578" x2="49.5238" y2="92.7607">
			<stop  offset="0" style="stop-color:#FFFFFF"/>
			<stop  offset="0.3567" style="stop-color:#F9F8FA"/>
			<stop  offset="1" style="stop-color:#F1F0F5"/>
		</linearGradient>
		<path class="st11" d="M69.2,89.4l-4.9-0.7c0,0-5.3,7.5-15.2,6.4c-9.9-1.1-13.1-5.4-13.1-5.4l-6.5,0.9c0,0,0,4.1,0.8,8.7
			c5.8,2.6,12.2,4,18.9,4c7.2,0,13.9-1.6,20-4.5C69.2,96.2,68.5,94.1,69.2,89.4z"/>
		<path class="st3" d="M81.5,83.9C75.7,81.8,66,80,66,80C69.8,82,81.5,83.9,81.5,83.9z"/>
		<path class="st3" d="M32.3,80.6C22.6,82.1,19.2,84,19.2,84C26.2,82.7,32.3,80.6,32.3,80.6z"/>
		<path class="st3" d="M19.2,84c-1.1,1-1.8,3.3-2.2,6.2c3.1,3,6.5,5.6,10.3,7.6c-0.1-0.8-0.1-1.4-0.1-1.8C27,93.2,21.7,82.6,19.2,84
			z"/>
		<path class="st3" d="M18.1,88c-0.3,0.7-0.5,1.7-0.7,2.7c1.1,1,2.2,2,3.3,2.9C20.1,88.4,19.2,85,18.1,88z"/>
		<path class="st3" d="M26.2,97.2c0.4,0.2,0.8,0.5,1.2,0.7c-0.2-1.7-0.3-3.1-0.5-3.7C26.7,93.3,26.5,94.8,26.2,97.2z"/>
		<linearGradient id="SVGID_11_" gradientUnits="userSpaceOnUse" x1="38.1777" y1="101.1472" x2="38.9147" y2="90.737">
			<stop  offset="0" style="stop-color:#E1E1E5"/>
			<stop  offset="1" style="stop-color:#F1F0F5"/>
		</linearGradient>
		<path class="st12" d="M36.9,90.5l1.7,11.6c0.5,0.1,1.1,0.2,1.6,0.4l-1.5-10.7L36.9,90.5z"/>
		<linearGradient id="SVGID_12_" gradientUnits="userSpaceOnUse" x1="60.1586" y1="101.6558" x2="60.8637" y2="91.6963">
			<stop  offset="0" style="stop-color:#E1E1E5"/>
			<stop  offset="1" style="stop-color:#F1F0F5"/>
		</linearGradient>
		<path class="st13" d="M60,92.6l-0.7,9.7c0.5-0.1,1-0.2,1.5-0.4l0.9-10.6L60,92.6z"/>
		<path class="st14" d="M68.1,88.1l2.8-1.4c-1.1-4.5-3.4-6.1-3.4-6.1l-1.2-0.4c0,0-1,10.2-1.9,20.8c2.2-0.8,4.4-1.7,6.5-2.8
			c0.6-4.5,0.8-8.7,0.8-8.7L68.1,88.1z"/>
		<path class="st14" d="M31.1,80.9c0,0-2,0.9-3.5,6.5l2.9,1.3l-3.4,1.5c0,0,0.4,3.9,1.2,8.2c2.1,1.1,4.4,2,6.7,2.8
			c-1.5-10.4-3-20.5-3-20.5L31.1,80.9z"/>
		<path class="st3" d="M67.6,87.7l2.3-1.5c0,0-1-4.8-2.9-5.9c-1.7-1-5.8-5.7-7-5.3c-0.1,0-0.4,0.1-0.3,0.4c0,0,0.3,1,0.6,2.5
			c0.3,1.5,0.6,12.3,0.6,12.3s-0.4,5.3-0.9,11.9c3.4-0.8,6.7-2,9.8-3.6c0.3-2.6,0.6-5.8,0.8-9.7L67.6,87.7z"/>
		<path class="st3" d="M37.6,78.1c0.2-1.5,0.4-2.4,0.4-2.4c0.1-0.3-0.1-0.5-0.2-0.6c-1.3-0.3-5.2,4.7-6.8,5.7c-1.8,1.2-2.5,6-2.5,6
			l2.4,1.4l-3,1.3c0.5,3.7,0.9,6.8,1.3,9.3c3.1,1.5,6.5,2.7,10,3.5c-0.9-6.6-1.5-11.9-1.5-11.9S37.4,79.7,37.6,78.1z"/>
		<path class="st3" d="M83,88.7c-0.6-3.7-1.5-4.8-1.5-4.8c-3.1-0.7-5.8,8.3-8,10.3c-0.8,0.7-1.4,2-1.8,3.4
			C75.9,95.2,79.7,92.2,83,88.7z"/>
		<path class="st3" d="M71.2,97.4c0,0,0,0.2-0.1,0.5c0.3-0.2,0.6-0.3,1-0.5C71.8,94.5,71.6,93.4,71.2,97.4z"/>
		<path class="st3" d="M82.6,89.1c-0.2-0.8-0.4-1.4-0.5-1.8c-0.7-2.1-1.4,0.1-1.9,4.1C81,90.7,81.8,89.9,82.6,89.1z"/>
		<linearGradient id="SVGID_13_" gradientUnits="userSpaceOnUse" x1="58.0496" y1="73.4795" x2="-2.7476" y2="52.3767">
			<stop  offset="0" style="stop-color:#F0C999"/>
			<stop  offset="0.5203" style="stop-color:#E4B586"/>
			<stop  offset="1" style="stop-color:#DBA779"/>
		</linearGradient>
		<path class="st15" d="M40.8,75c9,2.5,15.2-3,15.2-3l0.3-6.5l-15.2,0.5C41.5,69.6,40.8,75,40.8,75z"/>
		<g id="XMLID_448_">
			<g id="XMLID_534_">
				<g id="XMLID_535_">
					<linearGradient id="SVGID_14_" gradientUnits="userSpaceOnUse" x1="44.0093" y1="65.4924" x2="42.0773" y2="63.8916">
						<stop  offset="0" style="stop-color:#F7D9AB"/>
						<stop  offset="0.517" style="stop-color:#F6D7A8"/>
						<stop  offset="0.8546" style="stop-color:#F3CFA0"/>
						<stop  offset="1" style="stop-color:#F0C999"/>
					</linearGradient>
					<path class="st16" d="M41.2,63.1c-0.2,0.3,0.1,0.6,0.4,0.7c0.4,0.1,1.1,0.4,2,1C42.9,64,41.3,62.8,41.2,63.1z"/>
					<linearGradient id="SVGID_15_" gradientUnits="userSpaceOnUse" x1="56.2318" y1="64.2711" x2="54.8505" y2="63.5725">
						<stop  offset="0" style="stop-color:#F7D9AB"/>
						<stop  offset="0.517" style="stop-color:#F6D7A8"/>
						<stop  offset="0.8546" style="stop-color:#F3CFA0"/>
						<stop  offset="1" style="stop-color:#F0C999"/>
					</linearGradient>
					<path class="st17" d="M54.2,64.8c0.8-0.7,1.5-1,1.9-1.2c0.4-0.2,0.6-0.5,0.4-0.8C56.3,62.6,54.8,63.9,54.2,64.8z"/>
					<path class="st18" d="M45.1,66.9c0.7,1.6,4.8,3.7,7.7-0.1C52.8,66.8,48.6,68.7,45.1,66.9z"/>
					<path class="st19" d="M41.6,63.4L41.6,63.4c0,0,0,0.1,0.1,0.1c0.5,0.2,1,0.3,1.7,0.8c0.5,0.3,1,2.7,5.7,2.6
						c2.6-0.1,4.1-0.9,5.6-2.7c0.5-0.6,0.9-0.7,1.3-1c0,0,0-0.1,0-0.1c-1,0.3-3.1,1-7.5,1C44.7,64.1,42.5,63.6,41.6,63.4z"/>
					<linearGradient id="SVGID_16_" gradientUnits="userSpaceOnUse" x1="44.5036" y1="65.7197" x2="53.0764" y2="65.7197">
						<stop  offset="0" style="stop-color:#E8D8D7"/>
						<stop  offset="0.1366" style="stop-color:#F0E5E4"/>
						<stop  offset="0.3932" style="stop-color:#FBF8F8"/>
						<stop  offset="0.5685" style="stop-color:#FFFFFF"/>
						<stop  offset="1" style="stop-color:#E8D2D1"/>
					</linearGradient>
					<path class="st20" d="M52.7,64.5c-2.6,0.6-6.2,0.6-7.6,0.4c-0.8-0.3-0.7,0.6-0.7,0.6c1.7,1.7,3,1.4,4.3,1.4
						c1.3,0,3.3-0.5,4.4-1.6C53.4,65,53.1,64.5,52.7,64.5z"/>
					<linearGradient id="SVGID_17_" gradientUnits="userSpaceOnUse" x1="41.7366" y1="64.7349" x2="55.2293" y2="64.7349">
						<stop  offset="0" style="stop-color:#E8D8D7"/>
						<stop  offset="4.096527e-02" style="stop-color:#EBDEDD"/>
						<stop  offset="0.2105" style="stop-color:#F6F0F0"/>
						<stop  offset="0.3845" style="stop-color:#FDFBFB"/>
						<stop  offset="0.5685" style="stop-color:#FFFFFF"/>
						<stop  offset="0.6904" style="stop-color:#FBF8F8"/>
						<stop  offset="0.872" style="stop-color:#F1E4E3"/>
						<stop  offset="1" style="stop-color:#E8D2D1"/>
					</linearGradient>
					<path class="st21" d="M46.3,64.3c-0.8,0-1.4-0.2-2.4-0.4c0,0,0.2,0.2,0.3,0.5c0.2,0.4,1,1.6,4.8,1.5c2.9-0.1,4.4-1.1,4.6-1.7
						c0.1-0.4,0.4-0.5,0.4-0.7c0,0-0.9,0.4-2.9,0.7C49,64.4,48.1,64.3,46.3,64.3z"/>
					<path class="st22" d="M49.3,66.8c-5.8,0-3.8-2.3-7.7-3.2c0,0,0.9,0.5,1.9,1.6c1.1,1.3,2.1,3.3,5.4,3.3c2.9-0.1,4.5-2.2,5.5-3.4
						c1.1-1.4,1.6-1.8,1.6-1.8C52.9,64.1,53.9,66.6,49.3,66.8z"/>
					<linearGradient id="SVGID_18_" gradientUnits="userSpaceOnUse" x1="44.1482" y1="66.2526" x2="54.015" y2="66.2526">
						<stop  offset="0" style="stop-color:#F96E7E"/>
						<stop  offset="3.454573e-02" style="stop-color:#FA7080"/>
						<stop  offset="0.2473" style="stop-color:#FE7A86"/>
						<stop  offset="0.5279" style="stop-color:#FF7D88"/>
						<stop  offset="0.764" style="stop-color:#FD7985"/>
						<stop  offset="0.9974" style="stop-color:#F86D7D"/>
						<stop  offset="1" style="stop-color:#F86D7D"/>
					</linearGradient>
					<path class="st23" d="M51.8,66.1c-0.6,0.2-1.7,0.5-3,0.6c-0.8,0-2.1-0.1-2.9-0.5c-0.9-0.4-1.7-1.4-1.9-1.5
						c0.2,0.3,1.5,3.3,4.8,3.2c3.8-0.1,4.4-2.7,5.1-3.4C53.6,64.9,52.8,65.8,51.8,66.1z"/>
					<path class="st24" d="M50.4,66.8c-0.4,0.1-1.7,0.2-1.6,0.4c0.1,0.1,0.8,0.4,1.8,0.1c0.8-0.2,1.1-0.7,1.1-0.8
						C51.6,66.4,50.8,66.7,50.4,66.8z"/>
					<path class="st19" d="M41.7,63.7c0.2,0.1,0.4-0.1,1.3,0.2c0,0-1.6-0.8-1.7-0.7C41.3,63.3,41.4,63.6,41.7,63.7z"/>
					<path class="st19" d="M54.7,63.8c0.8-0.4,1-0.2,1.3-0.3c0.3-0.2,0.4-0.5,0.3-0.5C56.2,62.9,54.7,63.8,54.7,63.8z"/>
					<linearGradient id="SVGID_19_" gradientUnits="userSpaceOnUse" x1="43.75" y1="64.4961" x2="54.1969" y2="64.5248">
						<stop  offset="0" style="stop-color:#E8D8D7"/>
						<stop  offset="4.664226e-02" style="stop-color:#EBDCDB"/>
						<stop  offset="0.3062" style="stop-color:#F7EFEF"/>
						<stop  offset="0.4835" style="stop-color:#FBF6F6"/>
						<stop  offset="1" style="stop-color:#E8D2D1"/>
					</linearGradient>
					<path class="st25" d="M44.2,64.4c0,0,1.7,0.9,5,0.8c2.4,0,4.3-1,4.3-1l0.2-0.5L43.9,64L44.2,64.4z"/>
					<path class="st22" d="M51,63.6c-1.1-0.1-1.3,0.1-2.1,0.1c-0.8,0-1.4-0.2-2.4-0.1c-1.3,0.1-2.8,0.2-4.7-0.1c0,0,0.7,0.4,4.1,1
						c1,0.2,1.9,0.4,3,0.3c1.2,0,2.3-0.3,3.2-0.4c1.6-0.3,3.6-1.1,3.6-1.2C54.9,63.5,52.3,63.6,51,63.6z"/>
					<linearGradient id="SVGID_20_" gradientUnits="userSpaceOnUse" x1="45.2139" y1="64.0658" x2="52.6911" y2="64.0658">
						<stop  offset="0" style="stop-color:#F96E7E"/>
						<stop  offset="3.454573e-02" style="stop-color:#FA7080"/>
						<stop  offset="0.2473" style="stop-color:#FE7A86"/>
						<stop  offset="0.5279" style="stop-color:#FF7D88"/>
						<stop  offset="0.764" style="stop-color:#FD7985"/>
						<stop  offset="0.9974" style="stop-color:#F86D7D"/>
						<stop  offset="1" style="stop-color:#F86D7D"/>
					</linearGradient>
					<path class="st26" d="M50.4,63.7c-0.3,0.1-1.3,0.1-1.6,0.1c-0.3,0-1.3-0.2-1.5-0.2c-0.3,0-2,0.2-2,0.3
						c-0.1,0.4,3.8,0.6,4.1,0.5c0.4,0,3.3-0.4,3.3-0.6C52.7,63.8,50.7,63.6,50.4,63.7z"/>
				</g>
			</g>
			<linearGradient id="SVGID_21_" gradientUnits="userSpaceOnUse" x1="64.1739" y1="40.6453" x2="64.816" y2="60.6478">
				<stop  offset="0" style="stop-color:#6B3329"/>
				<stop  offset="0.2833" style="stop-color:#5B2B21"/>
				<stop  offset="0.7012" style="stop-color:#492219"/>
				<stop  offset="1" style="stop-color:#421F16"/>
			</linearGradient>
			<path class="st27" d="M64.8,55.8l0.3-2.8c0,0-0.9-5.1-1.3-6C63.8,47,64.4,54,64.8,55.8z"/>
			<linearGradient id="SVGID_22_" gradientUnits="userSpaceOnUse" x1="32.3805" y1="54.8265" x2="33.3778" y2="43.5241">
				<stop  offset="0" style="stop-color:#6B3329"/>
				<stop  offset="0.2833" style="stop-color:#5B2B21"/>
				<stop  offset="0.7012" style="stop-color:#492219"/>
				<stop  offset="1" style="stop-color:#421F16"/>
			</linearGradient>
			<path class="st28" d="M32.5,55.6c0.5-2.2,0.9-8.4,0.9-8.4L32.2,53L32.5,55.6z"/>
			<g id="XMLID_526_">
				<linearGradient id="SVGID_23_" gradientUnits="userSpaceOnUse" x1="48.0764" y1="26.3292" x2="48.6439" y2="16.0025">
					<stop  offset="0" style="stop-color:#A3753D"/>
					<stop  offset="1" style="stop-color:#E0B163"/>
				</linearGradient>
				<path class="st29" d="M47.6,17c-16.8,1.3-11.8,11.5-7.5,11.8c4.2,0.3,10.1,1.1,17,0.5C64,28.7,59.7,16.1,47.6,17z"/>
				<linearGradient id="SVGID_24_" gradientUnits="userSpaceOnUse" x1="49.4424" y1="30.6769" x2="47.239" y2="19.1095">
					<stop  offset="0" style="stop-color:#A3753D"/>
					<stop  offset="1" style="stop-color:#E0B163"/>
				</linearGradient>
				<path class="st30" d="M48,17c-9-1-12.1,4.1-12.1,6.9c0,1.9,2.7,2.1,4.9,2.7c2.2,0.6,11.2-5.3,11.8-5.2c0.6,0.2-3.5,4.2-3.5,4.2
					s7.3-3.1,9-1.8c1.7,1.3,1.7,3.9,1.7,3.9c1.2-1.3,1-4.7-1.1-7.8C55.3,15.1,49.2,17.2,48,17z"/>
				<linearGradient id="SVGID_25_" gradientUnits="userSpaceOnUse" x1="40.0267" y1="45.7771" x2="49.5855" y2="20.1738">
					<stop  offset="0" style="stop-color:#E0B163"/>
					<stop  offset="1" style="stop-color:#F4C381"/>
				</linearGradient>
				<path class="st31" d="M57.1,17.6c-4.6-2.9-7.9-0.8-9.1-0.7c-1.2,0.1-3.9-1-6.5,0c-6.3,2.4-5.6,7.1-5.6,7.1s0.7-3.9,3.7-5.5
					c4.2-2.3,6.9-0.9,8.4-1c1.5-0.1,3.6-1,6.7,0.3C60,20,60.6,25,60.6,25C60.6,21.6,59.5,19.1,57.1,17.6z"/>
				<linearGradient id="SVGID_26_" gradientUnits="userSpaceOnUse" x1="40.251" y1="30.6597" x2="51.9863" y2="16.3443">
					<stop  offset="0" style="stop-color:#E0B163"/>
					<stop  offset="1" style="stop-color:#F4C381"/>
				</linearGradient>
				<path class="st32" d="M44.5,23C48,15.1,55,17.3,55,17.3C45.6,13.9,44.5,23,44.5,23z"/>
				<linearGradient id="SVGID_27_" gradientUnits="userSpaceOnUse" x1="41.5311" y1="31.7097" x2="53.2673" y2="17.3932">
					<stop  offset="0" style="stop-color:#E0B163"/>
					<stop  offset="1" style="stop-color:#F4C381"/>
				</linearGradient>
				<path class="st33" d="M48.5,18.9c-2.2,1.4-3.9,5.3-3.9,5.3s2.8-3.6,4.9-4.9c3.8-2.4,7.2-1.3,7.2-1.3
					C53.2,16.4,50.6,17.4,48.5,18.9z"/>
			</g>
			<path class="st18" d="M32,53.2c-2.7-0.1-0.8,7.8,1.8,8.7c0,0-0.2-3.2-0.9-7.4C33,54.4,32.5,53.2,32,53.2z"/>
			<path class="st34" d="M32.5,57.3c0.5-3.9-2.1-4.1-1.5-1.5c0,0,0.3-1.3,0.7-0.9c0.4,0.5-0.4,0.7,0,2.7c0.2,1,1.4,2.1,1.4,2.1
				S32.2,59,32.5,57.3z"/>
			<path class="st35" d="M50.8,32.6c-9.3-1.4-16,8.3-17.6,18.2c-0.9,5.6-0.5,10.1,2.5,14.2c1.2,1.6,2.8,2.8,4.6,4.1
				c1.1,0.8,2.9,2.6,4.1,3.4c1.1,0.8,2.3,1.4,3.7,1.4c4.4,0.1,7.2-3.2,8.5-4.4c4.4-4.2,8.6-5.9,7.4-17.3
				C62.9,43.2,56.9,32.7,50.8,32.6z"/>
			<linearGradient id="SVGID_28_" gradientUnits="userSpaceOnUse" x1="57.111" y1="58.8977" x2="55.2628" y2="48.6544">
				<stop  offset="0" style="stop-color:#F7D9AB"/>
				<stop  offset="0.517" style="stop-color:#F6D7A8"/>
				<stop  offset="0.8546" style="stop-color:#F3CFA0"/>
				<stop  offset="1" style="stop-color:#F0C999"/>
			</linearGradient>
			<path class="st36" d="M61.8,48.3c-1.1-0.9-2.7-1.6-4.8-1.4c-6.9,0.7-6.8,7.6-7.4,11.5c8.4,3.3,13.4-2.8,13.4-2.8
				S64.3,50.3,61.8,48.3z"/>
			<radialGradient id="SVGID_29_" cx="59.4318" cy="59.6476" r="5.9802" fx="59.4489" fy="59.6092" gradientUnits="userSpaceOnUse">
				<stop  offset="0" style="stop-color:#F9B58E"/>
				<stop  offset="0.5644" style="stop-color:#F8C89D"/>
				<stop  offset="1" style="stop-color:#F7D9AB"/>
			</radialGradient>
			<path class="st37" d="M58,54.1c-2.3,0.8-5.1,3.2-4.5,5.8c0.6,2.6,1.6,5.9,3.9,6.8c3.1,1.2,6.2-3.8,6.7-8.6
				C64.3,55.4,61.7,52.7,58,54.1z"/>
			<linearGradient id="SVGID_30_" gradientUnits="userSpaceOnUse" x1="41.2863" y1="60.6887" x2="39.3128" y2="48.472">
				<stop  offset="0" style="stop-color:#F7D9AB"/>
				<stop  offset="0.517" style="stop-color:#F6D7A8"/>
				<stop  offset="0.8546" style="stop-color:#F3CFA0"/>
				<stop  offset="1" style="stop-color:#F0C999"/>
			</linearGradient>
			<path class="st38" d="M39.5,47.2c-2.1-0.1-3.6,0.4-4.7,1.3c-2.5,2.1-0.7,7.9-0.7,7.9s5,5.9,13.4,2.3
				C46.9,54.8,46.4,47.7,39.5,47.2z"/>
			<radialGradient id="SVGID_31_" cx="37.8673" cy="60.8221" r="5.6827" gradientUnits="userSpaceOnUse">
				<stop  offset="0" style="stop-color:#F9B58E"/>
				<stop  offset="0.5644" style="stop-color:#F8C89D"/>
				<stop  offset="1" style="stop-color:#F7D9AB"/>
			</radialGradient>
			<path class="st39" d="M39.1,55.2c-2.2-0.5-6.1,1.1-6,3.4c0.2,5.5,3.8,8.5,6.7,8.9c2.3,0.3,2.9-5.1,3.4-7.3
				C43.7,57.9,41.3,55.7,39.1,55.2z"/>
			<linearGradient id="SVGID_32_" gradientUnits="userSpaceOnUse" x1="59.6912" y1="57.2646" x2="62.7204" y2="57.2646">
				<stop  offset="0" style="stop-color:#FFDEB3"/>
				<stop  offset="1" style="stop-color:#F7D9AB"/>
			</linearGradient>
			<path class="st40" d="M60.9,56.4c-0.8,0.2-1.4,0.8-1.3,1.2c0.1,0.5,0.9,0.6,1.7,0.4c0.8-0.2,1.4-0.8,1.3-1.2
				C62.5,56.4,61.7,56.2,60.9,56.4z"/>
			<linearGradient id="SVGID_33_" gradientUnits="userSpaceOnUse" x1="34.1864" y1="57.7507" x2="37.2246" y2="57.7507">
				<stop  offset="0" style="stop-color:#FFDEB3"/>
				<stop  offset="1" style="stop-color:#F7D9AB"/>
			</linearGradient>
			<path class="st41" d="M36,56.9c-0.8-0.1-1.6,0.1-1.7,0.6c-0.1,0.5,0.5,0.9,1.4,1.1c0.8,0.1,1.6-0.1,1.7-0.6
				C37.4,57.6,36.8,57.1,36,56.9z"/>
			<linearGradient id="SVGID_34_" gradientUnits="userSpaceOnUse" x1="48.7016" y1="60.9548" x2="48.088" y2="30.7692">
				<stop  offset="0" style="stop-color:#F0C999"/>
				<stop  offset="0.517" style="stop-color:#F1CB9C"/>
				<stop  offset="0.8546" style="stop-color:#F4D3A4"/>
				<stop  offset="1" style="stop-color:#F7D9AB"/>
			</linearGradient>
			<path class="st42" d="M52.9,31.2c-6.7-0.6-15.6,3.3-18.2,11.2c-2.6,7.9-2.5,14.2-1.4,17c0,0-1.3-4.6,4-5.8c0,0-1.2-6.9,2.3-12.2
				c2.2-3.2,6.4-4.2,8.8-4.4c2.5-0.2,5,0.3,7.1,2.4c3,2.9,4.5,8.2,4,14.1c3.9,0,4.6,3.5,4.5,5.9c0,0,1.7-7.3-0.8-15.1
				C61.6,39.2,59.6,31.7,52.9,31.2z"/>
			<linearGradient id="SVGID_35_" gradientUnits="userSpaceOnUse" x1="45.0592" y1="70.9098" x2="51.0936" y2="70.9098">
				<stop  offset="0" style="stop-color:#FFDEB3"/>
				<stop  offset="0.6815" style="stop-color:#FCDCB0"/>
				<stop  offset="1" style="stop-color:#F7D9AB"/>
			</linearGradient>
			<path class="st43" d="M48.8,70c-1.3,0.1-2.3,0.5-2.3,1c0,0.5,1,0.9,2.3,0.8c1.3-0.1,2.3-0.5,2.3-1C51.1,70.3,50.1,69.9,48.8,70z"
				/>
			<path class="st18" d="M37.9,66.4c-3.7-2.4-5.2-9.9-5.2-9.9c-0.5,6.3,3.7,9.9,4.8,10.6c2.2,1.4,5,4,6,4.8
				C42.5,71,41.3,68.6,37.9,66.4z"/>
			<path class="st18" d="M65.1,52.6c-0.5,0-1,1.2-1,1.2c0.1,4.6-0.8,7.3-0.8,7.3C66.1,60.2,67.9,52.5,65.1,52.6z"/>
			<path class="st34" d="M64.8,56.7c0.3,1.6-0.3,2.5-0.3,2.5s0.9-1.2,1.1-2.2c0.3-2-0.5-2.1-0.2-2.6c0.3-0.4,0.7,0.8,0.7,0.8
				C66.4,52.4,64,53,64.8,56.7z"/>
			<linearGradient id="SVGID_36_" gradientUnits="userSpaceOnUse" x1="48.7131" y1="55.0635" x2="49.5098" y2="27.0636">
				<stop  offset="0" style="stop-color:#A3753D"/>
				<stop  offset="1" style="stop-color:#E0B163"/>
			</linearGradient>
			<path class="st44" d="M46.9,28.5c-14.8,1.5-15.7,20.6-15.1,23.7c0.2,0.9,1.5,1.2,1.5,1.2s0.4-3.4,0.8-4.2c0.8-1.5,2.6-7.3,4-9.6
				c0.7-1.2,2.6-3,4.9-3.7c3.5-1.1,6.9-1,10.5,0.2c0.9,0.3,3.2,0.8,5.5,4.4c0.8,1.2,4.7,8.3,4.7,13.3c0.9-1.4,2.1-1.5,2.3-2.7
				C66.2,49.8,67.2,26.4,46.9,28.5z"/>
			<linearGradient id="SVGID_37_" gradientUnits="userSpaceOnUse" x1="48.7155" y1="69.8969" x2="48.7155" y2="34.8289">
				<stop  offset="0" style="stop-color:#A3753D"/>
				<stop  offset="1" style="stop-color:#E0B163"/>
			</linearGradient>
			<path class="st45" d="M59.1,29.1c-0.6-0.4-1.8-2.4-11.2-1.8c-10.5,0.6-13.1,4.1-14.3,5.4c-1.2,1.3-4.1,5.3-4,10.4
				c0,2.9,0.2,8.4,2.1,10.2c0,0,0.4-3.5,0.4-6.2c0-2.7,1.7-5.3,2.9-8.3c1.5-3.7,6.8-6.3,13.1-6.3c1.4,0,6.9-0.8,8.4-0.6
				c6.4,0.7,7.2,6.9,7.7,8.4c0.9,2.9,1.8,12.6,1.8,12.6s1.7-3.7,1.7-4.8c0.3-5.4,1.1-6.7-1.6-12.1C64.5,32.7,62.6,31.4,59.1,29.1z"
				/>
			<linearGradient id="SVGID_38_" gradientUnits="userSpaceOnUse" x1="48.5385" y1="38.9369" x2="46.6719" y2="23.7549">
				<stop  offset="0" style="stop-color:#F4C381"/>
				<stop  offset="1" style="stop-color:#E0B163"/>
			</linearGradient>
			<path class="st46" d="M57.5,27.4C52.7,25,42.6,26,38.6,28c-1.1,0.5-5.1,4.5-5.8,5.5c-0.8,1.1-2.4,3.2-3,7
				c4-9.2,8.8-10.3,11.1-11.3c3.6-1.6,11.1-1.5,14-1c2.1,0.4,5.2,2.8,7.6,4.6c2.8,2.1,5.5,8.5,5.5,8.5s-0.2-2.3-1.9-5.8
				C63.9,31.2,62.5,29.7,57.5,27.4z"/>
			<linearGradient id="SVGID_39_" gradientUnits="userSpaceOnUse" x1="31.6925" y1="41.6561" x2="32.5372" y2="61.9287">
				<stop  offset="0" style="stop-color:#A3753D"/>
				<stop  offset="1" style="stop-color:#E0B163"/>
			</linearGradient>
			<path class="st47" d="M29.5,42.2c0,0.5-0.9,3,1.4,11.8c0.4-0.8,1.1-0.8,1.4-0.6c0.4,0.2,0.7,2.1,0.6,4.2c0,0,1.4-9.1,1.6-10.2
				C34.4,47.3,30,45.7,29.5,42.2z"/>
			<linearGradient id="SVGID_40_" gradientUnits="userSpaceOnUse" x1="54.7669" y1="62.9279" x2="64.135" y2="62.9279">
				<stop  offset="0" style="stop-color:#FFDEB3"/>
				<stop  offset="0.6815" style="stop-color:#FCDCB0"/>
				<stop  offset="1" style="stop-color:#F7D9AB"/>
			</linearGradient>
			<path class="st48" d="M62.4,54.6c1.6,3,1.4,7.9-2.7,11.5c-3.1,2.6-4,4.1-5,5.2c1.5-1.3,4.1-3.6,5.3-4.6c2.1-1.7,4.6-4.7,3.9-9
				C63.9,56.7,63.2,55.2,62.4,54.6z"/>
			<linearGradient id="SVGID_41_" gradientUnits="userSpaceOnUse" x1="64.9877" y1="39.6091" x2="65.829" y2="59.7997">
				<stop  offset="0" style="stop-color:#A3753D"/>
				<stop  offset="1" style="stop-color:#E0B163"/>
			</linearGradient>
			<path class="st49" d="M62.4,47.2c0.9,3.4,1.3,6.9,1.6,10.4c0,0-0.1-4,0.8-4.9c0.4-0.3,1.4-0.2,1.6,1.1c0,0,2.4-6.3,1.4-12.4
				C67.9,41.5,65.4,46.3,62.4,47.2z"/>
			<path class="st34" d="M44.1,72.4c0,0,4.6,4.7,9.6-0.3C53.7,72.1,49,75.5,44.1,72.4z"/>
			<g id="XMLID_498_">
				<linearGradient id="SVGID_42_" gradientUnits="userSpaceOnUse" x1="48.5606" y1="63.4323" x2="48.541" y2="61.2511">
					<stop  offset="0" style="stop-color:#F7D9AB"/>
					<stop  offset="0.517" style="stop-color:#F6D7A8"/>
					<stop  offset="0.8546" style="stop-color:#F3CFA0"/>
					<stop  offset="1" style="stop-color:#F0C999"/>
				</linearGradient>
				<path class="st50" d="M48.6,62.8c0.5-0.1,2.7-1.5,2.7-1.5l-5.5,0C45.8,61.3,48.1,62.9,48.6,62.8z"/>
				<g id="XMLID_499_">
					<linearGradient id="SVGID_43_" gradientUnits="userSpaceOnUse" x1="49.1968" y1="61.2364" x2="47.3344" y2="56.4302">
						<stop  offset="0" style="stop-color:#FFDEB3"/>
						<stop  offset="1" style="stop-color:#F7D9AB"/>
					</linearGradient>
					<path class="st51" d="M48.5,59c-1.5,0.1-1.9,0.4-1.8,0.8c0.3,1,0.9,1.1,1.8,1.1c1,0,1.7-0.2,1.9-1.3C50.5,59.4,50,58.9,48.5,59
						z"/>
					<linearGradient id="SVGID_44_" gradientUnits="userSpaceOnUse" x1="51.4396" y1="60.8222" x2="49.5896" y2="61.738">
						<stop  offset="0" style="stop-color:#DBA779"/>
						<stop  offset="0.4797" style="stop-color:#E4B586"/>
						<stop  offset="1" style="stop-color:#F0C999"/>
					</linearGradient>
					<path class="st52" d="M49.5,61.5c0,0,2.7,0,1.8-0.9C51.1,60.4,49.5,61.5,49.5,61.5z"/>
					<linearGradient id="SVGID_45_" gradientUnits="userSpaceOnUse" x1="45.7221" y1="60.9529" x2="47.6967" y2="61.7574">
						<stop  offset="0" style="stop-color:#DBA779"/>
						<stop  offset="0.4797" style="stop-color:#E4B586"/>
						<stop  offset="1" style="stop-color:#F0C999"/>
					</linearGradient>
					<path class="st53" d="M45.8,60.8c-0.9,0.8,2,0.7,2,0.7S46.1,60.6,45.8,60.8z"/>
					<path class="st18" d="M48.6,61.2c-2.7,0-3.1-1.4-3.4-0.5c-0.2,0.4,0.1,0.5,0.6,0.6c0,0-0.2-0.4,0.5-0.4c0.4,0,0.8,1,2.4,0.9
						c1.7-0.1,1.9-0.9,2.3-0.9c0.4,0,0.4,0.3,0.4,0.3s0.8-0.4,0.5-0.8C51.3,59.8,51.1,61.2,48.6,61.2z"/>
				</g>
			</g>
			<path class="st35" d="M61.5,48.1c-2.8-1.8-5.1-1.2-5.1-1.2c6.5,0.5,5.2,6.7,5.2,6.7S63.2,49.1,61.5,48.1z"/>
			<g id="XMLID_493_">
				<linearGradient id="SVGID_46_" gradientUnits="userSpaceOnUse" x1="52.3197" y1="47.7133" x2="61.7054" y2="47.7133">
					<stop  offset="0" style="stop-color:#956134"/>
					<stop  offset="0.3355" style="stop-color:#81552C"/>
					<stop  offset="0.677" style="stop-color:#744E27"/>
					<stop  offset="1" style="stop-color:#704B25"/>
				</linearGradient>
				<path class="st54" d="M53.7,47.3c-1.1,0.5-1.9,2-1,1.7c1-0.3,4.6-1.7,5.4-1.7c1.2,0,3.1,0.6,3.5,0.9c0,0-2.2-1.7-3.6-1.9
					C56.8,46.2,54.3,47,53.7,47.3z"/>
				<linearGradient id="SVGID_47_" gradientUnits="userSpaceOnUse" x1="34.6724" y1="47.8015" x2="44.1243" y2="47.8015">
					<stop  offset="0" style="stop-color:#704B25"/>
					<stop  offset="0.323" style="stop-color:#744E27"/>
					<stop  offset="0.6645" style="stop-color:#81552C"/>
					<stop  offset="1" style="stop-color:#956134"/>
				</linearGradient>
				<path class="st55" d="M42.8,47.5c-0.6-0.3-3.3-1.1-4.7-0.9c-1.3,0.2-3.5,2-3.5,2c0.5-0.3,2.4-1.1,3.5-1.1c0.8,0,4.5,1.2,5.5,1.5
					C44.6,49.3,44,47.9,42.8,47.5z"/>
			</g>
			<linearGradient id="SVGID_48_" gradientUnits="userSpaceOnUse" x1="48.5568" y1="51.2517" x2="49.1835" y2="32.6593">
				<stop  offset="0" style="stop-color:#DBA779"/>
				<stop  offset="0.4797" style="stop-color:#E4B586"/>
				<stop  offset="1" style="stop-color:#F0C999"/>
			</linearGradient>
			<path class="st56" d="M54.6,36c-7.1-2.7-13.1-0.2-14.6,1.2c-3.7,3.5-5.1,6.9-6.1,13.6c0,0,2.9-7.6,3.8-8.9c0.9-1.3,2.3-3.6,5-4.7
				c2.4-1,6.6-1.7,11.8,0.2c5.7,2,8.8,14.1,8.8,14.1S61.7,38.7,54.6,36z"/>
			<linearGradient id="SVGID_49_" gradientUnits="userSpaceOnUse" x1="52.4142" y1="38.7221" x2="53.5273" y2="28.4812">
				<stop  offset="0" style="stop-color:#F4C381"/>
				<stop  offset="1" style="stop-color:#E0B163"/>
			</linearGradient>
			<path class="st57" d="M52.3,27.4c2.3,3.4,0.2,6.9,0.2,6.9C57.4,29.3,52.3,27.4,52.3,27.4z"/>
			<linearGradient id="SVGID_50_" gradientUnits="userSpaceOnUse" x1="54.4455" y1="38.8392" x2="55.566" y2="28.5306">
				<stop  offset="0" style="stop-color:#F4C381"/>
				<stop  offset="1" style="stop-color:#E0B163"/>
			</linearGradient>
			<path class="st58" d="M54.4,27.6c2.8,2.5-0.4,7.1-0.4,7.1C59.5,30.5,54.4,27.6,54.4,27.6z"/>
			<linearGradient id="SVGID_51_" gradientUnits="userSpaceOnUse" x1="56.3727" y1="39.076" x2="57.5301" y2="28.4277">
				<stop  offset="0" style="stop-color:#F4C381"/>
				<stop  offset="1" style="stop-color:#E0B163"/>
			</linearGradient>
			<path class="st59" d="M55.1,35.1c6-0.7,2.9-6.5,2.9-6.5C59.2,33,55.1,35.1,55.1,35.1z"/>
			<linearGradient id="SVGID_52_" gradientUnits="userSpaceOnUse" x1="39.7283" y1="42.1828" x2="36.3303" y2="30.0253">
				<stop  offset="0" style="stop-color:#F4C381"/>
				<stop  offset="1" style="stop-color:#E0B163"/>
			</linearGradient>
			<path class="st60" d="M37.5,30.1c0,0-3.5,4.7,1.4,7.1C38.9,37.2,36.3,34,37.5,30.1z"/>
			<linearGradient id="SVGID_53_" gradientUnits="userSpaceOnUse" x1="37.8351" y1="42.6668" x2="34.5353" y2="30.8607">
				<stop  offset="0" style="stop-color:#F4C381"/>
				<stop  offset="1" style="stop-color:#E0B163"/>
			</linearGradient>
			<path class="st61" d="M34.7,32.4c0,0-2.4,5.1,3.4,5.6C38.1,38.1,34.1,36.2,34.7,32.4z"/>
			<linearGradient id="SVGID_54_" gradientUnits="userSpaceOnUse" x1="65.8309" y1="26.9902" x2="65.4691" y2="52.6764">
				<stop  offset="0" style="stop-color:#A3753D"/>
				<stop  offset="1" style="stop-color:#E0B163"/>
			</linearGradient>
			<path class="st62" d="M63.9,52.4c3.2,0.4,3.2-3.2,3.2-3.2C66.8,51.6,63.9,52.4,63.9,52.4z"/>
			<linearGradient id="SVGID_55_" gradientUnits="userSpaceOnUse" x1="65.9956" y1="27.2247" x2="65.6342" y2="52.8881">
				<stop  offset="0" style="stop-color:#A3753D"/>
				<stop  offset="1" style="stop-color:#E0B163"/>
			</linearGradient>
			<path class="st63" d="M63.4,50.7c0,0,4.5,0,4.5-5.7C68,45.1,66.8,49.6,63.4,50.7z"/>
			<linearGradient id="SVGID_56_" gradientUnits="userSpaceOnUse" x1="65.6873" y1="27.6547" x2="65.3303" y2="53.0018">
				<stop  offset="0" style="stop-color:#A3753D"/>
				<stop  offset="1" style="stop-color:#E0B163"/>
			</linearGradient>
			<path class="st64" d="M63,49c0,0,5-0.5,4.9-7.5C67.9,41.5,66.4,47.4,63,49z"/>
			<linearGradient id="SVGID_57_" gradientUnits="userSpaceOnUse" x1="31.9661" y1="31.6728" x2="31.643" y2="54.6127">
				<stop  offset="0" style="stop-color:#A3753D"/>
				<stop  offset="1" style="stop-color:#E0B163"/>
			</linearGradient>
			<path class="st65" d="M29.7,43.6c-1,7.2,4.3,5.9,4.3,5.9C30.5,48.3,29.7,43.6,29.7,43.6z"/>
			<g id="XMLID_453_">
				<linearGradient id="SVGID_58_" gradientUnits="userSpaceOnUse" x1="43.6352" y1="51.4363" x2="36.0342" y2="54.3882">
					<stop  offset="0" style="stop-color:#F0C999"/>
					<stop  offset="0.5203" style="stop-color:#E4B586"/>
					<stop  offset="1" style="stop-color:#DBA779"/>
				</linearGradient>
				<path class="st66" d="M39.1,49.8c-1.1,0.1-3.5,0.5-3.5,2.6c0,2.7,2.8,3.3,4.1,3.3c1.6,0,2.7-0.4,3.6-0.7
					c0.7-0.2,1.1-0.3,1.4-0.4C44.6,52.7,43.7,49.9,39.1,49.8z"/>
				<linearGradient id="SVGID_59_" gradientUnits="userSpaceOnUse" x1="41.7623" y1="53.3636" x2="44.3865" y2="53.3636">
					<stop  offset="0" style="stop-color:#FFFFFF"/>
					<stop  offset="0.4667" style="stop-color:#FDFCFC"/>
					<stop  offset="0.7734" style="stop-color:#F6F4F4"/>
					<stop  offset="1" style="stop-color:#ECE7E7"/>
				</linearGradient>
				<path class="st67" d="M41.8,51.5c0.5,0.4,1,1.2,1.1,2c0,0.8-0.3,1.3-0.8,1.8c0.7-0.2,1.4-0.5,2.4-0.7
					C44.4,54.6,43.5,52.5,41.8,51.5z"/>
				<path class="st68" d="M42,51.8c0.5,0.4,0.8,0.9,0.9,1.4c0.8,0.5,1.3,1.1,1.6,1.4C44.4,54.6,43.5,52.5,42,51.8z"/>
				<linearGradient id="SVGID_60_" gradientUnits="userSpaceOnUse" x1="36.9356" y1="53.2758" x2="39.1368" y2="53.2758">
					<stop  offset="0" style="stop-color:#FFFFFF"/>
					<stop  offset="0.4667" style="stop-color:#FDFCFC"/>
					<stop  offset="0.7734" style="stop-color:#F6F4F4"/>
					<stop  offset="1" style="stop-color:#ECE7E7"/>
				</linearGradient>
				<path class="st69" d="M39.9,51c-1.2,0.1-2.5,0.7-4.2,2.1c0,0,0.9,2,3.7,2.4c-0.6-0.4-1.1-1-1.1-1.8C38.1,52.5,38.9,51.4,39.9,51
					z"/>
				<linearGradient id="SVGID_61_" gradientUnits="userSpaceOnUse" x1="44.2959" y1="56.698" x2="37.9741" y2="52.2086">
					<stop  offset="0" style="stop-color:#DDDDDA"/>
					<stop  offset="1" style="stop-color:#A4A59D"/>
				</linearGradient>
				<path class="st70" d="M42.8,53.2c-1.6-1.1-3.4-1.1-4.7-0.7c-0.2,0.4-0.3,0.8-0.3,1.2c0,0.8,0.5,1.4,1.2,1.8
					c1,0.2,2.8-0.2,2.9-0.3c0.6-0.5,0.9-1,0.8-1.8C42.9,53.3,42.9,53.3,42.8,53.2z"/>
				<path class="st68" d="M36.1,53.2l0.3,0.6c0,0,0.6-0.5,1.6-0.9c0.2-0.6,0.6-1,1.1-1.3C37.9,51.8,36.8,52.3,36.1,53.2z"/>
				<linearGradient id="SVGID_62_" gradientUnits="userSpaceOnUse" x1="49.0592" y1="57.193" x2="42.4848" y2="53.6784">
					<stop  offset="0" style="stop-color:#C5C6C0"/>
					<stop  offset="1" style="stop-color:#94958D"/>
				</linearGradient>
				<path class="st71" d="M42,51.8c-0.2-0.1-0.4-0.2-0.6-0.2c-0.7-0.1-1.5-0.1-2.2,0c-0.5,0.3-1,0.7-1.1,1.3
					c0.7-0.3,1.6-0.5,2.5-0.4c0.9,0.1,1.7,0.4,2.3,0.8C42.8,52.6,42.4,52.1,42,51.8z"/>
				<radialGradient id="SVGID_63_" cx="39.8996" cy="53.499" r="1.895" gradientUnits="userSpaceOnUse">
					<stop  offset="0" style="stop-color:#2A3A3B"/>
					<stop  offset="1" style="stop-color:#1C2727"/>
				</radialGradient>
				<path class="st72" d="M40.2,51.7c-0.9,0.1-1.6,0.8-1.5,1.7c0.1,0.9,0.8,1.5,1.8,1.5c0.9-0.1,1.6-0.8,1.5-1.7
					C41.9,52.3,41.2,51.7,40.2,51.7z"/>
				<path class="st73" d="M40.8,52.6c-0.2-0.1-0.5,0-0.6,0.2c-0.1,0.2,0,0.5,0.2,0.6c0.2,0.1,0.5,0,0.6-0.2C41,53,41,52.8,40.8,52.6
					z"/>
				<path class="st73" d="M42.2,53.3c-0.3-0.1-0.6,0-0.8,0.3c-0.1,0.3,0,0.6,0.3,0.8c0.3,0.1,0.6,0,0.8-0.3
					C42.6,53.7,42.5,53.4,42.2,53.3z"/>
				<linearGradient id="SVGID_64_" gradientUnits="userSpaceOnUse" x1="30.2071" y1="50.9316" x2="44.6385" y2="54.1282">
					<stop  offset="0" style="stop-color:#422A16"/>
					<stop  offset="0.323" style="stop-color:#462D18"/>
					<stop  offset="0.6645" style="stop-color:#53341C"/>
					<stop  offset="1" style="stop-color:#674024"/>
				</linearGradient>
				<path class="st74" d="M37.4,51.1c-1.5,0.7-2.7,0.1-2.8,0.1c0,0.1-0.2,1.7,1,2.1c0,0,0,0.1,0,0.2c-0.5,0-0.7,0.2-0.8,0.4
					c0,0,0.5-0.3,1.6,0.5c0.7,0.5,1.8,1.1,3,1.1c-1.6-0.6-2.3-1-3.2-2.3c1.3-1.1,2.8-1.5,4.4-1.4c2.2,0.1,3.9,2.7,3.9,2.7
					C43.7,51.8,41.5,49.5,37.4,51.1z"/>
				<path class="st34" d="M41.5,50.1c-1.5-0.5-3-0.3-4.2,0.1c0,0,2.5-0.5,4.1,0.2c1.6,0.6,2.3,1.3,2.3,1.3S43,50.6,41.5,50.1z"/>
				<linearGradient id="SVGID_65_" gradientUnits="userSpaceOnUse" x1="36.2303" y1="53.0725" x2="44.4444" y2="53.0725">
					<stop  offset="0" style="stop-color:#674024"/>
					<stop  offset="0" style="stop-color:#53341C"/>
					<stop  offset="0" style="stop-color:#462D18"/>
					<stop  offset="0" style="stop-color:#422A16"/>
				</linearGradient>
				<path class="st75" d="M40.9,51.6c-3.6-0.4-4.7,1.6-4.7,1.6c0.9-0.7,2.5-1.6,4.5-1.4c2,0.2,3.7,2.7,3.7,2.7S43.6,51.9,40.9,51.6z
					"/>
				<linearGradient id="SVGID_66_" gradientUnits="userSpaceOnUse" x1="60.3473" y1="51.2971" x2="51.6151" y2="54.6883">
					<stop  offset="0" style="stop-color:#DBA779"/>
					<stop  offset="0.4797" style="stop-color:#E4B586"/>
					<stop  offset="1" style="stop-color:#F0C999"/>
				</linearGradient>
				<path class="st76" d="M57.3,49.8c-4.7,0-5.5,2.8-5.6,4.8c0.4,0.1,0.7,0.2,1.4,0.4c0.9,0.3,2,0.8,3.6,0.8c1.2,0,4-0.6,4.1-3.3
					C60.8,50.3,58.4,49.9,57.3,49.8z"/>
				<linearGradient id="SVGID_67_" gradientUnits="userSpaceOnUse" x1="51.7775" y1="53.2627" x2="54.4316" y2="53.2627">
					<stop  offset="0" style="stop-color:#FFFFFF"/>
					<stop  offset="0.4667" style="stop-color:#FDFCFC"/>
					<stop  offset="0.7734" style="stop-color:#F6F4F4"/>
					<stop  offset="1" style="stop-color:#ECE7E7"/>
				</linearGradient>
				<path class="st77" d="M51.8,54.4c1,0.2,1.7,0.5,2.4,0.7c-0.5-0.5-0.9-1-0.8-1.8c0-0.7,0.6-1.5,1.1-1.9
					C52.8,52.4,51.8,54.4,51.8,54.4z"/>
				<path class="st68" d="M51.8,54.4c0.3-0.3,0.8-0.9,1.6-1.3c0.1-0.6,0.4-1.1,0.9-1.4C52.8,52.4,51.8,54.4,51.8,54.4z"/>
				<linearGradient id="SVGID_68_" gradientUnits="userSpaceOnUse" x1="57.6901" y1="53.1974" x2="59.8808" y2="53.1974">
					<stop  offset="0" style="stop-color:#FFFFFF"/>
					<stop  offset="0.4667" style="stop-color:#FDFCFC"/>
					<stop  offset="0.7734" style="stop-color:#F6F4F4"/>
					<stop  offset="1" style="stop-color:#ECE7E7"/>
				</linearGradient>
				<path class="st78" d="M58.1,53.6c0,0.9-0.5,1.4-1.1,1.8c2.7-0.3,3.7-2.3,3.7-2.3c-1.7-1.4-3.1-2-4.2-2.1
					C57.4,51.3,58.2,52.4,58.1,53.6z"/>
				<linearGradient id="SVGID_69_" gradientUnits="userSpaceOnUse" x1="59.0104" y1="55.5365" x2="52.8391" y2="51.6794">
					<stop  offset="0" style="stop-color:#DDDDDA"/>
					<stop  offset="1" style="stop-color:#A4A59D"/>
				</linearGradient>
				<path class="st79" d="M53.5,53c0,0.1,0,0.2,0,0.3c-0.1,0.8,0.2,1.3,0.8,1.8c0.2,0.1,1.9,0.5,2.9,0.3c0.7-0.4,1.2-0.9,1.2-1.8
					c0-0.4-0.1-0.9-0.2-1.2C56.8,52,55.1,52,53.5,53z"/>
				<path class="st68" d="M57.2,51.5c0.5,0.3,0.9,0.8,1.1,1.3c1,0.4,1.6,0.9,1.6,0.9l0.3-0.6C59.5,52.3,58.4,51.7,57.2,51.5z"/>
				<linearGradient id="SVGID_70_" gradientUnits="userSpaceOnUse" x1="64.1307" y1="53.3316" x2="56.116" y2="52.3814">
					<stop  offset="0" style="stop-color:#C5C6C0"/>
					<stop  offset="1" style="stop-color:#94958D"/>
				</linearGradient>
				<path class="st80" d="M57.2,51.5c-0.7-0.1-1.5-0.2-2.2,0c-0.2,0-0.4,0.1-0.7,0.2c-0.5,0.4-0.8,0.8-0.9,1.4
					c0.6-0.4,1.4-0.7,2.3-0.7c0.9-0.1,1.8,0.2,2.5,0.5C58.1,52.2,57.7,51.8,57.2,51.5z"/>
				<radialGradient id="SVGID_71_" cx="55.4725" cy="53.405" r="1.895" gradientUnits="userSpaceOnUse">
					<stop  offset="0" style="stop-color:#2A3A3B"/>
					<stop  offset="1" style="stop-color:#1C2727"/>
				</radialGradient>
				<path class="st81" d="M56.1,51.6c-0.9-0.1-1.7,0.6-1.8,1.5c-0.1,0.9,0.6,1.6,1.5,1.7c0.9,0.1,1.7-0.6,1.8-1.5
					C57.6,52.5,57,51.7,56.1,51.6z"/>
				<path class="st73" d="M56.3,52.5c-0.2-0.1-0.5,0-0.6,0.2c-0.1,0.2-0.1,0.5,0.1,0.6c0.2,0.1,0.5,0,0.6-0.2
					C56.5,52.9,56.5,52.6,56.3,52.5z"/>
				<path class="st73" d="M57.7,53.2c-0.3-0.2-0.6-0.1-0.8,0.2c-0.2,0.3-0.1,0.6,0.2,0.8c0.3,0.2,0.6,0.1,0.8-0.2
					C58,53.7,57.9,53.3,57.7,53.2z"/>
				<linearGradient id="SVGID_72_" gradientUnits="userSpaceOnUse" x1="60.9984" y1="52.3012" x2="51.5968" y2="53.7114">
					<stop  offset="0" style="stop-color:#422A16"/>
					<stop  offset="0.323" style="stop-color:#462D18"/>
					<stop  offset="0.6645" style="stop-color:#53341C"/>
					<stop  offset="1" style="stop-color:#674024"/>
				</linearGradient>
				<path class="st82" d="M61.7,51.2c0,0-1.3,0.6-2.8-0.1c-4.1-1.7-6.4,0.6-7.1,3.4c0,0,1.7-2.6,3.9-2.7c1.5-0.1,3.1,0.4,4.3,1.4
					c-0.8,1.3-1.6,1.6-3.2,2.2c1.2,0,2.3-0.6,3-1.1c1.1-0.8,1.6-0.5,1.6-0.5c-0.1-0.1-0.3-0.4-0.8-0.4c0-0.1,0-0.1,0-0.2
					C61.9,52.9,61.7,51.2,61.7,51.2z"/>
				<path class="st34" d="M54.8,50c-1.5,0.5-2.2,1.6-2.2,1.6s0.7-0.7,2.3-1.3c1.7-0.6,4.1-0.1,4.1-0.1C57.9,49.7,56.3,49.5,54.8,50z
					"/>
				<linearGradient id="SVGID_73_" gradientUnits="userSpaceOnUse" x1="51.836" y1="52.9684" x2="60.0625" y2="52.9684">
					<stop  offset="0" style="stop-color:#674024"/>
					<stop  offset="0" style="stop-color:#53341C"/>
					<stop  offset="0" style="stop-color:#462D18"/>
					<stop  offset="0" style="stop-color:#422A16"/>
				</linearGradient>
				<path class="st83" d="M55.4,51.5c-2.7,0.3-3.6,2.9-3.6,2.9s1.7-2.5,3.7-2.7c2-0.2,3.6,0.7,4.5,1.4C60.1,53.2,59,51.2,55.4,51.5z
					"/>
			</g>
			<linearGradient id="SVGID_74_" gradientUnits="userSpaceOnUse" x1="48.0754" y1="58.2762" x2="48.2007" y2="50.0028">
				<stop  offset="0" style="stop-color:#38373B"/>
				<stop  offset="1" style="stop-color:#333236"/>
			</linearGradient>
			<path class="st84" d="M64.2,49.9c-0.5,0-9,0.5-10.3,0.6c-2.5,0.2-4,1.6-4.3,1.7c-0.3,0-0.9,0-1.5,0c-0.5,0-1.2,0-1.5,0
				c-0.3,0-1.9-1.4-4.4-1.7c-1.3-0.1-9.8-0.6-10.3-0.6c-0.5,0-0.4,1.9-0.5,2.1c-0.1,0.1,0.7,0.4,0.9,0.7c0.3,0.3,1.1,3.4,2.2,4
				c1.1,0.6,7.7,1.6,9.7,0.3c2-1.3,1.7-3,2.5-3.4c0.8-0.4,1.8-0.4,2.6,0c0.8,0.4,0.5,2.1,2.5,3.4c2,1.3,8.7,0.2,9.7-0.3
				c1.1-0.6,1.9-3.7,2.2-4c0.3-0.3,1-0.6,0.9-0.7C64.7,51.8,64.8,49.9,64.2,49.9z M43.7,56.7c-2.1,0.9-8.5,0.1-9.1-0.7
				c-0.6-0.8-1.2-3.6-0.1-4.3c1.1-0.7,6.1-0.6,7.3-0.5c1.3,0.1,3.1,0.8,3.4,1.3C45.7,53.2,45.8,55.9,43.7,56.7z M61.8,56
				c-0.6,0.8-7.1,1.6-9.2,0.7c-2.1-0.9-1.9-3.5-1.5-4.2c0.3-0.5,2.2-1.2,3.4-1.3c1.3-0.1,6.2-0.2,7.3,0.5C63,52.4,62.4,55.2,61.8,56
				z"/>
			<g>
				
					<linearGradient id="SVGID_75_" gradientUnits="userSpaceOnUse" x1="47.6653" y1="67.5416" x2="40.8515" y2="65.5116" gradientTransform="matrix(1 1.200000e-03 -1.200000e-03 1 0.3278 -1.7785)">
					<stop  offset="0" style="stop-color:#F7D9AB"/>
					<stop  offset="0.517" style="stop-color:#F6D7A8"/>
					<stop  offset="0.8546" style="stop-color:#F3CFA0"/>
					<stop  offset="1" style="stop-color:#F0C999"/>
				</linearGradient>
				<path class="st85" d="M40.4,63.3c-0.3,1.1,2.2,1.1,4.2,2C43,64.6,40.5,62.8,40.4,63.3z"/>
				
					<linearGradient id="SVGID_76_" gradientUnits="userSpaceOnUse" x1="42.7192" y1="68.0176" x2="54.1826" y2="68.0176" gradientTransform="matrix(1 1.200000e-03 -1.200000e-03 1 0.3278 -1.7785)">
					<stop  offset="0" style="stop-color:#DBA779"/>
					<stop  offset="0.4797" style="stop-color:#E4B586"/>
					<stop  offset="1" style="stop-color:#F0C999"/>
				</linearGradient>
				<path class="st86" d="M43,64.7c1.4,1.9,3.5,3.2,6,3.2c1.2,0,3.6-0.8,5.4-3.2C54.4,64.7,48,66,43,64.7z"/>
				
					<linearGradient id="SVGID_77_" gradientUnits="userSpaceOnUse" x1="58.7825" y1="67.2214" x2="53.5018" y2="65.6482" gradientTransform="matrix(1 1.200000e-03 -1.200000e-03 1 0.3278 -1.7785)">
					<stop  offset="0" style="stop-color:#F7D9AB"/>
					<stop  offset="0.517" style="stop-color:#F6D7A8"/>
					<stop  offset="0.8546" style="stop-color:#F3CFA0"/>
					<stop  offset="1" style="stop-color:#F0C999"/>
				</linearGradient>
				<path class="st87" d="M52.7,65.3c2-0.9,4.5-0.8,4.2-2C56.8,62.9,54.3,64.6,52.7,65.3z"/>
				<path class="st19" d="M55.9,63.6c-1.4,0.6-2.5,1.1-3.9,1.2c-0.4,0-6.1-0.1-6.5-0.1c-0.9-0.1-2.5-0.4-3.5-0.8
					c-0.5-0.2-1.1-0.6-1.2-0.6c-0.1,0.1,0.1,0.8,0.8,0.7c1.8,0.2,2.3,1.5,3.4,1.6c0.3,0,6.6,0,6.8,0c1.5,0,2.1-1.4,4-1.7
					c0.9,0,0.9-0.7,0.9-0.7C56.6,63.2,56.3,63.3,55.9,63.6z"/>
				<path class="st22" d="M48.5,64c-2.4,0-4.6,0.6-6.8-0.3c0.1,0,1.9,1.5,7,1.6c3.9,0.1,6-1,6.6-1.4C53.4,64.7,51.1,64,48.5,64z"/>
				<path class="st22" d="M48.6,65.5c-5-0.1-5.7-1.3-6.4-1.4c0.9,0.8,1.5,1.4,2,1.8c1.2,1,3.2,1.6,4.6,1.6c1.8-0.1,3.3-0.9,3.9-1.3
					c0.8-0.5,2.1-1.6,2.8-2.2C54.8,64,53.3,65.7,48.6,65.5z"/>
				
					<linearGradient id="SVGID_78_" gradientUnits="userSpaceOnUse" x1="48.1391" y1="69.4612" x2="48.3587" y2="67.5518" gradientTransform="matrix(1 1.200000e-03 -1.200000e-03 1 0.3278 -1.7785)">
					<stop  offset="0" style="stop-color:#F96E7E"/>
					<stop  offset="3.454573e-02" style="stop-color:#FA7080"/>
					<stop  offset="0.2473" style="stop-color:#FE7A86"/>
					<stop  offset="0.5279" style="stop-color:#FF7D88"/>
					<stop  offset="0.764" style="stop-color:#FD7985"/>
					<stop  offset="0.9974" style="stop-color:#F86D7D"/>
					<stop  offset="1" style="stop-color:#F86D7D"/>
				</linearGradient>
				<path class="st88" d="M48.4,65.9c-2.9-0.1-4.4-0.7-4.3-0.5c0.2,0.4,0.7,0.7,1.5,1.1c0.7,0.4,1.9,0.7,3.2,0.7
					c1.6,0,2.1-0.1,3-0.6c0.8-0.4,1.5-1,1.5-1.1C53.2,65.4,51.4,66,48.4,65.9z"/>
				<path class="st24" d="M48.1,66.8c-0.3,0.2,1,0.3,1.6,0.3c0.6,0,1.6-0.4,1.5-0.6C51.1,66.4,48.1,66.8,48.1,66.8z"/>
			</g>
		</g>
	</g>
</g>
</svg>
