<?xml version="1.0" encoding="utf-8"?>
<!-- Generator: Adobe Illustrator 22.1.0, SVG Export Plug-In . SVG Version: 6.00 Build 0)  -->
<svg version="1.1" id="Layer_1" xmlns="http://www.w3.org/2000/svg" xmlns:xlink="http://www.w3.org/1999/xlink" x="0px" y="0px"
	 viewBox="0 0 100 100" style="enable-background:new 0 0 100 100;" xml:space="preserve">
<style type="text/css">
	.st0{opacity:0.19;fill:#203C66;}
	.st1{fill:#D4D5E8;}
	.st2{fill:#706F6F;}
	.st3{clip-path:url(#SVGID_2_);}
	.st4{fill:#3E2446;}
	.st5{fill:#52325A;}
	.st6{fill:#F7D9AB;}
	.st7{fill:url(#SVGID_3_);}
	.st8{fill:url(#SVGID_4_);}
	.st9{fill:url(#SVGID_5_);}
	.st10{fill:url(#SVGID_6_);}
	.st11{fill:url(#SVGID_7_);}
	.st12{fill:url(#SVGID_8_);}
	.st13{fill:#FFFFFF;}
	.st14{fill:url(#SVGID_9_);}
	.st15{fill:url(#SVGID_10_);}
	.st16{fill:url(#SVGID_11_);}
	.st17{fill:url(#SVGID_12_);}
	.st18{fill:url(#SVGID_13_);}
	.st19{fill:url(#SVGID_14_);}
	.st20{fill:url(#SVGID_15_);}
	.st21{fill:url(#SVGID_16_);}
	.st22{fill:#F1F0F4;}
	.st23{fill:#F0C999;}
	.st24{fill:url(#SVGID_17_);}
	.st25{fill:url(#SVGID_18_);}
	.st26{fill:url(#SVGID_19_);}
	.st27{fill:url(#SVGID_20_);}
	.st28{fill:url(#SVGID_21_);}
	.st29{fill:url(#SVGID_22_);}
	.st30{fill:url(#SVGID_23_);}
	.st31{fill:url(#SVGID_24_);}
	.st32{fill:url(#SVGID_25_);}
	.st33{fill:url(#SVGID_26_);}
	.st34{fill:url(#SVGID_27_);}
	.st35{fill:url(#SVGID_28_);}
	.st36{fill:url(#SVGID_29_);}
	.st37{fill:url(#SVGID_30_);}
	.st38{fill:url(#SVGID_31_);}
	.st39{fill:#DDDDDD;}
	.st40{fill:url(#SVGID_32_);}
	.st41{fill:url(#SVGID_33_);}
	.st42{fill:url(#SVGID_34_);}
	.st43{fill:url(#SVGID_35_);}
	.st44{fill:url(#SVGID_36_);}
	.st45{fill:url(#SVGID_37_);}
	.st46{fill:url(#SVGID_38_);}
	.st47{fill:url(#SVGID_39_);}
	.st48{fill:url(#SVGID_40_);}
	.st49{fill:url(#SVGID_41_);}
	.st50{fill:url(#SVGID_42_);}
	.st51{fill:url(#SVGID_43_);}
	.st52{fill:url(#SVGID_44_);}
	.st53{fill:#3E1C15;}
	.st54{fill:url(#SVGID_45_);}
	.st55{fill:url(#SVGID_46_);}
	.st56{fill:url(#SVGID_47_);}
	.st57{fill:#E1B58C;}
	.st58{fill:url(#SVGID_48_);}
	.st59{fill:url(#SVGID_49_);}
	.st60{fill:url(#SVGID_50_);}
	.st61{fill:url(#SVGID_51_);}
	.st62{fill:url(#SVGID_52_);}
	.st63{fill:#961B27;}
	.st64{fill:url(#SVGID_53_);}
	.st65{fill:url(#SVGID_54_);}
</style>
<ellipse transform="matrix(0.895 -0.4461 0.4461 0.895 -17.0548 27.5577)" class="st0" cx="50" cy="50" rx="47.8" ry="47.8"/>
<g>
	<g>
		<path class="st1" d="M55,293.9c0,0,0,0.1,0,0.1c1.5,5.7,5.6,9.5,11.2,8.8c0.3-0.1,0.6-0.1,0.8-0.2c3.5-0.8,4.1-3.1,3.6-5.6
			c-0.1-0.6-0.3-1.1-0.5-1.7c-1-2.7-2.9-5.6-3.6-6.7c-1.6-2.3-2.9-9.4-2.9-9.4s-1.5,0.8-9.2,1.9C54.7,283.6,54.4,292,55,293.9z"/>
		<path class="st2" d="M58.2,302.8c5.9,3.4,10.9,1.7,11.7,1.3c3.2-2.1,0.5-8.4,0.2-8.9l0,0.1c0.2,0.5,0.4,1.1,0.5,1.7
			c0.5,2.5-0.1,4.8-3.6,5.6c-0.2,0.1-0.5,0.1-0.8,0.2c-5.6,0.7-9.7-3.1-11.2-8.8C55.5,298.5,55.6,300.7,58.2,302.8z"/>
	</g>
</g>
<g>
	<path class="st1" d="M46.8,296.3c0.2,2.8-2.6,2.8-3.8,3.2c-11.9,3.4-24.6,2.4-25.9,2.2c-4.5-0.6-3.8-1.6-3.8-3.1c0-0.1,0-0.1,0-0.2
		c0.3-6.9,11.6-8.6,16.3-10c4.7-1.5,4.4-3.6,4.4-3.6c7.1,2.1,9,0.4,10.7,0c2.1,3.6,2,9.5,1.8,11c0,0.1,0,0.1,0,0.2
		C46.8,296,46.8,296.1,46.8,296.3z"/>
	<path class="st2" d="M43.1,299.5c-11.9,3.4-24.6,2.4-25.9,2.2c-4.5-0.6-3.8-1.6-3.8-3.1c2.8,0.5,17.2,2.4,33.4-2.8
		c0,0.1,0,0.1,0,0.2c0,0.1,0,0.2,0,0.3C47.1,299,44.2,299.1,43.1,299.5z"/>
</g>
<g>
	<defs>
		<ellipse id="SVGID_1_" transform="matrix(0.895 -0.4461 0.4461 0.895 -17.1172 27.5724)" cx="50" cy="50.1" rx="47.8" ry="47.8"/>
	</defs>
	<clipPath id="SVGID_2_">
		<use xlink:href="#SVGID_1_"  style="overflow:visible;"/>
	</clipPath>
	<g class="st3">
		<path class="st4" d="M32.1,61.3c-1.9,0.6-2.9,2.2-2.9,2.2l2.9,5.2l8-5.2l-0.5-2.2C39.6,61.3,34,60.7,32.1,61.3z"/>
		<path class="st4" d="M67.1,61.3c-1.9-0.6-7.5,0-7.5,0l-0.5,2.2l8,5.2l2.9-5.2C70,63.5,69,61.9,67.1,61.3z"/>
		<path class="st5" d="M86.9,80.1c-0.1-0.3-0.3-0.7-0.5-1c-3.5-5.5-9.8-5.7-9.8-5.7l-1.3,17.5C79.8,87.9,83.7,84.3,86.9,80.1z"/>
		<path class="st5" d="M22.1,73c-3.5,1.7-7.7,4.2-8.8,8.7c-0.1,0.3-0.1,0.6-0.2,1.1c3.6,4.1,8,7.5,12.8,10.2l0-0.1L22.1,73z"/>
		<path class="st6" d="M39.7,66.7c-1.1,1.5-6.7,3.1-6.7,3.1s8.8,9.4,18.1,9.5c9.2,0.1,14.5-10.6,14.5-10.6L59.8,66
			C53.8,71.4,39.7,66.7,39.7,66.7z"/>
		<path class="st5" d="M81,86.4c0.5-5.6,0.9-11.2,0.9-11.2c-2.4-1.7-18.1-7.9-18.1-7.9s-2.5,10.2-13.7,10.8
			C38.9,78.7,35.6,67,35.6,67s-7.2,2.6-15,6.7c-0.9,0.5-1.8,1.2-2.7,1.7c-0.4,0.2,2.8,7.7,4.7,15.6c7.5,4.9,16.5,7.8,26.2,7.8
			C61.3,98.8,72.5,94.1,81,86.4z"/>
		<linearGradient id="SVGID_3_" gradientUnits="userSpaceOnUse" x1="53.7037" y1="75.7513" x2="48.3809" y2="74.9879">
			<stop  offset="0" style="stop-color:#F1CA9A"/>
			<stop  offset="0.5273" style="stop-color:#F2CC9D"/>
			<stop  offset="0.8717" style="stop-color:#F5D4A5"/>
			<stop  offset="1" style="stop-color:#F7D9AB"/>
		</linearGradient>
		<polygon class="st7" points="47.6,73.9 50.8,77.8 53.7,73.3 49.9,75.2 		"/>
		<linearGradient id="SVGID_4_" gradientUnits="userSpaceOnUse" x1="50.9103" y1="63.2181" x2="49.5389" y2="86.8589">
			<stop  offset="0" style="stop-color:#F1CA9A"/>
			<stop  offset="0.5273" style="stop-color:#F2CC9D"/>
			<stop  offset="0.8717" style="stop-color:#F5D4A5"/>
			<stop  offset="1" style="stop-color:#F7D9AB"/>
		</linearGradient>
		<path class="st8" d="M59.8,62c-0.1-2.5-0.3-5.3-0.4-5.7c0,0-7.2,5.2-19.9,0.8c0,0,0,4.2,0.1,7.6c0,0.8-0.1,1.2-0.2,1.6
			c-0.1,1-3.8,2.4-3.8,2.4s1.5,9.8,13.8,10.6c12.4,0.8,16.1-10.9,16.1-10.9s-4.4-1.9-4.9-2.3C60.3,65.9,60,63.9,59.8,62z M50.1,77.1
			C41,77.4,38.6,70,38.6,70s1.1-0.8,1.6-1.1c0.4-0.2,0.6-0.9,0.7-1.6c3.1,2.9,6.7,4.6,8.8,4.4c2.3-0.2,5.8-1.9,8.4-3.8l3.1,2.4
			C58.6,75.8,52.1,77,50.1,77.1z"/>
		<linearGradient id="SVGID_5_" gradientUnits="userSpaceOnUse" x1="49.3013" y1="101.1009" x2="51.3076" y2="60.9752">
			<stop  offset="0" style="stop-color:#52325A"/>
			<stop  offset="1" style="stop-color:#6E3E71"/>
		</linearGradient>
		<path class="st9" d="M72,86.2c-3.9-3.7-10.8-1.7-21.6-1.9c-10.8-0.3-14.8-1.5-21.8,2.4c-2.1,1.2-3.1,3.6-2.7,6.3
			c6.8,3.7,14.6,5.8,22.9,5.8c9.1,0,17.5-2.5,24.8-6.9C73.9,89.4,73.2,87.3,72,86.2z"/>
		<linearGradient id="SVGID_6_" gradientUnits="userSpaceOnUse" x1="35.7489" y1="64.8278" x2="59.309" y2="69.9409">
			<stop  offset="0" style="stop-color:#F7D9AB"/>
			<stop  offset="0.1283" style="stop-color:#F5D4A5"/>
			<stop  offset="0.4727" style="stop-color:#F2CC9D"/>
			<stop  offset="1" style="stop-color:#F1CA9A"/>
		</linearGradient>
		<path class="st10" d="M52.6,78l2-0.5c0,0,4.4-6.8,4.9-7.5c0.5-0.6,0-9.5,0-9.5C58.3,70.5,52.6,78,52.6,78z"/>
		<linearGradient id="SVGID_7_" gradientUnits="userSpaceOnUse" x1="0.234" y1="60.2641" x2="47.3106" y2="70.4807">
			<stop  offset="0" style="stop-color:#F7D9AB"/>
			<stop  offset="0.1283" style="stop-color:#F5D4A5"/>
			<stop  offset="0.4727" style="stop-color:#F2CC9D"/>
			<stop  offset="1" style="stop-color:#F1CA9A"/>
		</linearGradient>
		<path class="st11" d="M39.5,70.6c0.5,0.6,4.4,6.8,4.4,6.8l2.4,0.6c0,0-5.9-9.2-6.9-16.9C39.5,61.1,39,69.9,39.5,70.6z"/>
		<linearGradient id="SVGID_8_" gradientUnits="userSpaceOnUse" x1="33.4766" y1="74.5799" x2="67.0703" y2="74.5799">
			<stop  offset="0" style="stop-color:#F1F0F4"/>
			<stop  offset="1" style="stop-color:#FFFFFF"/>
		</linearGradient>
		<path class="st12" d="M50.2,77.9C39.4,78.3,37,68.1,37,68.1l-3.6,1.2c0,0,2.2,11.4,15.5,12.2c13.3,0.8,18.1-12.6,18.1-12.6
			l-3.5-1.3C63.6,67.6,61.2,77.4,50.2,77.9z"/>
		<polygon class="st13" points="49.6,82.6 55.2,80.8 46.4,80.8 		"/>
		<path class="st5" d="M59.5,60c0,0,1.7,13.3-9.9,22.6c0,0,14.6-7.9,17.5-13C70.1,64.5,59.5,60,59.5,60z"/>
		<linearGradient id="SVGID_9_" gradientUnits="userSpaceOnUse" x1="49.647" y1="76.7104" x2="74.0034" y2="76.7104">
			<stop  offset="0" style="stop-color:#52325A"/>
			<stop  offset="0.5239" style="stop-color:#4A2C52"/>
			<stop  offset="1" style="stop-color:#3E2446"/>
		</linearGradient>
		<path class="st14" d="M49.6,82.6c4,0.1,8.4-0.3,9.5-0.6C63.6,80.5,74,71.4,74,71.4l-1.3-0.7L49.6,82.6z"/>
		<linearGradient id="SVGID_10_" gradientUnits="userSpaceOnUse" x1="49.647" y1="73.6536" x2="68.1234" y2="73.6536">
			<stop  offset="0" style="stop-color:#52325A"/>
			<stop  offset="0.5239" style="stop-color:#4A2C52"/>
			<stop  offset="1" style="stop-color:#3E2446"/>
		</linearGradient>
		<path class="st15" d="M49.6,82.6c5.7-3,18.8-16,18.5-16.7c-0.4-0.7-1-1.3-1-1.3C63.9,70.3,49.6,82.6,49.6,82.6z"/>
		<path class="st5" d="M49.6,82.6c2.4,0.1,6.3-0.6,8.8-1.4c2.2-0.7,13.2-8.6,14.7-10.3c1.5-1.8-3.1-7.4-3.1-7.4
			C66.4,68.9,55.6,78.8,49.6,82.6z"/>
		<linearGradient id="SVGID_11_" gradientUnits="userSpaceOnUse" x1="65.0975" y1="76.0693" x2="65.9816" y2="49.3711">
			<stop  offset="0" style="stop-color:#52325A"/>
			<stop  offset="1" style="stop-color:#6E3E71"/>
		</linearGradient>
		<path class="st16" d="M67.1,61.3c-1.3-0.3-4.3-0.6-6-0.5c0.5,0.2,1.1,0.6,1.8,1.1c2.5,0.4,5.4,1,5.6,1.7c0.3,1.2-6.4,8.7-6.4,8.7
			s8.1-7.8,7.8-8.7C69.6,62.6,68.6,61.7,67.1,61.3z"/>
		<linearGradient id="SVGID_12_" gradientUnits="userSpaceOnUse" x1="55.4415" y1="59.7803" x2="56.619" y2="78.5024">
			<stop  offset="0" style="stop-color:#3E2446"/>
			<stop  offset="1" style="stop-color:#52325A"/>
		</linearGradient>
		<path class="st17" d="M58,70.8c-1.7,4-5.4,9.2-5.4,9.2s5.6-5.7,7.1-9.2c0.7-1.7-0.1-10.8-0.1-10.8S59.7,66.7,58,70.8z"/>
		<path class="st5" d="M39.7,60c0,0-10.6,4.5-7.7,9.6c3,5.1,17.5,13,17.5,13C38,73.3,39.7,60,39.7,60z"/>
		<linearGradient id="SVGID_13_" gradientUnits="userSpaceOnUse" x1="37.4794" y1="70.996" x2="37.1854" y2="89.2238">
			<stop  offset="0" style="stop-color:#3E2446"/>
			<stop  offset="0.4761" style="stop-color:#4A2C52"/>
			<stop  offset="1" style="stop-color:#52325A"/>
		</linearGradient>
		<path class="st18" d="M25.2,71.4c0,0,10.4,9,14.8,10.6c1,0.4,5.5,0.7,9.5,0.6l-23-11.9L25.2,71.4z"/>
		<linearGradient id="SVGID_14_" gradientUnits="userSpaceOnUse" x1="40.5654" y1="63.8826" x2="40.1377" y2="85.0839">
			<stop  offset="0" style="stop-color:#3E2446"/>
			<stop  offset="0.4761" style="stop-color:#4A2C52"/>
			<stop  offset="1" style="stop-color:#52325A"/>
		</linearGradient>
		<path class="st19" d="M32.1,64.7c0,0-0.7,0.7-1,1.3c-0.4,0.7,12.9,13.7,18.6,16.7C49.6,82.6,35.2,70.3,32.1,64.7z"/>
		<path class="st5" d="M29.2,63.5c0,0-4.6,5.6-3.1,7.4c1.5,1.8,12.5,9.6,14.7,10.3c2.5,0.8,6.4,1.5,8.8,1.4
			C43.6,78.8,32.8,68.9,29.2,63.5z"/>
		<linearGradient id="SVGID_15_" gradientUnits="userSpaceOnUse" x1="33.2783" y1="75.0158" x2="34.1624" y2="48.3175">
			<stop  offset="0" style="stop-color:#52325A"/>
			<stop  offset="1" style="stop-color:#6E3E71"/>
		</linearGradient>
		<path class="st20" d="M36.3,61.8c0.4-0.2,1.5-0.9,1.9-1.1c-1.7-0.1-4.8,0.3-6.1,0.6c-1.5,0.3-2.5,1.3-2.9,2.2
			c-0.4,0.9,7.8,8.7,7.8,8.7s-6.7-7.5-6.4-8.7C30.8,62.8,33.8,62.2,36.3,61.8z"/>
		<linearGradient id="SVGID_16_" gradientUnits="userSpaceOnUse" x1="42.026" y1="60.6962" x2="43.2004" y2="79.369">
			<stop  offset="0" style="stop-color:#3E2446"/>
			<stop  offset="1" style="stop-color:#52325A"/>
		</linearGradient>
		<path class="st21" d="M39.7,60c0,0-1.1,9.2-0.2,10.7c2.9,4.8,7.2,9.2,7.2,9.2s-3.7-5.1-5.4-9.2C39.5,66.7,39.7,60,39.7,60z"/>
		<path class="st4" d="M52.6,81.6c1.6,0.8,2.7-0.2,2.1-0.9C54.1,80.1,52.6,81.6,52.6,81.6z"/>
		<path class="st4" d="M44.1,80.5c-0.6,0.7,0.5,1.7,2.1,0.9C46.2,81.4,44.8,79.8,44.1,80.5z"/>
		<path class="st22" d="M53.4,81.3v17.3c0.4,0,0.8-0.1,1.1-0.1V81.2C54.6,81.2,53.9,80.9,53.4,81.3z"/>
		<path class="st22" d="M44.2,81v17.6h1.1V80.9C45.4,80.9,44.7,80.7,44.2,81z"/>
		<g>
			<path class="st23" d="M30.9,39.6c-1.9,0.4-1.5,1.6-0.7,3.9c0.8,6,2.4,7.2,3,6.9C34.5,49.7,33.2,39.2,30.9,39.6z"/>
			
				<linearGradient id="SVGID_17_" gradientUnits="userSpaceOnUse" x1="92.6212" y1="614.0982" x2="95.6413" y2="621.4248" gradientTransform="matrix(0.9787 0.1828 -0.1445 1.1336 28.7657 -672.6241)">
				<stop  offset="0" style="stop-color:#DBA779"/>
				<stop  offset="0.4797" style="stop-color:#E4B586"/>
				<stop  offset="1" style="stop-color:#F0C999"/>
			</linearGradient>
			<path class="st24" d="M32.5,48.2c0,0-0.9-1.1-0.5-3.3c0.8-5-2.2-5.5-1.6-2c0,0,0.5-1.6,0.9-1.1c0.5,0.6-0.5,0.9-0.1,3.5
				C31.2,46.7,32.5,48.2,32.5,48.2z"/>
		</g>
		<g>
			<path class="st23" d="M66.8,39.6c1.9,0.3,1.6,1.6,0.9,3.9c-0.5,6.1-1.9,7.3-2.6,7C63.8,49.9,64.5,39.3,66.8,39.6z"/>
			
				<linearGradient id="SVGID_18_" gradientUnits="userSpaceOnUse" x1="122.2665" y1="609.949" x2="125.2863" y2="617.2748" gradientTransform="matrix(-0.967 0.2279 0.2093 1.1254 57.6454 -673.8911)">
				<stop  offset="0" style="stop-color:#DBA779"/>
				<stop  offset="0.4797" style="stop-color:#E4B586"/>
				<stop  offset="1" style="stop-color:#F0C999"/>
			</linearGradient>
			<path class="st25" d="M65.7,48.2c0,0,0.8-1.2,0.3-3.3c-1.1-5,1.9-5.6,1.5-2.1c0,0-0.6-1.6-0.9-1.1c-0.4,0.6,0.6,0.9,0.3,3.5
				C66.9,46.7,65.7,48.2,65.7,48.2z"/>
		</g>
		<path class="st6" d="M65.3,39.3c0.6-14.2-4.4-14.7-5.7-16.2c-2.5-2.9-5.8-5.6-12.6-5.5c0,0-8.8,0.3-11,5.2
			c-2.4,5.2-3.3,12.3-3.1,18.9c0.2,8.1,0.6,10.2,1.3,11.9c0.3,0.8,0.9,1.9,2.4,3.1c2.5,2,5.6,5.9,7.6,8.2c0.7,0.8,10.3,0.5,11.5-0.3
			c1.8-1.3,4.1-4.9,6.9-7.7c1.2-1.2,2-3.2,2-4.2c0-1.1,0.5-5.5,0.6-6.4C65.2,42,65.1,43.2,65.3,39.3z"/>
		
			<radialGradient id="SVGID_19_" cx="538.2874" cy="-270.8056" r="8.0628" gradientTransform="matrix(-0.9986 3.720000e-02 5.230000e-02 0.7111 611.7908 219.6395)" gradientUnits="userSpaceOnUse">
			<stop  offset="0" style="stop-color:#F8C79C"/>
			<stop  offset="1" style="stop-color:#F7D9AB"/>
		</radialGradient>
		<path class="st26" d="M58.4,52.7c2.8,0.2,6,0.5,6.6-5.3c0.3-3.3-0.2-5.7-1.5-5.9c-2.9-0.5-7.1,0.7-8.9,1.6
			C50.9,45,53.4,52.4,58.4,52.7z"/>
		<linearGradient id="SVGID_20_" gradientUnits="userSpaceOnUse" x1="56.4651" y1="62.764" x2="48.0022" y2="62.5412">
			<stop  offset="0" style="stop-color:#FFDEB3"/>
			<stop  offset="1" style="stop-color:#F7D9AB"/>
		</linearGradient>
		<path class="st27" d="M50,61.5c-1,0-3.4,0.7-3.3,1c0.2,1.1,2.5,1.3,3.4,1.3c1,0,2.9-0.3,3-1.2C53.1,62.2,51,61.5,50,61.5z"/>
		
			<radialGradient id="SVGID_21_" cx="69.9095" cy="-320.0545" r="8.4301" gradientTransform="matrix(0.9958 -6.310000e-02 9.170000e-02 0.6854 -1.909 270.9649)" gradientUnits="userSpaceOnUse">
			<stop  offset="0" style="stop-color:#F8C79C"/>
			<stop  offset="1" style="stop-color:#F7D9AB"/>
		</radialGradient>
		<path class="st28" d="M42.9,42.8c-0.8-0.3-6.9-1.7-8.7-1.1c-1,0.3-1.4,2.8-1.2,5c0.1,1.1,0.2,2.6,0.4,3.3c1.2,3.3,6.3,3.4,8.9,2.5
			C46.7,50.9,47,44.3,42.9,42.8z"/>
		<linearGradient id="SVGID_22_" gradientUnits="userSpaceOnUse" x1="63.2989" y1="43.5924" x2="58.4549" y2="45.2628">
			<stop  offset="0" style="stop-color:#FBDBAF"/>
			<stop  offset="1" style="stop-color:#F7D9AB"/>
		</linearGradient>
		<path class="st29" d="M63.2,43.1c-0.5-0.3-0.9,0.1-1.9,0.5c-1,0.3-3.8,0.9-2.5,1.6c1.5,0.8,3.5-0.3,3.7-0.5
			C62.7,44.4,63.8,43.4,63.2,43.1z"/>
		<linearGradient id="SVGID_23_" gradientUnits="userSpaceOnUse" x1="39.7312" y1="45.1625" x2="32.5494" y2="43.4088">
			<stop  offset="0" style="stop-color:#FBDBAF"/>
			<stop  offset="1" style="stop-color:#F7D9AB"/>
		</linearGradient>
		<path class="st30" d="M36.6,43.6c-1.1-0.3-1.5-0.7-1.9-0.4c-0.6,0.4,0.5,1.3,0.8,1.5c0.3,0.2,2.3,1.2,3.8,0.3
			C40.5,44.3,37.6,43.9,36.6,43.6z"/>
		<linearGradient id="SVGID_24_" gradientUnits="userSpaceOnUse" x1="50.1712" y1="69.0196" x2="49.8446" y2="61.7706">
			<stop  offset="0" style="stop-color:#DBA779"/>
			<stop  offset="0.4797" style="stop-color:#E4B586"/>
			<stop  offset="1" style="stop-color:#F0C999"/>
		</linearGradient>
		<path class="st31" d="M45.4,64.9c-1.2-0.3-2.9-1.8-2.9-1.8s1.8,2.4,2.2,2.5c0.4,0.2,10,0.3,10.9-0.4c1-0.7,1.7-2,1.7-2
			s-1.7,1.4-2.5,1.6C54.1,65,46.6,65.1,45.4,64.9z"/>
		<linearGradient id="SVGID_25_" gradientUnits="userSpaceOnUse" x1="41.7303" y1="65.4417" x2="32.9226" y2="48.5836">
			<stop  offset="0" style="stop-color:#F7D9AB"/>
			<stop  offset="1" style="stop-color:#F0C999"/>
		</linearGradient>
		<path class="st32" d="M36.8,54.7c-0.9-1-3.9-8.9-3.9-8.9c0,0.8,0.1,2.1,0.2,3.1c0.2,2.3,0.4,4.5,0.8,5.5c0.3,0.6,3.4,3.8,4,4.3
			c0.6,0.5,4.5,4.2,4.5,4.2C41.9,62.6,37.7,55.7,36.8,54.7z"/>
		<linearGradient id="SVGID_26_" gradientUnits="userSpaceOnUse" x1="57.4554" y1="65.2056" x2="65.5177" y2="48.6227">
			<stop  offset="0" style="stop-color:#FFDEB3"/>
			<stop  offset="1" style="stop-color:#F7D9AB"/>
		</linearGradient>
		<path class="st33" d="M57.3,63.2c0.3-0.6,6.7-7.5,7.1-8.7c0.3-1.2,0.7-8.6,0.7-8.6c-0.3,2.8-2.6,7.2-2.8,8.1
			C62,54.8,57.3,63.2,57.3,63.2z"/>
		<linearGradient id="SVGID_27_" gradientUnits="userSpaceOnUse" x1="57.4851" y1="44.2318" x2="57.0588" y2="39.2235">
			<stop  offset="0" style="stop-color:#F7D9AB"/>
			<stop  offset="0.517" style="stop-color:#F6D7A8"/>
			<stop  offset="0.8546" style="stop-color:#F3CFA0"/>
			<stop  offset="1" style="stop-color:#F0C999"/>
		</linearGradient>
		<path class="st34" d="M52.1,37.1c-0.2,1.3-0.9,5.3-0.1,5.8c5.1,2.8,10.9-0.8,10.9-0.8C63.6,33.3,52.1,37.1,52.1,37.1z"/>
		<linearGradient id="SVGID_28_" gradientUnits="userSpaceOnUse" x1="41.1353" y1="44.2039" x2="40.7123" y2="39.2338">
			<stop  offset="0" style="stop-color:#F7D9AB"/>
			<stop  offset="0.517" style="stop-color:#F6D7A8"/>
			<stop  offset="0.8546" style="stop-color:#F3CFA0"/>
			<stop  offset="1" style="stop-color:#F0C999"/>
		</linearGradient>
		<path class="st35" d="M35.5,42.3c0,0,5.4,3.4,10.6,0.3c0.8-0.5-0.1-3.8-0.4-5.1C45.7,37.4,35,32.9,35.5,42.3z"/>
		<linearGradient id="SVGID_29_" gradientUnits="userSpaceOnUse" x1="49.2131" y1="23.21" x2="49.115" y2="29.3924">
			<stop  offset="0" style="stop-color:#F7D9AB"/>
			<stop  offset="0.4753" style="stop-color:#F5D5A6"/>
			<stop  offset="1" style="stop-color:#F0C999"/>
		</linearGradient>
		<path class="st36" d="M60.3,24.7c-0.4-0.1-0.8-0.2-1.2-0.3c-3.3-0.7-8.4-3.1-13.1-3.1c-2.9,0-5.5,0.6-7.5,1.1
			c-0.9,0.2-1.7,0.5-2.3,0.9c-1.8,1.2-2.8,3.5-3.4,8.9C32.6,34,33,45.7,33,45.8c3.7-8.6,3.2-16.3,5.2-17.5c2-1.2,8.8,0,12.7,0.2
			c3.9,0.2,9-0.7,9.3-0.5c0.9,0.8,1.2,8.4,4.9,17.7c0,0-0.1-13.1-0.3-16.2C64.4,25.6,63.4,25.6,60.3,24.7z"/>
		<g>
			<linearGradient id="SVGID_30_" gradientUnits="userSpaceOnUse" x1="52.4824" y1="39.8706" x2="61.5596" y2="42.4261">
				<stop  offset="0" style="stop-color:#DBA779"/>
				<stop  offset="0.4797" style="stop-color:#E4B586"/>
				<stop  offset="1" style="stop-color:#F0C999"/>
			</linearGradient>
			<path class="st37" d="M56.8,38.5c-2.6,0.1-4,0.6-4.2,1.6c-0.1,0.5-0.6,2-0.3,2.4c0.7,0.8,3.6,0.9,5.4,0.8
				c2.5-0.2,3.7-1.2,3.7-1.5c0-0.3-0.7-1.9-1.3-2.6C59.5,38.7,57.6,38.5,56.8,38.5z"/>
			<linearGradient id="SVGID_31_" gradientUnits="userSpaceOnUse" x1="60.8612" y1="41.0752" x2="51.9785" y2="41.5263">
				<stop  offset="0" style="stop-color:#FFFFFF"/>
				<stop  offset="0.4667" style="stop-color:#FDFCFC"/>
				<stop  offset="0.7734" style="stop-color:#F6F4F4"/>
				<stop  offset="1" style="stop-color:#ECE7E7"/>
			</linearGradient>
			<path class="st38" d="M55,39.5c-1.9,0.1-2.3,2.9-2.3,2.9c0.1,0.1,0.3,0.2,0.9,0.4c1,0.3,2.9,0.6,5.3,0.1c0.8-0.2,1.8-1.1,1.8-1.1
				C59,39.9,59.5,39.2,55,39.5z"/>
			<path class="st39" d="M58.4,39.8c-1.5,0.1-4.1-0.1-5.7,2.6c0,0,1.2-1,5-1c1,0,1.7,0.4,2.4,0.7c0.2-0.2,0.4-0.3,0.5-0.4
				C60.6,41.7,59.8,39.7,58.4,39.8z"/>
			<linearGradient id="SVGID_32_" gradientUnits="userSpaceOnUse" x1="58.7861" y1="41.7028" x2="52.0902" y2="41.4599">
				<stop  offset="0" style="stop-color:#B89C8C"/>
				<stop  offset="1" style="stop-color:#715241"/>
			</linearGradient>
			<path class="st40" d="M56.4,40C55.2,40,54,40.6,54,41.9c0,0.5,0.3,1,0.3,1.1c0.2,0.1,1.4,0.2,2,0.2c0.7,0,1.6-0.1,1.8-0.2
				c0.3-0.3,0.3-0.7,0.4-1C58.7,40.8,57.7,40.1,56.4,40z"/>
			<linearGradient id="SVGID_33_" gradientUnits="userSpaceOnUse" x1="59.7355" y1="40.5546" x2="53.9415" y2="41.0403">
				<stop  offset="0" style="stop-color:#B89C8C"/>
				<stop  offset="1" style="stop-color:#715241"/>
			</linearGradient>
			<path class="st41" d="M56.8,40c-1.6,0-2.8,0.3-2.8,1.9c0,0,2.6-0.7,4.5-0.3C58.6,41.5,58.3,40,56.8,40z"/>
			<radialGradient id="SVGID_34_" cx="57.5893" cy="42.5891" r="3.9725" gradientUnits="userSpaceOnUse">
				<stop  offset="0" style="stop-color:#2A3A3B"/>
				<stop  offset="1" style="stop-color:#1C2727"/>
			</radialGradient>
			<path class="st42" d="M56.4,40.4c-0.8,0-1.4,0.6-1.4,1.3c0,0.7,0.6,1.4,1.3,1.4c0.8,0,1.4-0.6,1.4-1.3
				C57.8,41.1,57.2,40.4,56.4,40.4z"/>
			<linearGradient id="SVGID_35_" gradientUnits="userSpaceOnUse" x1="52.5312" y1="40.9513" x2="60.2211" y2="40.5851">
				<stop  offset="0" style="stop-color:#421F16"/>
				<stop  offset="0.323" style="stop-color:#462118"/>
				<stop  offset="0.6645" style="stop-color:#53271C"/>
				<stop  offset="1" style="stop-color:#673024"/>
			</linearGradient>
			<path class="st43" d="M59.3,39.8c-1.4-0.5-4.1-0.9-5.4,0.1c-1,0.8-1.2,2.5-1.2,2.5s0.9-1.3,1.7-1.6c0.5-0.1,1.2-0.3,2.3-0.3
				c0.6,0,1.5,0.2,2.4,0.5c1.1,0.3,1.5,0.7,1.5,0.7S60.2,40.2,59.3,39.8z"/>
			<path class="st13" d="M57.7,41.5c-0.3,0-0.6,0.3-0.5,0.7c0,0.3,0.3,0.6,0.7,0.5c0.3,0,0.6-0.3,0.5-0.7
				C58.4,41.7,58.1,41.4,57.7,41.5z"/>
			<path class="st13" d="M56.4,40.9c-0.3,0-0.4,0.3-0.4,0.5c0,0.3,0.3,0.4,0.5,0.4c0.3,0,0.4-0.3,0.4-0.5
				C56.9,41.1,56.7,40.9,56.4,40.9z"/>
			<linearGradient id="SVGID_36_" gradientUnits="userSpaceOnUse" x1="36.7802" y1="39.6997" x2="45.9071" y2="42.2692">
				<stop  offset="0" style="stop-color:#F0C999"/>
				<stop  offset="0.5203" style="stop-color:#E4B586"/>
				<stop  offset="1" style="stop-color:#DBA779"/>
			</linearGradient>
			<path class="st44" d="M41,38.4c-0.8,0-2.7,0.2-3.3,0.7c-0.7,0.6-1.4,2.3-1.4,2.6c0,0.3,1.2,1.4,3.6,1.6c1.8,0.1,4.8,0,5.5-0.8
				c0.3-0.4-0.1-1.8-0.2-2.4C45,39.1,43.6,38.6,41,38.4z"/>
			<linearGradient id="SVGID_37_" gradientUnits="userSpaceOnUse" x1="45.0804" y1="42.11" x2="38.5958" y2="40.5448">
				<stop  offset="0" style="stop-color:#FFFFFF"/>
				<stop  offset="0.4667" style="stop-color:#FDFCFC"/>
				<stop  offset="0.7734" style="stop-color:#F6F4F4"/>
				<stop  offset="1" style="stop-color:#ECE7E7"/>
			</linearGradient>
			<path class="st45" d="M42.8,39.5c-4.6-0.4-4,0.3-5.6,2.1c0,0,0.9,0.9,1.8,1.1c2.3,0.6,4.2,0.2,5.3,0c0.6-0.1,0.8-0.3,0.9-0.4
				C45.1,42.4,44.7,39.6,42.8,39.5z"/>
			<path class="st39" d="M39.4,39.7c-1.5-0.2-2.3,1.9-2.3,1.9c0.1,0.1,0.2,0.2,0.5,0.4c0.7-0.4,1.4-0.7,2.4-0.7c3.9,0,5,1,5,1
				C43.5,39.6,40.9,39.9,39.4,39.7z"/>
			<linearGradient id="SVGID_38_" gradientUnits="userSpaceOnUse" x1="43.7105" y1="41.4387" x2="37.4509" y2="41.6891">
				<stop  offset="0" style="stop-color:#B89C8C"/>
				<stop  offset="1" style="stop-color:#715241"/>
			</linearGradient>
			<path class="st46" d="M41.3,40c-1.2,0.1-2.4,0.7-2.2,2c0,0.3,0.1,0.6,0.4,1c0.2,0.1,1.1,0.2,1.8,0.2c0.6,0,1.8-0.1,2-0.2
				c0.1-0.1,0.3-0.6,0.4-1.1C43.8,40.5,42.6,39.9,41.3,40z"/>
			<linearGradient id="SVGID_39_" gradientUnits="userSpaceOnUse" x1="43.8342" y1="41.2746" x2="39.7839" y2="40.5308">
				<stop  offset="0" style="stop-color:#B89C8C"/>
				<stop  offset="1" style="stop-color:#715241"/>
			</linearGradient>
			<path class="st47" d="M40.9,39.9c-1.4,0-1.7,1.5-1.7,1.5c2-0.4,4.5,0.4,4.5,0.4C43.7,40.1,42.5,39.9,40.9,39.9z"/>
			<radialGradient id="SVGID_40_" cx="42.6057" cy="42.5244" r="3.9703" gradientUnits="userSpaceOnUse">
				<stop  offset="0" style="stop-color:#2A3A3B"/>
				<stop  offset="1" style="stop-color:#1C2727"/>
			</radialGradient>
			<path class="st48" d="M41.4,40.3c-0.8,0-1.4,0.6-1.4,1.4c0,0.7,0.6,1.3,1.4,1.3c0.8,0,1.4-0.6,1.4-1.4
				C42.7,40.9,42.1,40.3,41.4,40.3z"/>
			<path class="st13" d="M42.5,41.5c-0.3,0.1-0.4,0.5-0.3,0.8c0.1,0.3,0.5,0.4,0.8,0.2c0.3-0.1,0.4-0.5,0.3-0.8
				C43.2,41.5,42.8,41.4,42.5,41.5z"/>
			<path class="st13" d="M41.3,41c-0.2,0.1-0.3,0.4-0.2,0.6c0.1,0.2,0.4,0.3,0.6,0.2c0.2-0.1,0.3-0.4,0.2-0.6
				C41.8,40.9,41.5,40.8,41.3,41z"/>
			<linearGradient id="SVGID_41_" gradientUnits="userSpaceOnUse" x1="37.0669" y1="41.0859" x2="44.6829" y2="40.7232">
				<stop  offset="0" style="stop-color:#673024"/>
				<stop  offset="0.3355" style="stop-color:#53271C"/>
				<stop  offset="0.677" style="stop-color:#462118"/>
				<stop  offset="1" style="stop-color:#421F16"/>
			</linearGradient>
			<path class="st49" d="M43.9,39.9c-1.3-1-4-0.7-5.4-0.2c-0.9,0.3-1.3,1.9-1.3,1.9s0.6-0.5,1.5-0.7c1.2-0.3,1.9-0.4,2.6-0.4
				c1,0,1.6,0.2,2,0.3c0.9,0.3,1.7,1.6,1.7,1.6S44.9,40.6,43.9,39.9z"/>
		</g>
		<linearGradient id="SVGID_42_" gradientUnits="userSpaceOnUse" x1="52.0382" y1="36.6668" x2="61.7633" y2="36.6668">
			<stop  offset="0" style="stop-color:#673024"/>
			<stop  offset="0.3355" style="stop-color:#53271C"/>
			<stop  offset="0.677" style="stop-color:#462118"/>
			<stop  offset="1" style="stop-color:#421F16"/>
		</linearGradient>
		<path class="st50" d="M59,35.9c-2.1-0.5-4.4-0.6-6.5,0.2c-0.8,0.3-0.6,1.5,0.3,1.5c1.7,0,3.9-0.5,5.6-0.5c2.4,0,3.4,0.7,3.4,0.7
			S60.5,36.2,59,35.9z"/>
		<linearGradient id="SVGID_43_" gradientUnits="userSpaceOnUse" x1="36.512" y1="36.8226" x2="45.7896" y2="36.8226">
			<stop  offset="0" style="stop-color:#673024"/>
			<stop  offset="0.3355" style="stop-color:#53271C"/>
			<stop  offset="0.677" style="stop-color:#462118"/>
			<stop  offset="1" style="stop-color:#421F16"/>
		</linearGradient>
		<path class="st51" d="M45.3,36.2c-2-0.8-4.1-0.7-6.1-0.3c-1.5,0.3-2.7,2.1-2.7,2.1s0.9-0.7,3.2-0.8c2-0.1,3.7,0.4,5.3,0.4
			C45.9,37.6,46,36.5,45.3,36.2z"/>
		<linearGradient id="SVGID_44_" gradientUnits="userSpaceOnUse" x1="47.6631" y1="15.7218" x2="50.1001" y2="52.7996">
			<stop  offset="0" style="stop-color:#673024"/>
			<stop  offset="0.3355" style="stop-color:#53271C"/>
			<stop  offset="0.677" style="stop-color:#462118"/>
			<stop  offset="1" style="stop-color:#421F16"/>
		</linearGradient>
		<path class="st52" d="M64.6,24c1.1-0.6,1.6-1.8,1.5-1.8c-0.5-0.4-14.2-6.9-19.1-6.4c-10.7,1-11.6,5.6-11.6,5.6s-1-0.5-1.2-2.3
			c0,0-0.1,0-0.1,0.1c-0.9,1.2-1.1,2.2-0.6,3.7c-0.3-0.7-0.7-0.7-1.1-1.9c-0.8,1.3-1.5,3-1.6,4.3c-0.2,2.3-0.2,6.9,0.3,14.4
			c0,0,0.9,0.2,1.4,1.6c0.3,1,0.3,3.6,0.5,4.6c0.3-2.9,1.1-6.4,1.4-7.9c0.5-3.2,1.1-10,2.5-11.2c1.1-0.4,3.4-0.7,6-0.9
			c3,0.3,7.8,0.7,8.8,0.8c1.2,0.2,6.8-0.2,9.1-0.4c0.1,0,0.2,0.1,0.2,0.1c0,0,2.6,10.7,2.8,11.8c0.6,3,0.8,4.9,1.2,7.7
			c0,0-0.1-6.3,1.6-6.3c0.2-6-0.3-14.8-0.4-16.1C65.8,23.8,65.5,23.9,64.6,24z"/>
		<path class="st53" d="M62.2,25.1c-0.9-0.5-8.2,1-9.1,1c-8.7,0.1-14.3-3.5-16.9-3.1c-2.6,0.4-2.4,6.8-2.7,7.6
			c-0.3,0.8-0.8,13.8-0.6,15.1c2.1-9.2,2.5-17.8,4-18.8c1.7-1.1,3-0.5,4.9-0.4c0.4,0,9.1,1,10.8,0.9c4.9-0.2,7.9-1.4,8.2-1.3
			c0.2,0.1,3.6,15.5,4.3,19.6c0,0-1.3-14.7-1.4-15.1C63.5,29.5,63.1,25.6,62.2,25.1z"/>
		<linearGradient id="SVGID_45_" gradientUnits="userSpaceOnUse" x1="50.2612" y1="15.9565" x2="52.9037" y2="31.4341">
			<stop  offset="0" style="stop-color:#673024"/>
			<stop  offset="0.7397" style="stop-color:#7A3C31"/>
			<stop  offset="1" style="stop-color:#824137"/>
		</linearGradient>
		<path class="st54" d="M36.4,21.3c0,0,4.1-2,6.4-0.8c2.3,1.2,7.1,3.9,9.2,4.1c4.5,0.4,8.2-0.5,10.5-1.1c-1.8-0.2-3.6-2-5.2-2.8
			c5.2,2.8,8,1.7,8.9,1.5c-4.8-2.2-6.5-5.5-12.5-6.4C38.7,13.4,36.4,21.3,36.4,21.3z"/>
		<g>
			<linearGradient id="SVGID_46_" gradientUnits="userSpaceOnUse" x1="48.844" y1="33.9772" x2="49.1936" y2="48.604">
				<stop  offset="0" style="stop-color:#FFDEB3"/>
				<stop  offset="0.1957" style="stop-color:#FDDDB1"/>
				<stop  offset="1" style="stop-color:#F7D9AB"/>
			</linearGradient>
			<path class="st55" d="M50.5,43.7c0.2-3.2-1-3.7-1.8-3.6c-0.8,0-1.3,1.1-1.1,3.6c0.2,2.4-0.3,3.4-0.2,4.5c0.1,0.5,0.3,0.9,1.6,0.9
				c1.4,0,2-0.3,2-0.8C51.2,46.9,50.3,46,50.5,43.7z"/>
			<linearGradient id="SVGID_47_" gradientUnits="userSpaceOnUse" x1="49.1749" y1="53.0046" x2="49.1416" y2="49.3147">
				<stop  offset="0" style="stop-color:#F7D9AB"/>
				<stop  offset="0.517" style="stop-color:#F6D7A8"/>
				<stop  offset="0.8546" style="stop-color:#F3CFA0"/>
				<stop  offset="1" style="stop-color:#F0C999"/>
			</linearGradient>
			<path class="st56" d="M45.1,49.4c0,0,3.6,2.6,4.4,2.5c0.8-0.2,3.7-2.5,3.7-2.5s-3.3,0.4-4.1,0.4C48.4,49.8,45.1,49.4,45.1,49.4z"
				/>
			<path class="st57" d="M50.6,49.9c2-0.5,2.7-0.2,2.7-0.2C52.2,48.7,50.6,49.9,50.6,49.9z"/>
			<path class="st57" d="M45.1,49.6c0,0,1-0.2,2.6,0.4C47.6,49.9,46.1,48.8,45.1,49.6z"/>
			<linearGradient id="SVGID_48_" gradientUnits="userSpaceOnUse" x1="48.9286" y1="42.3078" x2="49.1773" y2="50.5556">
				<stop  offset="0" style="stop-color:#F7D9AB"/>
				<stop  offset="0.5273" style="stop-color:#F6D7A8"/>
				<stop  offset="0.8717" style="stop-color:#F3CFA0"/>
				<stop  offset="1" style="stop-color:#F1CA9A"/>
			</linearGradient>
			<path class="st58" d="M52.1,46.7c0,0.8,0.2,1.3-0.1,1.8c-0.5,1-2,1.4-2.9,1.3c-0.7,0.1-2.4-0.3-3.1-1.3c-0.3-0.4-0.1-0.8-0.2-1.7
				c0,0-1.9,2.3-0.8,2.8c0,0,0.3-0.3,1.3-0.2c0.9,0.1,0.7,1.1,2.9,1.1c1.9,0,1.3-0.9,2.5-1.1c1.2-0.2,1.3,0.1,1.6,0.3
				C53.9,49.8,53.5,47.8,52.1,46.7z"/>
			<linearGradient id="SVGID_49_" gradientUnits="userSpaceOnUse" x1="48.8203" y1="49.3411" x2="49.3151" y2="45.6926">
				<stop  offset="0" style="stop-color:#FFDEB3"/>
				<stop  offset="0.2826" style="stop-color:#FBDCAF"/>
				<stop  offset="1" style="stop-color:#F7D9AB"/>
			</linearGradient>
			<path class="st59" d="M47.2,48c-0.1,0.5,0.7,1.1,2,1.1c1.4,0,1.8-0.6,1.7-1C50.1,45.2,47.5,46.1,47.2,48z"/>
		</g>
		<g>
			
				<linearGradient id="SVGID_50_" gradientUnits="userSpaceOnUse" x1="48.6339" y1="59.5818" x2="41.1454" y2="57.3507" gradientTransform="matrix(1 1.200000e-03 -1.200000e-03 1 0.3278 -1.7785)">
				<stop  offset="0" style="stop-color:#F7D9AB"/>
				<stop  offset="0.517" style="stop-color:#F6D7A8"/>
				<stop  offset="0.8546" style="stop-color:#F3CFA0"/>
				<stop  offset="1" style="stop-color:#F0C999"/>
			</linearGradient>
			<path class="st60" d="M40.7,55.1c-0.3,1.3,2.4,1.2,4.6,2.2C43.5,56.6,40.8,54.6,40.7,55.1z"/>
			
				<linearGradient id="SVGID_51_" gradientUnits="userSpaceOnUse" x1="43.1981" y1="60.105" x2="55.7965" y2="60.105" gradientTransform="matrix(1 1.200000e-03 -1.200000e-03 1 0.3278 -1.7785)">
				<stop  offset="0" style="stop-color:#DBA779"/>
				<stop  offset="0.4797" style="stop-color:#E4B586"/>
				<stop  offset="1" style="stop-color:#F0C999"/>
			</linearGradient>
			<path class="st61" d="M43.5,56.7c1.5,2.1,3.9,3.6,6.6,3.5c1.3,0,3.9-0.9,6-3.5C56.1,56.6,49,58,43.5,56.7z"/>
			
				<linearGradient id="SVGID_52_" gradientUnits="userSpaceOnUse" x1="60.8519" y1="59.2299" x2="55.0483" y2="57.5009" gradientTransform="matrix(1 1.200000e-03 -1.200000e-03 1 0.3278 -1.7785)">
				<stop  offset="0" style="stop-color:#F7D9AB"/>
				<stop  offset="0.517" style="stop-color:#F6D7A8"/>
				<stop  offset="0.8546" style="stop-color:#F3CFA0"/>
				<stop  offset="1" style="stop-color:#F0C999"/>
			</linearGradient>
			<path class="st62" d="M54.2,57.2c2.2-0.9,4.9-0.9,4.6-2.2C58.6,54.6,55.9,56.6,54.2,57.2z"/>
			<path class="st63" d="M57.6,55.4c-1.5,0.7-2.7,1.2-4.3,1.3c-0.5,0-6.7-0.1-7.1-0.1c-1-0.1-2.8-0.4-3.9-0.9
				c-0.6-0.3-1.2-0.7-1.3-0.6c-0.1,0.1,0.1,0.8,0.9,0.8c2,0.3,2.6,1.7,3.7,1.8c0.3,0,7.2,0,7.5,0c1.7,0,2.3-1.6,4.3-1.9
				c1,0,1-0.7,1-0.7C58.4,55,58.1,55.1,57.6,55.4z"/>
			<linearGradient id="SVGID_53_" gradientUnits="userSpaceOnUse" x1="42.0642" y1="56.3861" x2="56.9495" y2="56.3861">
				<stop  offset="0" style="stop-color:#DBA779"/>
				<stop  offset="0.4797" style="stop-color:#E4B586"/>
				<stop  offset="1" style="stop-color:#F0C999"/>
			</linearGradient>
			<path class="st64" d="M49.5,55.8c-2.6,0-5,0.7-7.5-0.3c0.1,0,2.1,1.6,7.7,1.7c4.2,0.1,6.6-1.1,7.2-1.6
				C54.9,56.6,52.4,55.9,49.5,55.8z"/>
			<linearGradient id="SVGID_54_" gradientUnits="userSpaceOnUse" x1="42.5734" y1="57.7696" x2="57.2485" y2="57.7696">
				<stop  offset="0" style="stop-color:#DBA779"/>
				<stop  offset="0.4797" style="stop-color:#E4B586"/>
				<stop  offset="1" style="stop-color:#F0C999"/>
			</linearGradient>
			<path class="st65" d="M49.6,57.5c-5.5-0.1-6.3-1.4-7-1.6c1,0.9,1.7,1.5,2.2,2c1.3,1.1,3.5,1.8,5.1,1.7c2-0.1,3.7-1,4.3-1.4
				c0.8-0.5,2.3-1.8,3.1-2.4C56.4,55.8,54.8,57.7,49.6,57.5z"/>
		</g>
	</g>
</g>
</svg>
