<?xml version="1.0" encoding="utf-8"?>
<!-- Generator: Adobe Illustrator 22.1.0, SVG Export Plug-In . SVG Version: 6.00 Build 0)  -->
<svg version="1.1" id="Layer_1" xmlns="http://www.w3.org/2000/svg" xmlns:xlink="http://www.w3.org/1999/xlink" x="0px" y="0px"
	 viewBox="0 0 100 100" style="enable-background:new 0 0 100 100;" xml:space="preserve">
<style type="text/css">
	.st0{opacity:0.19;fill:#203C66;}
	.st1{fill:url(#SVGID_1_);}
	.st2{fill:url(#SVGID_2_);}
	.st3{fill:url(#SVGID_3_);}
	.st4{fill:#373737;}
	.st5{fill:url(#SVGID_4_);}
	.st6{fill:url(#SVGID_5_);}
	.st7{fill:url(#SVGID_6_);}
	.st8{fill:url(#SVGID_7_);}
	.st9{fill:url(#SVGID_8_);}
	.st10{fill:url(#SVGID_9_);}
	.st11{fill:url(#SVGID_10_);}
	.st12{fill:url(#SVGID_11_);}
	.st13{fill:url(#SVGID_12_);}
	.st14{fill:url(#SVGID_13_);}
	.st15{fill:url(#SVGID_14_);}
	.st16{fill:url(#SVGID_15_);}
	.st17{fill:url(#SVGID_16_);}
	.st18{fill:url(#SVGID_17_);}
	.st19{fill:url(#SVGID_18_);}
	.st20{fill:url(#SVGID_19_);}
	.st21{fill:url(#SVGID_20_);}
	.st22{fill:url(#SVGID_21_);}
	.st23{fill:url(#SVGID_22_);}
	.st24{fill:url(#SVGID_23_);}
	.st25{fill:url(#SVGID_24_);}
	.st26{fill:#F0C999;}
	.st27{fill:url(#SVGID_25_);}
	.st28{fill:url(#SVGID_26_);}
	.st29{fill:#F7D9AB;}
	.st30{fill:url(#SVGID_27_);}
	.st31{fill:url(#SVGID_28_);}
	.st32{fill:url(#SVGID_29_);}
	.st33{fill:url(#SVGID_30_);}
	.st34{fill:url(#SVGID_31_);}
	.st35{fill:url(#SVGID_32_);}
	.st36{fill:url(#SVGID_33_);}
	.st37{fill:url(#SVGID_34_);}
	.st38{fill:url(#SVGID_35_);}
	.st39{fill:url(#SVGID_36_);}
	.st40{fill:url(#SVGID_37_);}
	.st41{fill:#E1B58C;}
	.st42{fill:url(#SVGID_38_);}
	.st43{fill:url(#SVGID_39_);}
	.st44{fill:url(#SVGID_40_);}
	.st45{fill:url(#SVGID_41_);}
	.st46{fill:url(#SVGID_42_);}
	.st47{fill:url(#SVGID_43_);}
	.st48{fill:#DDDDDD;}
	.st49{fill:url(#SVGID_44_);}
	.st50{fill:url(#SVGID_45_);}
	.st51{fill:url(#SVGID_46_);}
	.st52{fill:#FFFFFF;}
	.st53{fill:#3B3B3B;}
	.st54{fill:url(#SVGID_47_);}
	.st55{fill:url(#SVGID_48_);}
	.st56{fill:url(#SVGID_49_);}
	.st57{fill:url(#SVGID_50_);}
	.st58{fill:url(#SVGID_51_);}
	.st59{fill:url(#SVGID_52_);}
	.st60{fill:url(#SVGID_53_);}
	.st61{fill:url(#SVGID_54_);}
	.st62{fill:url(#SVGID_55_);}
	.st63{fill:url(#SVGID_56_);}
	.st64{fill:url(#SVGID_57_);}
	.st65{fill:url(#SVGID_58_);}
	.st66{fill:url(#SVGID_59_);}
	.st67{fill:#961B27;}
	.st68{fill:url(#SVGID_60_);}
	.st69{fill:url(#SVGID_61_);}
</style>
<ellipse transform="matrix(0.895 -0.4461 0.4461 0.895 -17.0548 27.5577)" class="st0" cx="50" cy="50" rx="47.8" ry="47.8"/>
<g>
	<linearGradient id="SVGID_1_" gradientUnits="userSpaceOnUse" x1="51.1619" y1="71.0559" x2="53.7583" y2="92.1152">
		<stop  offset="0" style="stop-color:#F1F0F5"/>
		<stop  offset="0.6433" style="stop-color:#F9F8FA"/>
		<stop  offset="1" style="stop-color:#FFFFFF"/>
	</linearGradient>
	<path class="st1" d="M51.1,71.3c-1.8,0-4.4,0.6-5.5,1.4c-1.1,0.8-4.5,7.3-4.5,7.3s9.1,11.6,12.4,10.6c3.3-1.1,10.1-13.4,9.3-14.9
		C62,74.1,52.9,71.3,51.1,71.3z"/>
	<linearGradient id="SVGID_2_" gradientUnits="userSpaceOnUse" x1="50.4308" y1="63.3166" x2="52.0863" y2="93.2756">
		<stop  offset="0" style="stop-color:#E1E1E5"/>
		<stop  offset="1" style="stop-color:#F1F0F5"/>
	</linearGradient>
	<path class="st2" d="M51.4,86.1c0,0-4.6-4.2-7.4-7l-2,2.3c0,0,6.4,6.5,9,7.1c0,0,7-4.1,9.8-8.2l-1.6-1.9
		C59.2,78.4,53.4,85.2,51.4,86.1z"/>
	<linearGradient id="SVGID_3_" gradientUnits="userSpaceOnUse" x1="50.7079" y1="63.6636" x2="52.1867" y2="90.4242">
		<stop  offset="0" style="stop-color:#E1E1E5"/>
		<stop  offset="1" style="stop-color:#F1F0F5"/>
	</linearGradient>
	<path class="st3" d="M59.9,75.8c-2.7-2.5-5-4.5-5-4.5s-6-0.1-6.9,0.3c-0.4,0.2-1.8,1.9-3.1,3.8l-7.4-10.8c0,0-1.3,4.5-0.1,7.2
		c1.2,2.7,5.4,10.3,5.4,10.3s6-7.4,6.4-7.5c0.4-0.2,4.1-1.1,5,0.1c0.7,0.8,7.7,8.3,7.7,8.3s3-8.9,3.3-11.2c0.4-3.5-0.7-6.5-0.7-6.5
		L59.9,75.8z"/>
	<g>
		<path class="st4" d="M51.3,71.4c-1.6-0.2-3.2,1.8-3.2,1.8s0.8,5.2,1.7,5.8c0.9,0.6,3.7,0.6,4.2-0.3c0.5-0.9,1.2-5.6,1.1-5.9
			C55.1,72.4,52.6,71.5,51.3,71.4z"/>
		<linearGradient id="SVGID_4_" gradientUnits="userSpaceOnUse" x1="48.0182" y1="72.952" x2="51.3782" y2="72.952">
			<stop  offset="0" style="stop-color:#2D2D2D"/>
			<stop  offset="1" style="stop-color:#373737"/>
		</linearGradient>
		<path class="st5" d="M48.4,74.5c0.3-0.8,3-3.2,3-3.2c-1.8,0.1-3.4,1.3-3.4,1.3L48.4,74.5z"/>
		<path class="st4" d="M57.7,94c-0.1-3.8-3.2-12.3-3.3-12.6c-0.1-0.3-0.5-3.4-0.5-3.4l-3.3,0c0,0-0.7,1.3-1.1,4.2
			c-0.4,2.9-2.2,13.3-2.2,13.3l-0.1,2.3c0.9,0,1.7,0.1,2.6,0.1c2.7,0,5.4-0.2,8-0.7C57.7,95.7,57.7,94.6,57.7,94z"/>
		<linearGradient id="SVGID_5_" gradientUnits="userSpaceOnUse" x1="52.7472" y1="78.1734" x2="52.285" y2="88.7121">
			<stop  offset="0" style="stop-color:#2D2D2D"/>
			<stop  offset="1" style="stop-color:#373737"/>
		</linearGradient>
		<path class="st6" d="M49.8,79l-1.2,7.9c0.2-0.9,4.5-5.6,4.5-5.6l3,5.5l-2-8.1C53.1,79.5,49.8,79,49.8,79z"/>
		<linearGradient id="SVGID_6_" gradientUnits="userSpaceOnUse" x1="51.3782" y1="72.7971" x2="55.329" y2="72.7971">
			<stop  offset="0" style="stop-color:#2D2D2D"/>
			<stop  offset="1" style="stop-color:#373737"/>
		</linearGradient>
		<path class="st7" d="M55.1,74.2l0.3-1.8c0,0-1.7-0.7-4-1.1C51.4,71.4,54.1,72.5,55.1,74.2z"/>
		<linearGradient id="SVGID_7_" gradientUnits="userSpaceOnUse" x1="51.9028" y1="80.8917" x2="51.7732" y2="75.8356">
			<stop  offset="0" style="stop-color:#2D2D2D"/>
			<stop  offset="1" style="stop-color:#373737"/>
		</linearGradient>
		<path class="st8" d="M51.5,79c-1.5-0.3-2.6-2.1-2.6-2.1s0.2,1,0.7,1.9c0.5,0.8,1.7,0.9,2.1,0.9c0.4,0,1.6,0,2.3-0.7
			c0.6-0.6,0.7-2.5,0.7-2.5C54.1,77.5,53,79.2,51.5,79z"/>
	</g>
	<linearGradient id="SVGID_8_" gradientUnits="userSpaceOnUse" x1="61.4585" y1="62.4795" x2="32.8478" y2="60.4177">
		<stop  offset="0" style="stop-color:#F7D9AB"/>
		<stop  offset="0.1454" style="stop-color:#F4D3A4"/>
		<stop  offset="0.483" style="stop-color:#F1CB9C"/>
		<stop  offset="1" style="stop-color:#F0C999"/>
	</linearGradient>
	<path class="st9" d="M40.2,54.3c0,0,0,5.3,0.1,9c3.4,3.8,8.4,7.6,10.8,7.3c3-0.3,7.6-4.4,10.1-7c0,0-0.5-9.3-0.6-10.2
		C60.6,53.5,53.2,58.8,40.2,54.3z"/>
	<linearGradient id="SVGID_9_" gradientUnits="userSpaceOnUse" x1="55.6259" y1="84.7606" x2="51.2239" y2="63.9199">
		<stop  offset="0" style="stop-color:#F7D9AB"/>
		<stop  offset="0.5245" style="stop-color:#F2CD9E"/>
		<stop  offset="1" style="stop-color:#F0C999"/>
	</linearGradient>
	<path class="st10" d="M57.7,66.4c-2.3,1.6-5.3,3.1-6.2,3.2c-0.9,0.1-6.5-2.5-7.6-3.4c-1.1-0.9-2.9-3.9-3.5-5.2c0,0-0.1,1.7,0.3,2.5
		c0.3,0.7,1.1,3.3,3.9,4.9c2.7,1.6,5.7,2.8,6.6,2.9c0.9,0,5.3-1.3,6-1.9c0.7-0.5,3.8-3.3,3.9-4.4c0.1-1.1,0.3-2.7,0.1-4.9
		C61,60.2,59.9,64.8,57.7,66.4z"/>
	<linearGradient id="SVGID_10_" gradientUnits="userSpaceOnUse" x1="60.9697" y1="68.4004" x2="61.6508" y2="80.4176">
		<stop  offset="0" style="stop-color:#F1F0F5"/>
		<stop  offset="0.6433" style="stop-color:#F9F8FA"/>
		<stop  offset="1" style="stop-color:#FFFFFF"/>
	</linearGradient>
	<path class="st11" d="M61.2,77.2c-1-0.1-3-1.2-3-1.2l3.5,4l2.6-8.1C64.4,71.9,62.2,77.4,61.2,77.2z"/>
	<linearGradient id="SVGID_11_" gradientUnits="userSpaceOnUse" x1="42.1063" y1="69.4695" x2="42.7875" y2="81.4867">
		<stop  offset="0" style="stop-color:#F1F0F5"/>
		<stop  offset="0.6433" style="stop-color:#F9F8FA"/>
		<stop  offset="1" style="stop-color:#FFFFFF"/>
	</linearGradient>
	<path class="st12" d="M38.6,72.8l4,7.2l3.5-4.7C46.1,75.3,42.2,79.4,38.6,72.8z"/>
	<linearGradient id="SVGID_12_" gradientUnits="userSpaceOnUse" x1="58.0181" y1="63.4982" x2="57.8235" y2="90.7923">
		<stop  offset="0" style="stop-color:#F1F0F5"/>
		<stop  offset="0.6433" style="stop-color:#F9F8FA"/>
		<stop  offset="1" style="stop-color:#FFFFFF"/>
	</linearGradient>
	<path class="st13" d="M61,60.4c0,0,0.2,1.2-0.5,3.9c-0.9,3.4-9.4,7-9.4,7c1.9,0.3,3.3,1.1,4,1.6c0.7,0.4,6.6,7.1,6.6,7.1
		s3.1-8.4,3.1-10.7c0-2.4,0.3-3.7-1.7-6.2C62.2,61.9,61,60.4,61,60.4z"/>
	<linearGradient id="SVGID_13_" gradientUnits="userSpaceOnUse" x1="43.8234" y1="64.2465" x2="43.6291" y2="91.4929">
		<stop  offset="0" style="stop-color:#F1F0F5"/>
		<stop  offset="0.6433" style="stop-color:#F9F8FA"/>
		<stop  offset="1" style="stop-color:#FFFFFF"/>
	</linearGradient>
	<path class="st14" d="M41,64.2c-0.7-2.4-0.7-3.1-0.7-3.1s-2.2,2.4-3.2,3.8c-2,2.7,1.2,7.4,1.2,7.4l4.3,7.8c0,0,4.5-6.1,5.5-7.2
		c1-1.1,3-1.5,3-1.5S41.8,66.9,41,64.2z"/>
	<linearGradient id="SVGID_14_" gradientUnits="userSpaceOnUse" x1="53.35" y1="65.8528" x2="64.1424" y2="65.8528">
		<stop  offset="0" style="stop-color:#FFFFFF"/>
		<stop  offset="0.3567" style="stop-color:#F9F8FA"/>
		<stop  offset="1" style="stop-color:#F1F0F5"/>
	</linearGradient>
	<path class="st15" d="M61,60.4c0,0,0.1,1.2-0.2,2.3c-0.7,3-2.3,4.2-3.6,5.1c-2.5,1.8-6.1,3.5-6.1,3.5c5.2-0.8,8.7-3.5,10.2-6.5
		C62.8,61.7,61,60.4,61,60.4z"/>
	<linearGradient id="SVGID_15_" gradientUnits="userSpaceOnUse" x1="37.7272" y1="70.716" x2="58.4529" y2="58.9275">
		<stop  offset="0" style="stop-color:#FFFFFF"/>
		<stop  offset="0.3567" style="stop-color:#F9F8FA"/>
		<stop  offset="1" style="stop-color:#F1F0F5"/>
	</linearGradient>
	<path class="st16" d="M41.5,64.9c-1-1.5-1.2-3.8-1.2-3.8s-0.8,0.8,0.2,3.3c0.6,1.5,1.7,2.5,2.8,3.2c4.8,3.5,7.9,3.7,7.9,3.7
		C47.4,69.5,42.8,66.9,41.5,64.9z"/>
	<linearGradient id="SVGID_16_" gradientUnits="userSpaceOnUse" x1="49.8157" y1="69.535" x2="51.9093" y2="150.8">
		<stop  offset="0" style="stop-color:#15B287"/>
		<stop  offset="5.747032e-02" style="stop-color:#14B085"/>
		<stop  offset="1" style="stop-color:#00946A"/>
	</linearGradient>
	<path class="st17" d="M82.7,84.1c0.3-4.9,0.4-8.7,0.4-8.7c-2.4-1.7-18.9-8.5-18.9-8.5S63.5,86,51.3,91c0,0.1,0,0.3,0.1,0.4
		c-10-6.8-14.3-23.9-14.3-23.9c-20.1,8.3-20.3,9.1-20.3,9.1c0.2,0.4,0.8,4.4,1.5,9.3c8.3,7.5,19.3,12.1,31.4,12.1
		C62.6,97.8,74.3,92.6,82.7,84.1z"/>
	<linearGradient id="SVGID_17_" gradientUnits="userSpaceOnUse" x1="78.9878" y1="87.7458" x2="69.8526" y2="58.342">
		<stop  offset="0" style="stop-color:#2BBD96"/>
		<stop  offset="1" style="stop-color:#15B287"/>
	</linearGradient>
	<path class="st18" d="M64.5,66.9c6.1,6.6,14.1,7.8,18.7,8.5C77.5,71.5,64.5,66.9,64.5,66.9z"/>
	<linearGradient id="SVGID_18_" gradientUnits="userSpaceOnUse" x1="16.7862" y1="71.6844" x2="36.9329" y2="71.6844">
		<stop  offset="0" style="stop-color:#2BBD96"/>
		<stop  offset="1" style="stop-color:#15B287"/>
	</linearGradient>
	<path class="st19" d="M36.9,66.9c0,0-15.8,6.4-20.1,9.6C25.9,76.9,36.9,66.9,36.9,66.9z"/>
	<linearGradient id="SVGID_19_" gradientUnits="userSpaceOnUse" x1="50.6011" y1="65.2269" x2="51.981" y2="96.7717">
		<stop  offset="0" style="stop-color:#2BBD96"/>
		<stop  offset="1" style="stop-color:#15B287"/>
	</linearGradient>
	<path class="st20" d="M60.3,85.3C58.1,88.2,54,91,50.9,91c-3.8-0.2-4.3-1.8-7.3-4.7c-5.6-0.2-9.1,0.1-14.4,3.1
		c-1.1,0.6-1.7,1.6-1.9,2.7c6.6,3.6,14.3,5.7,22.4,5.7c9.8,0,18.9-3,26.4-8.2c-0.2-0.3-0.4-0.6-0.6-0.8C72.4,85.8,67.3,85,60.3,85.3
		z"/>
	<linearGradient id="SVGID_20_" gradientUnits="userSpaceOnUse" x1="81.9107" y1="75.0709" x2="83.905" y2="93.8866">
		<stop  offset="0" style="stop-color:#15B287"/>
		<stop  offset="0.1673" style="stop-color:#10AA80"/>
		<stop  offset="0.6404" style="stop-color:#049A70"/>
		<stop  offset="1" style="stop-color:#00946A"/>
	</linearGradient>
	<path class="st21" d="M86.6,79.7c-1-1.8-2.1-2.3-3.4-3.4c-2.5,3.4-3.7,8.7-4.1,11.1C81.8,85.2,84.4,82.6,86.6,79.7z"/>
	<linearGradient id="SVGID_21_" gradientUnits="userSpaceOnUse" x1="16.4159" y1="75.6077" x2="18.6045" y2="96.2569">
		<stop  offset="0" style="stop-color:#15B287"/>
		<stop  offset="0.1673" style="stop-color:#10AA80"/>
		<stop  offset="0.6404" style="stop-color:#049A70"/>
		<stop  offset="1" style="stop-color:#00946A"/>
	</linearGradient>
	<path class="st22" d="M16.9,76.4c-1.3,1.3-2.5,2.6-3.4,4.1c2.3,2.8,4.9,5.4,7.8,7.6c-0.1-0.7-0.3-1.3-0.4-1.7
		C19.9,82.3,18.2,78.3,16.9,76.4z"/>
	<linearGradient id="SVGID_22_" gradientUnits="userSpaceOnUse" x1="84.2492" y1="73.7807" x2="85.0016" y2="141.6875">
		<stop  offset="0" style="stop-color:#15B287"/>
		<stop  offset="5.747032e-02" style="stop-color:#14B085"/>
		<stop  offset="1" style="stop-color:#00946A"/>
	</linearGradient>
	<path class="st23" d="M86.8,79.4c-1-1.6-2.2-2.9-3.6-4c-1.3,2.7-1.6,5.9-1.1,9.4C83.8,83.1,85.4,81.3,86.8,79.4z"/>
	<linearGradient id="SVGID_23_" gradientUnits="userSpaceOnUse" x1="16.2744" y1="74.405" x2="17.0356" y2="143.1091">
		<stop  offset="0" style="stop-color:#15B287"/>
		<stop  offset="5.747032e-02" style="stop-color:#14B085"/>
		<stop  offset="1" style="stop-color:#00946A"/>
	</linearGradient>
	<path class="st24" d="M16.8,76.4c-0.8,0.5-2.3,1.8-3.6,3.8c1.9,2.4,4,4.6,6.4,6.6c0-0.8,0-1.5-0.1-2.2C19,80.4,17.8,77.7,16.8,76.4
		z"/>
	<linearGradient id="SVGID_24_" gradientUnits="userSpaceOnUse" x1="50.7088" y1="59.394" x2="50.1267" y2="99.1705">
		<stop  offset="0" style="stop-color:#15B287"/>
		<stop  offset="0.1673" style="stop-color:#10AA80"/>
		<stop  offset="0.6404" style="stop-color:#049A70"/>
		<stop  offset="1" style="stop-color:#00946A"/>
	</linearGradient>
	<path class="st25" d="M64.2,64.8c0.1,2.7-0.5,6.9-3.6,13.7c-2.6,5.7-9,8.4-9,8.4s-5-1.7-9.7-8.8c-4.9-7.5-4.9-13.2-4.9-13.2
		c-0.9,0.9-2.1,2.4-2.6,3.1c-0.9,1.2-1.1,8.7,8.8,19.5c2.2,2.4,8.2,5.5,8.2,5.5s8.3-3.7,11.8-9.6c4.7-7.9,3.8-15.2,3.5-15.5
		C65.8,66.6,64.2,64.8,64.2,64.8z"/>
	<g>
		<path class="st26" d="M31.7,38.8c-1.9,0.3-1.5,1.6-0.6,3.9c0.8,6,2.4,7.2,3,6.8C35.3,48.9,34,38.4,31.7,38.8z"/>
		<linearGradient id="SVGID_25_" gradientUnits="userSpaceOnUse" x1="31.0204" y1="39.8546" x2="34.4046" y2="48.0645">
			<stop  offset="0" style="stop-color:#DBA779"/>
			<stop  offset="0.4797" style="stop-color:#E4B586"/>
			<stop  offset="1" style="stop-color:#F0C999"/>
		</linearGradient>
		<path class="st27" d="M32.7,44.1c0.8-5-2.2-5.5-1.6-2c0,0,0.5-1.6,0.8-1.1c0.5,0.6-0.5,0.9-0.1,3.5c0.2,1.4,1.4,2.8,1.4,2.8
			S32.4,46.3,32.7,44.1z"/>
	</g>
	<g>
		<path class="st26" d="M67.4,38.8c-2.3-0.3-3,10.2-1.7,10.8c0.7,0.3,2.2-0.9,2.6-7C69,40.4,69.4,39.1,67.4,38.8z"/>
		<linearGradient id="SVGID_26_" gradientUnits="userSpaceOnUse" x1="65.7653" y1="40.2767" x2="68.7256" y2="47.4582">
			<stop  offset="0" style="stop-color:#DBA779"/>
			<stop  offset="0.4797" style="stop-color:#E4B586"/>
			<stop  offset="1" style="stop-color:#F0C999"/>
		</linearGradient>
		<path class="st28" d="M66.7,44.1c0.5,2.1-0.3,3.3-0.3,3.3s1.1-1.5,1.3-2.9c0.3-2.6-0.7-2.9-0.3-3.5c0.3-0.5,0.9,1,0.9,1
			C68.6,38.6,65.6,39.2,66.7,44.1z"/>
	</g>
	<path class="st29" d="M60.3,22.9c-2.5-2.9-5.8-5.6-12.6-5.4c0,0-8.8,0.3-11,5.1c-2.4,5.2-3.3,11.5-3.1,18.1
		c0.2,8.1,0.6,11.9,1.3,13.6c0.3,0.8,0.9,1.9,2.4,3.1c2.5,2,5.2,5.9,7.2,8.2c0.7,0.8,10.2,0.4,11.4-0.3c2.1-1.1,4.4-4.9,7.2-7.7
		c1.2-1.2,2-3.2,2-4.2c0-1.1,0.7-7.1,0.6-8c-0.2-4.6,0-3.4,0.1-7.3C66.5,24.1,61.5,24.3,60.3,22.9z"/>
	<linearGradient id="SVGID_27_" gradientUnits="userSpaceOnUse" x1="58.205" y1="44.2841" x2="57.6959" y2="38.3025">
		<stop  offset="0" style="stop-color:#F7D9AB"/>
		<stop  offset="0.517" style="stop-color:#F6D7A8"/>
		<stop  offset="0.8546" style="stop-color:#F3CFA0"/>
		<stop  offset="1" style="stop-color:#F0C999"/>
	</linearGradient>
	<path class="st30" d="M52.8,36.4c-0.2,1.4-1.1,4.7-0.3,5.3c5.8,4.8,10.9,0.2,10.9,0.2C64.8,29.9,52.8,36.4,52.8,36.4z"/>
	<linearGradient id="SVGID_28_" gradientUnits="userSpaceOnUse" x1="52.6865" y1="35.9131" x2="62.9454" y2="35.9131">
		<stop  offset="0" style="stop-color:#767676"/>
		<stop  offset="0.3376" style="stop-color:#727272"/>
		<stop  offset="0.6946" style="stop-color:#656565"/>
		<stop  offset="1" style="stop-color:#545454"/>
	</linearGradient>
	<path class="st31" d="M60.9,35.1c-3.3-0.5-5.8-0.5-7.9,0.4c-0.8,0.3-0.2,1.6,0.7,1.6c1.7,0,4.2-0.6,5.8-0.6c2.4,0,3.4,0.4,3.4,0.4
		S62.5,35.4,60.9,35.1z"/>
	<linearGradient id="SVGID_29_" gradientUnits="userSpaceOnUse" x1="42.0141" y1="44.3437" x2="41.5255" y2="38.6034">
		<stop  offset="0" style="stop-color:#F7D9AB"/>
		<stop  offset="0.517" style="stop-color:#F6D7A8"/>
		<stop  offset="0.8546" style="stop-color:#F3CFA0"/>
		<stop  offset="1" style="stop-color:#F0C999"/>
	</linearGradient>
	<path class="st32" d="M36.1,42.1c0,0,5.2,4.5,10.9-0.3c0.8-0.6,0.1-4-0.1-5.4C46.9,36.5,35.6,31.3,36.1,42.1z"/>
	<linearGradient id="SVGID_30_" gradientUnits="userSpaceOnUse" x1="49.6812" y1="56.5089" x2="51.0224" y2="65.4845">
		<stop  offset="0" style="stop-color:#FFDEB3"/>
		<stop  offset="1" style="stop-color:#F7D9AB"/>
	</linearGradient>
	<path class="st33" d="M50.7,60.3c-1.5,0-5.1,1-5,1.5c0.3,1.6,3.7,1.9,5.2,1.9c1.5,0,4.4-0.4,4.5-1.8C55.3,61.4,52.1,60.3,50.7,60.3
		z"/>
	<linearGradient id="SVGID_31_" gradientUnits="userSpaceOnUse" x1="59.8874" y1="49.4951" x2="41.808" y2="24.797">
		<stop  offset="0" style="stop-color:#F7D9AB"/>
		<stop  offset="0.4753" style="stop-color:#F5D5A6"/>
		<stop  offset="1" style="stop-color:#F0C999"/>
	</linearGradient>
	<path class="st34" d="M60.8,22.2c-0.4-0.1-0.8-0.2-1.2-0.3c-3.2-0.7-8.3-3.1-12.9-3.1c-2.8,0-5.5,0.6-7.4,1.1
		c-0.9,0.2-1.7,0.5-2.2,0.9c-1.7,1.2-2.8,5.7-3.3,11.1c-0.2,1.7,0.3,11.6,0.2,12.8c0.4-1.4,1.1-3.4,2.3-4.8c0.9-6.9-0.5-11.9,2.4-14
		c2-1.4,7.4,1,11.3,1.1c7.8,0.3,9.4-1.9,10.2-1c3.3,3.8,1.3,8.2,5.6,17c0,0-0.2-10.8-0.5-13.8C64.9,25.4,63.9,23.1,60.8,22.2z"/>
	<linearGradient id="SVGID_32_" gradientUnits="userSpaceOnUse" x1="48.9695" y1="15.2091" x2="49.6609" y2="36.6443">
		<stop  offset="0" style="stop-color:#909090"/>
		<stop  offset="0.231" style="stop-color:#858585"/>
		<stop  offset="0.6262" style="stop-color:#787878"/>
		<stop  offset="1" style="stop-color:#747474"/>
	</linearGradient>
	<path class="st35" d="M61.4,18.7c0,0-5.2-4.6-13.8-4.1c-6.9,0.5-10,2.8-11.7,5.7c-0.5,0.8-6.5,3-4.1,11.7c0.1,2.1-0.5,3.1,0.1,6.8
		c0,0,0.7,0.2,1.2,1.6c0.3,1,0.6,3.3,0.8,4.3c0.3-2.9,0.9-3.6,1.1-5.1c0.1-1.9,0.2-2.9,0.6-6.9c0.4-4.3,0.6-7.1,2-8.9
		c0,0,3.3-3,9.7,0c6.6,1.3,10.8,0.3,13-0.5c0,0,3,0.4,3.8,9c0.3,3.2,0.3,5.1,0.7,7.4c0.3,1.6,0.9,3.6,1.1,5.1c0,0,0-5.7,1.6-5.9
		c0.2-1.8,0.2-2.5-0.3-7.7C68.7,27.2,66.4,20.1,61.4,18.7z"/>
	<linearGradient id="SVGID_33_" gradientUnits="userSpaceOnUse" x1="63.3436" y1="42.8428" x2="55.135" y2="47.9503">
		<stop  offset="0" style="stop-color:#FFDEB3"/>
		<stop  offset="0.2826" style="stop-color:#FBDCAF"/>
		<stop  offset="1" style="stop-color:#F7D9AB"/>
	</linearGradient>
	<path class="st36" d="M63.8,42.7c-0.5-0.3-0.9,0.1-1.9,0.5c-1,0.3-3.8,0.9-2.5,1.6c1.4,0.8,3.5-0.3,3.7-0.5
		C63.4,44.1,64.4,43.1,63.8,42.7z"/>
	<linearGradient id="SVGID_34_" gradientUnits="userSpaceOnUse" x1="44.0153" y1="46.9306" x2="35.9891" y2="43.2823">
		<stop  offset="0" style="stop-color:#F7D9AB"/>
		<stop  offset="0.7174" style="stop-color:#FBDCAF"/>
		<stop  offset="1" style="stop-color:#FFDEB3"/>
	</linearGradient>
	<path class="st37" d="M37.4,43.3c-1.1-0.3-1.5-0.7-1.9-0.4c-0.6,0.4,0.5,1.3,0.8,1.5c0.3,0.2,2.3,1.2,3.7,0.3
		C41.2,44,38.4,43.6,37.4,43.3z"/>
	<linearGradient id="SVGID_35_" gradientUnits="userSpaceOnUse" x1="34.5347" y1="28.9627" x2="60.2962" y2="28.9627">
		<stop  offset="0" style="stop-color:#767676"/>
		<stop  offset="0.3376" style="stop-color:#727272"/>
		<stop  offset="0.6946" style="stop-color:#656565"/>
		<stop  offset="1" style="stop-color:#545454"/>
	</linearGradient>
	<path class="st38" d="M49,23.2c-4.8-1.2-7.3-2.7-10-1.8c-1.9,0.6-3.6,2-4.1,4.7c-0.9,4.5,0.2,10.7,0.2,10.7s0.5-5.3,0.8-8.4
		c0.3-3.3,1.4-3.9,3.2-4.4c2.1-0.5,5.6,0.2,8.4,0.8c10.4,2.1,12.8-2,12.8-2C56.1,24.2,51.6,23.9,49,23.2z"/>
	<g>
		<linearGradient id="SVGID_36_" gradientUnits="userSpaceOnUse" x1="49.8963" y1="36.5481" x2="50.2347" y2="50.7059">
			<stop  offset="0" style="stop-color:#FFDEB3"/>
			<stop  offset="0.1957" style="stop-color:#FDDDB1"/>
			<stop  offset="1" style="stop-color:#F7D9AB"/>
		</linearGradient>
		<path class="st39" d="M51.4,43.7c0.2-3.1-0.9-3.6-1.7-3.5c-0.8,0-1.2,1.1-1.1,3.5c0.2,2.4-0.3,3.3-0.2,4.4c0,0.5,0.3,0.8,1.6,0.8
			c1.4,0,1.9-0.3,2-0.8C52.1,46.8,51.3,46,51.4,43.7z"/>
		<linearGradient id="SVGID_37_" gradientUnits="userSpaceOnUse" x1="50.1634" y1="52.742" x2="50.1312" y2="49.1704">
			<stop  offset="0" style="stop-color:#F7D9AB"/>
			<stop  offset="0.517" style="stop-color:#F6D7A8"/>
			<stop  offset="0.8546" style="stop-color:#F3CFA0"/>
			<stop  offset="1" style="stop-color:#F0C999"/>
		</linearGradient>
		<path class="st40" d="M46.2,49.3c0,0,3.5,2.6,4.3,2.4c0.8-0.2,3.6-2.4,3.6-2.4s-3.2,0.4-3.9,0.4C49.4,49.7,46.2,49.3,46.2,49.3z"
			/>
		<path class="st41" d="M51.6,49.8c1.9-0.5,2.6-0.2,2.6-0.2C53.1,48.6,51.6,49.8,51.6,49.8z"/>
		<path class="st41" d="M46.2,49.4c0,0,1-0.2,2.5,0.3C48.7,49.8,47.2,48.7,46.2,49.4z"/>
		<linearGradient id="SVGID_38_" gradientUnits="userSpaceOnUse" x1="49.7216" y1="38.4704" x2="50.1776" y2="50.3957">
			<stop  offset="0" style="stop-color:#F7D9AB"/>
			<stop  offset="0.5273" style="stop-color:#F6D7A8"/>
			<stop  offset="0.8717" style="stop-color:#F3CFA0"/>
			<stop  offset="1" style="stop-color:#F1CA9A"/>
		</linearGradient>
		<path class="st42" d="M53,46.6c0,0.8,0.2,1.3-0.1,1.7c-0.5,1-1.9,1.4-2.8,1.3c-0.7,0.1-2.3-0.3-3-1.3c-0.3-0.4-0.1-0.8-0.2-1.6
			c0,0-1.9,2.3-0.8,2.7c0,0,0.3-0.2,1.2-0.2c0.9,0.1,0.7,1.1,2.8,1.1c1.8,0,1.2-0.9,2.4-1c1.2-0.2,1.3,0.1,1.6,0.2
			C54.8,49.6,54.3,47.7,53,46.6z"/>
		<linearGradient id="SVGID_39_" gradientUnits="userSpaceOnUse" x1="49.8203" y1="49.1959" x2="50.2992" y2="45.6644">
			<stop  offset="0" style="stop-color:#FFDEB3"/>
			<stop  offset="0.2826" style="stop-color:#FBDCAF"/>
			<stop  offset="1" style="stop-color:#F7D9AB"/>
		</linearGradient>
		<path class="st43" d="M48.2,47.9c-0.1,0.5,0.6,1.1,1.9,1.1c1.4,0,1.7-0.5,1.6-1C51,45.2,48.5,46.1,48.2,47.9z"/>
	</g>
	<linearGradient id="SVGID_40_" gradientUnits="userSpaceOnUse" x1="59.6185" y1="29.2023" x2="64.603" y2="29.2023">
		<stop  offset="0" style="stop-color:#545454"/>
		<stop  offset="0.3054" style="stop-color:#656565"/>
		<stop  offset="0.6624" style="stop-color:#727272"/>
		<stop  offset="1" style="stop-color:#767676"/>
	</linearGradient>
	<path class="st44" d="M60.3,22.9c0,0-0.3,0.3-0.7,0.7c3.3,1.4,3.6,4.5,4.6,12c0,0,0.8-4.8,0.1-7.4C63.6,25.9,62.3,23.6,60.3,22.9z"
		/>
	<linearGradient id="SVGID_41_" gradientUnits="userSpaceOnUse" x1="49.8642" y1="13.3549" x2="50.0284" y2="23.3784">
		<stop  offset="0" style="stop-color:#939393"/>
		<stop  offset="0.8836" style="stop-color:#A6A6A6"/>
		<stop  offset="1" style="stop-color:#A9A9A9"/>
	</linearGradient>
	<path class="st45" d="M38.5,17.4c3.1-0.8,9.6,3.1,13.1,3.7c6.7,1.1,9,0.4,9,0.4c-1-1.6-3-4.4-9.1-5.3c1.7,0,7.9,1.9,10,2.5
		C51.2,10.7,39.5,15.9,38.5,17.4z"/>
	<g>
		<linearGradient id="SVGID_42_" gradientUnits="userSpaceOnUse" x1="53.4932" y1="39.2426" x2="62.6823" y2="41.8297">
			<stop  offset="0" style="stop-color:#DBA779"/>
			<stop  offset="0.4797" style="stop-color:#E4B586"/>
			<stop  offset="1" style="stop-color:#F0C999"/>
		</linearGradient>
		<path class="st46" d="M61.1,38.6c-0.4-0.3-1.9-0.7-3-0.6c-3.2,0.1-4.4,0.6-4.5,1.5c-0.1,0.3-0.5,1.9-0.3,2.2
			c0.5,0.9,3.7,1.1,5.5,1c1.9-0.1,3.7-1.2,3.8-1.7C62.6,40.6,61.9,39.3,61.1,38.6z"/>
		<linearGradient id="SVGID_43_" gradientUnits="userSpaceOnUse" x1="61.3606" y1="40.8468" x2="52.6198" y2="40.0809">
			<stop  offset="0" style="stop-color:#FFFFFF"/>
			<stop  offset="0.4667" style="stop-color:#FDFCFC"/>
			<stop  offset="0.7734" style="stop-color:#F6F4F4"/>
			<stop  offset="1" style="stop-color:#ECE7E7"/>
		</linearGradient>
		<path class="st47" d="M56.2,38.8c-1.9,0.1-2.6,2.8-2.6,2.8c0,0,0.3,0.3,0.9,0.4c2.2,0.5,3.2,0.5,5.3,0.1c1.2-0.3,1.8-1.1,1.8-1.1
			C60.1,39.1,60.8,38.5,56.2,38.8z"/>
		<path class="st48" d="M59.4,39c-1.5,0.1-4.9,0.4-4.9,0.4s-0.6,1.6-0.9,2.2c0,0,1.3-0.7,3.2-1c0.2,0,3,0,4.5,0.7
			c0.2-0.2,0.2-0.2,0.3-0.4C61.6,40.9,60.9,38.8,59.4,39z"/>
		<linearGradient id="SVGID_44_" gradientUnits="userSpaceOnUse" x1="60.4922" y1="42.5815" x2="54.0927" y2="39.1739">
			<stop  offset="0" style="stop-color:#DDDDDA"/>
			<stop  offset="1" style="stop-color:#A4A59D"/>
		</linearGradient>
		<path class="st49" d="M57.6,39.1c-1.3-0.1-2.5,0.6-2.4,1.9c0,0.5,0.3,1.1,0.4,1.1c0.2,0.1,1.4,0.2,2,0.3c0.6,0,1.6-0.2,1.8-0.3
			c0.3-0.4,0.4-0.7,0.4-0.9C60,39.9,58.8,39.2,57.6,39.1z"/>
		<linearGradient id="SVGID_45_" gradientUnits="userSpaceOnUse" x1="59.3513" y1="41.5794" x2="54.7332" y2="38.9173">
			<stop  offset="0" style="stop-color:#C5C6C0"/>
			<stop  offset="1" style="stop-color:#94958D"/>
		</linearGradient>
		<path class="st50" d="M58.2,39.4c-1.6,0-3.2,0.1-3.1,1.6c0,0,2.1-0.8,4.7-0.1C59.8,40.8,59.8,39.4,58.2,39.4z"/>
		<radialGradient id="SVGID_46_" cx="58.8912" cy="41.829" r="4.0747" gradientUnits="userSpaceOnUse">
			<stop  offset="0" style="stop-color:#2A3A3B"/>
			<stop  offset="1" style="stop-color:#1C2727"/>
		</radialGradient>
		<path class="st51" d="M57.7,39.6c-0.8,0-1.4,0.6-1.5,1.3c0,0.8,0.6,1.4,1.4,1.4c0.8,0,1.4-0.6,1.5-1.3
			C59.1,40.3,58.5,39.6,57.7,39.6z"/>
		<path class="st52" d="M58.5,40.7c-0.3,0-0.6,0.3-0.5,0.7c0,0.3,0.3,0.6,0.7,0.5c0.3,0,0.6-0.3,0.5-0.7
			C59.2,40.9,58.9,40.7,58.5,40.7z"/>
		<path class="st52" d="M57.3,40.2c-0.3,0-0.4,0.3-0.4,0.5c0,0.3,0.3,0.4,0.5,0.4c0.3,0,0.4-0.3,0.4-0.5
			C57.7,40.3,57.5,40.2,57.3,40.2z"/>
		<path class="st53" d="M60.3,38.9c-1.5-0.5-4.3-0.7-5.6,0.3c-1,0.8-1.1,2.4-1.1,2.4s0.7-1.2,1.6-1.4c0.7-0.2,2.5-0.5,4.8-0.2
			c1.1,0.2,1.6,0.9,1.6,0.9S61.5,39.3,60.3,38.9z"/>
		<linearGradient id="SVGID_47_" gradientUnits="userSpaceOnUse" x1="37.7" y1="39.0839" x2="46.825" y2="41.6529">
			<stop  offset="0" style="stop-color:#F0C999"/>
			<stop  offset="0.5203" style="stop-color:#E4B586"/>
			<stop  offset="1" style="stop-color:#DBA779"/>
		</linearGradient>
		<path class="st54" d="M41.9,37.9c-0.8,0-2.7,0.2-3.3,0.7c-0.7,0.6-1.4,2.1-1.4,2.3c0,0.3,1.3,1.6,3.7,1.8c1.8,0.1,4.7-0.2,5.4-1
			c0.3-0.4-0.1-1.8-0.2-2.4C46,38.4,44.5,38,41.9,37.9z"/>
		<linearGradient id="SVGID_48_" gradientUnits="userSpaceOnUse" x1="46.0372" y1="41.3574" x2="39.5515" y2="39.7919">
			<stop  offset="0" style="stop-color:#FFFFFF"/>
			<stop  offset="0.4667" style="stop-color:#FDFCFC"/>
			<stop  offset="0.7734" style="stop-color:#F6F4F4"/>
			<stop  offset="1" style="stop-color:#ECE7E7"/>
		</linearGradient>
		<path class="st55" d="M43.7,38.7c-4.6-0.4-4,0.3-5.6,2.1c0,0,0.9,0.9,1.8,1.1c2.8,0.7,4.7,0.1,5.3,0c0.6-0.1,0.8-0.3,0.9-0.4
			C46,41.6,45.6,38.9,43.7,38.7z"/>
		<path class="st48" d="M40.4,38.9c-1.5-0.2-2.3,1.9-2.3,1.9c0.1,0.1,0.3,0.3,0.5,0.4c0.7-0.4,2-0.9,3.2-0.9c2.8,0,4.2,1.2,4.2,1.2
			c-0.2-0.6-0.9-2-0.9-2S41.8,39.1,40.4,38.9z"/>
		<linearGradient id="SVGID_49_" gradientUnits="userSpaceOnUse" x1="44.6677" y1="40.7035" x2="38.4068" y2="40.9539">
			<stop  offset="0" style="stop-color:#DDDDDA"/>
			<stop  offset="1" style="stop-color:#A4A59D"/>
		</linearGradient>
		<path class="st56" d="M42.3,39.2c-1.2,0.1-2.4,0.7-2.2,2c0,0.3,0.1,0.6,0.4,1c0.2,0.1,1.1,0.3,1.8,0.3c0.6,0,1.8-0.1,2-0.2
			c0.1-0.1,0.3-0.6,0.4-1.1C44.7,39.8,43.6,39.1,42.3,39.2z"/>
		<linearGradient id="SVGID_50_" gradientUnits="userSpaceOnUse" x1="44.7747" y1="40.5314" x2="40.7398" y2="39.7904">
			<stop  offset="0" style="stop-color:#C5C6C0"/>
			<stop  offset="1" style="stop-color:#94958D"/>
		</linearGradient>
		<path class="st57" d="M41.9,39.1c-1.6,0-1.7,1.6-1.7,1.6c2-0.4,4.5,0.2,4.5,0.2C44.7,39.6,43.4,39.1,41.9,39.1z"/>
		<radialGradient id="SVGID_51_" cx="43.5623" cy="41.76" r="3.9721" gradientUnits="userSpaceOnUse">
			<stop  offset="0" style="stop-color:#2A3A3B"/>
			<stop  offset="1" style="stop-color:#1C2727"/>
		</radialGradient>
		<path class="st58" d="M42.3,39.6c-0.8,0-1.4,0.6-1.4,1.4c0,0.7,0.6,1.3,1.4,1.3c0.8,0,1.4-0.6,1.4-1.4
			C43.7,40.2,43.1,39.6,42.3,39.6z"/>
		<path class="st52" d="M43,40.8c-0.3,0.1-0.4,0.5-0.3,0.8c0.1,0.3,0.5,0.4,0.8,0.2c0.3-0.1,0.4-0.5,0.3-0.8
			C43.6,40.8,43.3,40.7,43,40.8z"/>
		<path class="st52" d="M41.8,40.2c-0.2,0.1-0.3,0.4-0.2,0.6c0.1,0.2,0.4,0.3,0.6,0.2c0.2-0.1,0.3-0.4,0.2-0.6
			C42.3,40.2,42,40.1,41.8,40.2z"/>
		<path class="st53" d="M44.8,39.1c-1.3-1-4-0.7-5.4-0.2c-0.9,0.3-1.3,1.9-1.3,1.9s0.6-0.7,1.5-0.9c2.7-0.4,3.9-0.2,4.7,0.1
			c0.9,0.3,1.7,1.6,1.7,1.6S45.8,39.9,44.8,39.1z"/>
	</g>
	<linearGradient id="SVGID_52_" gradientUnits="userSpaceOnUse" x1="36.9912" y1="35.9755" x2="47.025" y2="35.9755">
		<stop  offset="0" style="stop-color:#545454"/>
		<stop  offset="0.3054" style="stop-color:#656565"/>
		<stop  offset="0.6624" style="stop-color:#727272"/>
		<stop  offset="1" style="stop-color:#767676"/>
	</linearGradient>
	<path class="st59" d="M46.7,35.6c-2-0.9-4.6-1-7.8-0.4c-1.5,0.3-1.9,1.9-1.9,1.9s1-0.5,3.3-0.5c2,0,4,0.4,5.7,0.5
		C46.8,37.1,47.4,36,46.7,35.6z"/>
	<linearGradient id="SVGID_53_" gradientUnits="userSpaceOnUse" x1="75.7654" y1="63.3524" x2="41.3787" y2="65.0141">
		<stop  offset="0" style="stop-color:#DBA779"/>
		<stop  offset="0.4797" style="stop-color:#E4B586"/>
		<stop  offset="1" style="stop-color:#F0C999"/>
	</linearGradient>
	<path class="st60" d="M45.8,65.4c-1.2-0.3-3.1-2.1-3.1-2.1s1.9,2.6,2.4,2.8c0.4,0.2,9.9,0.3,10.9-0.4c1-0.7,1.9-1.9,1.9-1.9
		s-1.9,1.4-2.6,1.5C54.4,65.5,47,65.7,45.8,65.4z"/>
	<linearGradient id="SVGID_54_" gradientUnits="userSpaceOnUse" x1="42.111" y1="65.2555" x2="33.3968" y2="48.5764">
		<stop  offset="0" style="stop-color:#F7D9AB"/>
		<stop  offset="1" style="stop-color:#F0C999"/>
	</linearGradient>
	<path class="st61" d="M33.8,45.7c0.1,3.1,0.3,8,1,9.4c0.3,0.6,3.3,3.7,4,4.3c0.6,0.5,3.7,3.7,3.7,3.7c-0.5-0.7-4.5-6.2-5.2-7.3
		C34.6,51.6,33.8,45.7,33.8,45.7z"/>
	<linearGradient id="SVGID_55_" gradientUnits="userSpaceOnUse" x1="58.3284" y1="65.2666" x2="66.3839" y2="48.6976">
		<stop  offset="0" style="stop-color:#FFDEB3"/>
		<stop  offset="1" style="stop-color:#F7D9AB"/>
	</linearGradient>
	<path class="st62" d="M58.3,63.3c0.3-0.6,6.6-7,7-8.2c0.3-1.2,0.5-9.2,0.5-9.2c-0.3,2.8-1.6,7.2-2.5,8.8
		C62.7,55.7,58.3,63.3,58.3,63.3z"/>
	<linearGradient id="SVGID_56_" gradientUnits="userSpaceOnUse" x1="49.5182" y1="44.2275" x2="50.0211" y2="37.02">
		<stop  offset="0" style="stop-color:#555557"/>
		<stop  offset="1" style="stop-color:#2B2A2D"/>
	</linearGradient>
	<path class="st63" d="M59.5,37.1c-2.7,0-5.4,0.4-6.8,0.7c-0.3,0.1-0.8,0.6-1,0.6c-1.5-0.2-2.1-0.2-3.6,0c-0.2,0-0.7-0.6-1-0.6
		c-1.5-0.3-4.1-0.6-6.7-0.7c-3-0.1-5.6,0.7-5.7,0.7c-0.1,0,0.1,2.3,0.2,2.4c0.1,0.1,0.4,0.3,0.6,0.4c0.5,1.4,1,2.9,1.7,3.1
		c2.4,0.5,8.4,0.5,9.1,0.1c0.7-0.4,1.5-3.4,2-4.2c0.2-0.3,3-0.4,3.2,0c0.4,0.8,1.5,3.7,2.2,4.1c0.7,0.4,6.5,0.6,8.9,0.1
		c0.7-0.2,1.2-1.6,1.7-3.1c0.2-0.2,0.5-0.4,0.6-0.4c0.1-0.1,0.4-2.4,0.2-2.4C65.1,37.8,62.5,37,59.5,37.1z M45.7,43.4
		c-0.7,0.4-7.1,0.3-7.9,0c-0.6-0.2-1.9-4.3-0.8-4.6c3.9-1.4,10.2-0.3,10.2,0.4C47.2,40,46.4,43,45.7,43.4z M62.1,43.4
		c-0.8,0.3-7.1,0.3-7.8-0.1c-0.7-0.4-1.7-3.2-1.6-4.1c0-0.7,6.3-1.8,10.2-0.4C63.9,39.2,62.7,43.2,62.1,43.4z"/>
	<g>
		
			<linearGradient id="SVGID_57_" gradientUnits="userSpaceOnUse" x1="49.394" y1="57.6504" x2="41.9055" y2="55.4193" gradientTransform="matrix(1 1.200000e-03 -1.200000e-03 1 0.3278 -1.7785)">
			<stop  offset="0" style="stop-color:#F7D9AB"/>
			<stop  offset="0.517" style="stop-color:#F6D7A8"/>
			<stop  offset="0.8546" style="stop-color:#F3CFA0"/>
			<stop  offset="1" style="stop-color:#F0C999"/>
		</linearGradient>
		<path class="st64" d="M41.4,53.1c-0.3,1.3,2.4,1.2,4.6,2.2C44.3,54.6,41.6,52.7,41.4,53.1z"/>
		
			<linearGradient id="SVGID_58_" gradientUnits="userSpaceOnUse" x1="43.9582" y1="58.1736" x2="56.5566" y2="58.1736" gradientTransform="matrix(1 1.200000e-03 -1.200000e-03 1 0.3278 -1.7785)">
			<stop  offset="0" style="stop-color:#DBA779"/>
			<stop  offset="0.4797" style="stop-color:#E4B586"/>
			<stop  offset="1" style="stop-color:#F0C999"/>
		</linearGradient>
		<path class="st65" d="M44.2,54.7c1.5,2.1,3.9,3.6,6.6,3.5c1.3,0,3.9-0.9,6-3.5C56.8,54.7,49.7,56.1,44.2,54.7z"/>
		
			<linearGradient id="SVGID_59_" gradientUnits="userSpaceOnUse" x1="61.612" y1="57.2985" x2="55.8084" y2="55.5695" gradientTransform="matrix(1 1.200000e-03 -1.200000e-03 1 0.3278 -1.7785)">
			<stop  offset="0" style="stop-color:#F7D9AB"/>
			<stop  offset="0.517" style="stop-color:#F6D7A8"/>
			<stop  offset="0.8546" style="stop-color:#F3CFA0"/>
			<stop  offset="1" style="stop-color:#F0C999"/>
		</linearGradient>
		<path class="st66" d="M54.9,55.3c2.2-0.9,4.9-0.9,4.6-2.2C59.4,52.7,56.7,54.6,54.9,55.3z"/>
		<path class="st67" d="M58.4,53.5c-1.5,0.7-2.7,1.2-4.3,1.3c-0.5,0-6.7-0.1-7.1-0.1c-1-0.1-2.8-0.4-3.9-0.9
			c-0.6-0.3-1.2-0.7-1.3-0.6c-0.1,0.1,0.1,0.8,0.9,0.8c2,0.3,2.6,1.7,3.7,1.8c0.3,0,7.2,0,7.5,0c1.7,0,2.3-1.6,4.3-1.9
			c1,0,1-0.7,1-0.7C59.2,53.1,58.9,53.2,58.4,53.5z"/>
		<linearGradient id="SVGID_60_" gradientUnits="userSpaceOnUse" x1="42.8266" y1="54.4556" x2="57.7119" y2="54.4556">
			<stop  offset="0" style="stop-color:#DBA779"/>
			<stop  offset="0.4797" style="stop-color:#E4B586"/>
			<stop  offset="1" style="stop-color:#F0C999"/>
		</linearGradient>
		<path class="st68" d="M50.3,53.9c-2.6,0-5,0.7-7.5-0.3c0.1,0,2.1,1.6,7.7,1.7c4.2,0.1,6.6-1.1,7.2-1.6
			C55.7,54.7,53.2,53.9,50.3,53.9z"/>
		<linearGradient id="SVGID_61_" gradientUnits="userSpaceOnUse" x1="43.3359" y1="55.8391" x2="58.011" y2="55.8391">
			<stop  offset="0" style="stop-color:#DBA779"/>
			<stop  offset="0.4797" style="stop-color:#E4B586"/>
			<stop  offset="1" style="stop-color:#F0C999"/>
		</linearGradient>
		<path class="st69" d="M50.4,55.6c-5.5-0.1-6.3-1.4-7-1.6c1,0.9,1.7,1.5,2.2,2c1.3,1.1,3.5,1.8,5.1,1.7c2-0.1,3.7-1,4.3-1.4
			c0.8-0.5,2.3-1.8,3.1-2.4C57.2,53.9,55.6,55.7,50.4,55.6z"/>
	</g>
</g>
</svg>
