<?xml version="1.0" encoding="utf-8"?>
<!-- Generator: Adobe Illustrator 24.1.2, SVG Export Plug-In . SVG Version: 6.00 Build 0)  -->
<svg version="1.1" id="Calque_1" xmlns="http://www.w3.org/2000/svg" xmlns:xlink="http://www.w3.org/1999/xlink" x="0px" y="0px"
	 viewBox="0 0 35 35" style="enable-background:new 0 0 35 35;" xml:space="preserve">
<style type="text/css">
	.st0{fill:#1A56A7;}
	.st1{fill:none;stroke:#1A56A7;stroke-miterlimit:10;}
</style>
<g>
	<g>
		<path class="st0" d="M22.3,18.7h-0.6v-4.6h0.6c1.3,0,2.3,1,2.3,2.3C24.5,17.7,23.5,18.7,22.3,18.7z M22.5,15v2.9
			c0.7-0.1,1.2-0.7,1.2-1.4C23.7,15.7,23.2,15.1,22.5,15z"/>
	</g>
	<g>
		<path class="st0" d="M13.4,18.7h-0.6c-1.3,0-2.3-1-2.3-2.3c0-1.3,1-2.3,2.3-2.3h0.6V18.7z M12.5,15c-0.7,0.1-1.2,0.7-1.2,1.4
			c0,0.7,0.5,1.3,1.2,1.4V15z"/>
	</g>
	<g>
		<path class="st0" d="M23.5,14.8h-0.8v-0.4c0-2.9-2.3-5.2-5.2-5.2s-5.2,2.3-5.2,5.2v0.4h-0.8v-0.4c0-3.3,2.7-6,6-6s6,2.7,6,6V14.8z
			"/>
	</g>
	<g>
		<path class="st0" d="M25.5,26.6H9.5l-1.9-1.9v-2.2h19.9v2.2L25.5,26.6z M9.8,25.8h15.4l1.4-1.4v-1.1H8.4v1.1L9.8,25.8z"/>
	</g>
	<g>
		<polygon class="st0" points="26.6,23.3 8.4,23.3 8.4,10 13.5,10 13.5,10.9 9.2,10.9 9.2,22.5 25.8,22.5 25.8,10.9 21.5,10.9 
			21.5,10 26.6,10 		"/>
	</g>
	<g>
		<path class="st0" d="M19.6,25h-0.8v-0.8h0.8V25z M17.9,25h-0.8v-0.8h0.8V25z M16.3,25h-0.8v-0.8h0.8V25z"/>
	</g>
	<g>
		<polygon class="st0" points="23.7,20.8 19.6,20.8 19.6,20 22.9,20 22.9,18 23.7,18 		"/>
	</g>
	<g>
		<path class="st0" d="M18.7,21.6h-1.2c-0.7,0-1.2-0.6-1.2-1.2c0-0.7,0.6-1.2,1.2-1.2h1.2c0.7,0,1.2,0.6,1.2,1.2
			C20,21.1,19.4,21.6,18.7,21.6z M17.5,20c-0.2,0-0.4,0.2-0.4,0.4c0,0.2,0.2,0.4,0.4,0.4h1.2c0.2,0,0.4-0.2,0.4-0.4
			c0-0.2-0.2-0.4-0.4-0.4H17.5z"/>
	</g>
</g>
<circle class="st1" cx="17.5" cy="17.5" r="16"/>
</svg>
