<?xml version="1.0" encoding="utf-8"?>
<!-- Generator: Adobe Illustrator 22.1.0, SVG Export Plug-In . SVG Version: 6.00 Build 0)  -->
<svg version="1.1" id="Layer_1" xmlns="http://www.w3.org/2000/svg" xmlns:xlink="http://www.w3.org/1999/xlink" x="0px" y="0px"
	 viewBox="0 0 100 100" style="enable-background:new 0 0 100 100;" xml:space="preserve">
<style type="text/css">
	.st0{opacity:0.19;fill:#203C66;}
	.st1{fill:none;}
	.st2{clip-path:url(#SVGID_2_);}
	.st3{fill:url(#SVGID_3_);}
	.st4{fill:#FCBF94;}
	.st5{fill:#1A1A1A;}
	.st6{fill:#8BBFBC;}
	.st7{fill:#225253;}
	.st8{fill:#174142;}
	.st9{fill:#F2B48B;}
	.st10{fill:#FFD2B7;}
	.st11{fill:#FDA174;}
	.st12{fill:#F7BB91;}
	.st13{fill:#453630;}
	.st14{fill:#514038;}
	.st15{fill:#FFFFFF;}
	.st16{fill:#3A2921;}
	.st17{opacity:0.3;fill:#A9DCF5;}
	.st18{fill:#3B3F46;}
	.st19{fill:#E4E7ED;}
	.st20{fill:#325366;}
	.st21{fill:#3C3C3B;}
	.st22{fill:url(#SVGID_4_);}
	.st23{fill:#70A9AB;}
</style>
<ellipse transform="matrix(0.895 -0.4461 0.4461 0.895 -17.0548 27.5577)" class="st0" cx="50" cy="50" rx="47.8" ry="47.8"/>
<ellipse transform="matrix(0.895 -0.4461 0.4461 0.895 -17.0548 27.5577)" class="st1" cx="50" cy="50" rx="47.8" ry="47.8"/>
<g>
	<defs>
		<ellipse id="SVGID_1_" transform="matrix(0.2298 -0.9732 0.9732 0.2298 -10.1501 87.1748)" cx="50" cy="50" rx="47.8" ry="47.8"/>
	</defs>
	<clipPath id="SVGID_2_">
		<use xlink:href="#SVGID_1_"  style="overflow:visible;"/>
	</clipPath>
	<g class="st2">
		<linearGradient id="SVGID_3_" gradientUnits="userSpaceOnUse" x1="55.4607" y1="170.284" x2="55.4607" y2="47.0939">
			<stop  offset="0.8595" style="stop-color:#FCBF94"/>
			<stop  offset="0.9433" style="stop-color:#FEAB80"/>
			<stop  offset="1" style="stop-color:#FFA478"/>
		</linearGradient>
		<path class="st3" d="M74.8,163.4c0.1,2.1,0.1,4.4,0.1,6.9l-49.3-1.7c0-1.6,0-3,0.1-4.4c0-1,0.1-2,0.1-2.9c0.1-2,0.2-3.8,0.3-5.4
			c0.5-5.8,1.1-9,1.1-9.3c0-0.1,0-0.2,0-0.3c2.1-18.9,1.4-49.3,1.4-49.3l1.8-30.5c2.8-0.8,7.3-2,9.8-2.4c0.4,0,0.7-0.1,1-0.1
			c1.9-4.9,0.3-15.3,0.3-15.3s3.5-0.8,8.5-1.7c5,0.9,8.6,1.7,8.6,1.7s-1.5,10.5,0.3,15.3c0.3,0,0.6,0,1,0.1c3.4,0.5,10.5,2.6,12.1,3
			c9.9,2.7,12.2,13.2,13,24c0,0.4,0.1,1.4,0.2,2.8L72.7,101c-0.5-2.3-0.9-4-0.9-4s-0.1,4.9-0.1,11.9c0,10.6,0.3,26,1.5,37.4
			c0,0.1,0,0.2,0,0.3c0,0.3,0.7,3.5,1.2,9.3C74.5,158.1,74.7,160.6,74.8,163.4z"/>
		<path class="st4" d="M86.1,180c-0.6,0.5-1.7-0.5-1.1-2.2c0.8-2.5,5.6-5.2,1-10.5c-0.3-0.1-1.6,0.2-2,3.8c-0.2,1.4-1.8,3.1-2.1,0.6
			c0-0.8-0.5-3.8,1.5-7.5c0.7-1.5,1.2-3.8,1.1-5.7c0-0.3-0.1-0.5-0.1-0.7c-0.2-1.2-0.9-4.5-1.5-8.5l8.7-1.3
			c-0.1,1.2-0.3,2.5-0.5,3.7c-0.2,1.3-0.9,4.6-1.1,7.5c-0.1,1.5,0,2.8,0.4,3.6C91.6,165.1,95.7,174.4,86.1,180z"/>
		<g>
			<path class="st5" d="M76.2,173.5c0-0.4,0-0.9,0-1.3c-0.2-5-0.4-9-0.5-10.2c0-0.3,0-0.4,0-0.4c-1.5-11.8-2.3-19-2.3-19H27.5
				c0,0-0.5,2.9-1,6.9c-0.5,3.6-1,8-1.2,12.2c0,0.1,0,0.2,0,0.3c0,0.6-0.1,1.3-0.1,1.9c-0.1,2.5-0.2,5.3-0.3,8.4c0,0.4,0,0.9,0,1.3
				c-0.1,5.5,10.1,113.9,10,114.2c0,0,2.5,1,5.9,1c4.7,0,8.4-1.4,8.4-1.4c0.3-2.2,0.3-33.5,0.1-58.9c0-1.7,1.1-45.7,1.5-53.4
				c0.4,7.7,1.4,51.7,1.4,53.4c-0.2,25.5-0.1,56.7,0.2,58.9c0,0,3.2,1.4,7.3,1.4c5,0,7.7-1.3,7.9-1.4
				C65.9,287.4,76.4,179.6,76.2,173.5z"/>
		</g>
		<path class="st6" d="M85.1,91.2c-0.8-10.8-3.1-21.3-13-24c-1.5-0.4-8.7-2.5-12.1-3c0,0-6.1,3-9.7,2.7c-4.1,0.5-10-2.7-10-2.7
			c-2.6,0.4-7.5,1.7-10.3,2.5c-0.7,11.4-2.9,67.6-2.9,67.6l0.4,8.4h45.8l-1.5-45.5c0.1,0.9,7.7,48.8,9.6,64.8c0,0,2.8,0.5,5.4,0.2
			c4.3-0.6,6.5-2.1,6.5-2.1C93.4,142.2,86.4,93.6,85.1,91.2z"/>
		<g>
			<path class="st7" d="M54.6,137.4c0,0-4.1,5.2-4.3,5.2c-0.2,0-4.3-5.2-4.3-5.2l2.1-63.9l0-0.3h4.2l0,0.3L54.6,137.4z"/>
			<path class="st7" d="M53.6,70.5l-1.1,2.4l-0.1,0.2h-4.2l-0.1-0.2l-0.9-2c1.4-1.9,3-4.1,3-4.1S52,68.7,53.6,70.5z"/>
			<polygon class="st8" points="52.5,73.5 52.4,73.5 48.3,73.5 48.2,73.5 48.3,73.1 52.4,73.1 			"/>
		</g>
		<g>
			<path class="st4" d="M63.9,37c0-0.3,0-0.5,0-0.8c-0.3-6-0.9-15-8.8-16.9c-1.5-0.4-3.1-0.8-4.7-0.8c-0.1,0-0.1,0-0.2,0
				c-0.1,0-0.1,0-0.2,0c-1.6,0-3.2,0.5-4.7,0.8c-7.9,2-8.5,10.9-8.8,16.9c0,0.3,0,0.5,0,0.8c-0.2,2.8,0.1,5.6,0.9,8.3
				c0.6,2,1.8,6.1,3.4,7.7c5.6,5.4,6.9,5.8,8.5,5.8c0.3,0,0.6,0,0.9,0c0.3,0,0.6,0,0.9,0c1.7,0,3-0.4,8.5-5.8
				c1.6-1.6,2.8-5.6,3.4-7.7C63.8,42.6,64.1,39.8,63.9,37z"/>
			<path class="st9" d="M54.3,51.5c0,0-1.3,2.1-4.1,2.1c-2.7,0-4.1-2.2-4.1-2.2C49.9,53,53.3,51.8,54.3,51.5z"/>
			<g>
				<path class="st10" d="M50,40L50,40c0.4,0,0.7,5.2,0.7,5.2c0,0.4-0.3,0.7-0.7,0.7l0,0c-0.4,0-0.7-0.3-0.7-0.7
					C49.3,45.2,49.6,40,50,40z"/>
				<path class="st11" d="M49.1,47.1c-0.6-0.4-1.1-0.2-1.5-0.2c-0.1,0-0.1-0.2,0-0.3c0.8-0.4,1.3-0.2,1.6,0.2
					C49.4,47.2,49.2,47.2,49.1,47.1z"/>
				<path class="st11" d="M50.6,47.1c0.6-0.4,1.1-0.2,1.5-0.2c0.1,0,0.1-0.2,0-0.3c-0.8-0.4-1.3-0.2-1.6,0.2
					C50.3,47.2,50.5,47.2,50.6,47.1z"/>
			</g>
			<g>
				<g>
					<path class="st12" d="M66.3,40.7c-0.6,2.9-1.8,5.3-2.7,5.3c-0.3,0-0.5-0.3-0.6-0.7c0.8-2.7,1.1-5.5,0.9-8.3c0-0.3,0-0.5,0-0.8
						c0.5-0.5,1-0.7,1.6-0.7C66.4,35.5,66.9,37.8,66.3,40.7z"/>
					<path class="st12" d="M34.1,40.7c0.6,2.9,1.8,5.3,2.7,5.3c0.3,0,0.5-0.3,0.6-0.7c-0.8-2.7-1.1-5.5-0.9-8.3c0-0.3,0-0.5,0-0.8
						c-0.5-0.5-1-0.7-1.6-0.7C34,35.5,33.5,37.8,34.1,40.7z"/>
				</g>
				<g>
					<path class="st13" d="M39.7,36.1c0.7,0.7,1.7-2.8,6.8-0.2c0.5,0.3,1.2-0.3,0.2-1.3C45.4,33.3,38.5,34.1,39.7,36.1z"/>
					<path class="st13" d="M60.7,36.1C60,36.9,59,33.3,54,35.9c-0.5,0.3-1.2-0.3-0.2-1.3C55,33.3,61.9,34.1,60.7,36.1z"/>
				</g>
				<g>
					<g>
						<path class="st14" d="M45.1,38.5c0,0.8-0.8,1.5-1.9,1.5s-1.9-0.6-1.9-1.5c0-0.8,0.8-1.4,1.9-1.4S45.1,37.7,45.1,38.5z"/>
						<circle class="st15" cx="43.7" cy="38.2" r="0.5"/>
					</g>
					<g>
						<path class="st14" d="M59.1,38.5c0,0.8-0.8,1.5-1.9,1.5c-1,0-1.9-0.6-1.9-1.5c0-0.8,0.8-1.4,1.9-1.4
							C58.2,37,59.1,37.7,59.1,38.5z"/>
						<path class="st15" d="M58.1,38.2c0,0.2-0.2,0.5-0.5,0.5c-0.2,0-0.5-0.2-0.5-0.5c0-0.2,0.2-0.5,0.5-0.5
							C57.9,37.8,58.1,38,58.1,38.2z"/>
					</g>
				</g>
			</g>
			<path class="st16" d="M66.6,25.3c-0.4-5.3-3.9-7.5-5-7.3c-3-4.8-8.5-5.4-10.3-5.4c-11.1-1.1-12.2,5.2-14.1,6.7
				c-5.7,3.9-5.1,11-4.2,12.4c2.8,4.3,3.5,9.9,3.6,10.5c-0.4-13.5,8.6-13,9.4-12.9c2.7,0.6,5.7,0.4,7.8,0.1
				c-0.8,0.7-1.7,0.9-2.7,1.4c2.2,0,3.9-0.5,5.1-1.3c-0.6,1.4-1.5,2-3.3,2.9c4.6,0,6.6-2,7.9-4c-0.3,1.2-1.1,1.8-1.8,2.9
				c1.6-0.9,2.7-1.6,3.4-3.1c1.5,1.3,1.2,12.6,1.3,14c0.2-2.4,0.4-4.9,0.7-5.9C66.1,31.7,67,30.1,66.6,25.3z"/>
		</g>
		<g>
			<path class="st17" d="M60.3,42.4c-3,0.7-5.3,0.5-7.1,0c-2.7-0.7-2.1-5.4-2.1-5.4c0-0.1,0.1-0.3,0.1-0.4c-0.5-0.1-1.3-0.1-2.1,0
				c0.1,0.1,0.1,0.2,0.1,0.4c0,0,0.6,4.7-2.1,5.4c-1.9,0.5-4.1,0.7-7.1,0c-3.1-0.8-2.6-5.3-2.6-5.3c0-0.4,0.5-0.8,1.2-0.8h9.4
				c0.4,0,0.7,0.1,0.9,0.3c0.5-0.1,1.4-0.2,2.4,0c0.2-0.2,0.6-0.3,0.9-0.3h9.4c0.7,0,1.2,0.4,1.2,0.8C62.9,37.1,63.5,41.6,60.3,42.4
				z"/>
			<g>
				<path class="st18" d="M49.3,37.1c0-0.1-0.1-0.3-0.1-0.4c0-0.1-0.1-0.1-0.2-0.2c-0.2-0.2-0.6-0.3-0.9-0.3h-9.4
					c-0.7,0-1.2,0.4-1.2,0.8c0,0-0.5,4.5,2.6,5.3c3,0.7,5.3,0.5,7.1,0C49.9,41.8,49.3,37.1,49.3,37.1z M47.1,42.2
					c-1.1,0.3-2.2,0.4-3.3,0.4c-1.2,0-2.4-0.2-3.6-0.5c-2.9-0.7-2.4-5-2.4-5.1c0-0.3,0.4-0.6,0.9-0.6h9.4c0.2,0,0.4,0,0.6,0.1
					c0.1,0,0.2,0.1,0.2,0.1C49,36.9,49,37,49,37.1C49,37.2,49.5,41.6,47.1,42.2z"/>
				<path class="st18" d="M62.9,37.1c0-0.4-0.5-0.8-1.2-0.8h-9.4c-0.4,0-0.7,0.1-0.9,0.3c-0.1,0-0.1,0.1-0.2,0.2
					c-0.1,0.1-0.1,0.3-0.1,0.4c0,0-0.6,4.7,2.1,5.4c1.9,0.5,4.1,0.7,7.1,0C63.5,41.6,62.9,37.1,62.9,37.1z M60.2,42.2
					c-1.3,0.3-2.5,0.5-3.6,0.5c-1.1,0-2.2-0.1-3.3-0.4c-2.4-0.6-1.9-5.1-1.9-5.1c0-0.1,0.1-0.3,0.2-0.3c0.1-0.1,0.1-0.1,0.2-0.1
					c0.2-0.1,0.3-0.1,0.5-0.1h9.4c0.5,0,0.9,0.3,0.9,0.6C62.6,37.2,63.1,41.5,60.2,42.2z"/>
			</g>
			<path class="st18" d="M51.8,36.6c-0.1,0-0.2,0.1-0.2,0.1c-0.1,0-0.2,0-0.3-0.1c-0.5-0.1-1.3-0.1-2.1,0c-0.1,0-0.2,0-0.3,0.1
				c-0.1-0.1-0.1-0.1-0.2-0.1c0.1,0,0.2-0.1,0.4-0.1c0.5-0.1,1.4-0.2,2.4,0C51.5,36.6,51.7,36.6,51.8,36.6z"/>
		</g>
		<g>
			<g>
				<path class="st19" d="M93.2,160c0,0-2.2,1.5-6.5,2.1c-2.6,0.4-5.4-0.2-5.4-0.2c-1.9-15.7-9.3-62.4-9.6-64.7
					C72,100.4,79,198,79.5,203.7l-22.6,1.8l0-101v-0.3l6-39.6c1.4,0.3,3,0.7,4.4,1.1c2,0.6,3.9,1.1,4.8,1.4
					c10.2,2.7,12,13.5,13.6,24.2C86.3,95.5,93.4,142.2,93.2,160z"/>
				<path class="st15" d="M65.3,82.4l2.3,3.5l-10.6,18.6v-0.3l6-39.6c1.4,0.3,3,0.7,4.4,1.1c0.4,4.7,1.6,14.5,1.6,14.5L65.3,82.4z"
					/>
				<path class="st15" d="M73.3,154.2l0.6,14.2c0.1,1.6-1.1,3-2.6,3l-8.1,0.4c-1.5,0.1-2.7-1.2-2.8-2.8l-0.6-14.2L73.3,154.2z"/>
			</g>
			<path class="st4" d="M13.9,180.1c0.6,0.5,1.7-0.5,1.1-2.2c-0.8-2.5-5.6-5.2-1-10.5c0.3-0.1,1.6,0.2,2,3.8
				c0.2,1.4,1.8,3.1,2.1,0.6c0-0.8,0.5-3.8-1.5-7.5c-0.7-1.5-1.2-3.8-1.1-5.7c0-0.3,0.1-0.5,0.1-0.7c0.2-1.2,0.9-4.5,1.5-8.5
				L8.3,148c0.1,1.2,0.3,2.5,0.5,3.7c0.2,1.3,0.9,4.6,1.1,7.5c0.1,1.5,0,2.8-0.4,3.6C8.4,165.3,4.3,174.5,13.9,180.1z"/>
			<g>
				<path class="st19" d="M6.8,160.1c0,0,2.2,1.5,6.5,2.1c2.6,0.4,5.3-0.2,5.3-0.2c1.9-15.7,9.3-62.4,9.6-64.7
					c-0.2,3.2-7.3,100.8-7.7,106.6l22.6,1.8l0-101v-0.3l-6-39.6c-1.4,0.3-3,0.7-4.4,1.1c-2,0.6-3.9,1.1-4.8,1.4
					c-10.2,2.7-12,13.5-13.6,24.2C13.6,95.6,6.6,142.4,6.8,160.1z"/>
				<path class="st15" d="M34.7,82.5l-2.3,3.5l10.6,18.6v-0.3l-6-39.6c-1.4,0.3-3,0.7-4.4,1.1C32.2,70.7,31,80.5,31,80.5L34.7,82.5z
					"/>
				<path class="st15" d="M26.7,154.4l-0.6,14.2c-0.1,1.6,1.1,3,2.6,3l8.1,0.4c1.5,0.1,2.7-1.2,2.8-2.8l0.6-14.2L26.7,154.4z"/>
			</g>
		</g>
		<g>
			<g>
				<path class="st20" d="M41.1,102c0.7-0.5,1.3-1,2-1.6c2.7-2.7,4-6.6,4-11.4C46.8,79,41,78.3,39.2,78.3c-0.1,0-0.2,0-0.3,0
					c-0.3,0-0.6,0-0.9,0.1c-1.2,0.2-2.6,0.7-3.8,2c-1.7,1.8-2.5,4.6-2.3,8.2c0,0.1,0.1,8.7,8,13.5c-3.5,2-7,2-7.1,2v0.7
					c0.2,0,4.1,0,7.8-2.3c1.8,1,4.1,1.8,6.8,2.3l0.1-0.7C44.9,103.6,42.8,102.9,41.1,102z M40.4,101.6c-7.8-4.5-8-13-8-13.1
					c-0.2-3.4,0.5-6,2.1-7.7c1.1-1.2,2.4-1.6,3.5-1.8c0.3-0.1,0.7-0.1,0.9-0.1c0.1,0,0.2,0,0.2,0c2.1,0,6.9,1,7.2,10
					c0.1,4.6-1.2,8.3-3.8,10.9C41.9,100.6,41.2,101.2,40.4,101.6z"/>
			</g>
			<path class="st21" d="M30.8,104c0,0.7,1.2,1.2,2.7,1.2c1.5,0,2.7-0.6,2.7-1.2c0-0.7-1.2-1.2-2.7-1.2
				C32,102.8,30.8,103.3,30.8,104z"/>
			<path class="st21" d="M43.7,104c0,0.7,1.2,1.2,2.7,1.2c1.5,0,2.7-0.6,2.7-1.2c0-0.7-1.2-1.2-2.7-1.2
				C44.9,102.8,43.7,103.3,43.7,104z"/>
			<g>
				<path class="st20" d="M59.2,101.9c0,2,1.6,3.6,3.6,3.6s3.6-1.6,3.6-3.6c0-2-1.6-3.6-3.6-3.6S59.2,100,59.2,101.9z"/>
				<ellipse class="st15" cx="62.8" cy="101.9" rx="3" ry="3"/>
				
					<radialGradient id="SVGID_4_" cx="-897.4713" cy="101.3346" r="1.9899" gradientTransform="matrix(-1 0 0 0.9978 -834.6979 0.8352)" gradientUnits="userSpaceOnUse">
					<stop  offset="0.3162" style="stop-color:#A3A4A9"/>
					<stop  offset="0.9946" style="stop-color:#76777A"/>
				</radialGradient>
				<path class="st22" d="M62.8,103.9c1.1,0,2-0.9,2-2c0-1.1-0.9-2-2-2c-1.1,0-2,0.9-2,2C60.8,103,61.7,103.9,62.8,103.9z"/>
			</g>
			<g>
				<path class="st20" d="M41.9,61.9c-0.1,0.5-0.2,0.9-0.3,1.3c-0.3,0.3-0.7,0.6-0.9,0.9c-0.2,0.2-0.3,0.4-0.4,0.6
					c-2.5,3.9-1.8,11-1.4,13.6c0,0.3,0.1,0.5,0.1,0.7c-0.3,0-0.6,0-0.9,0.1c0-0.2-0.1-0.4-0.1-0.7c-0.4-2.5-1.1-9,1-13.3
					c0.3-0.6,0.6-1.1,1-1.6C40.5,62.8,41.1,62.3,41.9,61.9z"/>
				<path class="st20" d="M63.7,90.2c-0.3,2.9-0.6,5.7-0.5,8.8l-0.9,0c-0.1-3.1,0.2-5.9,0.5-8.9c0.5-4.6,1-9.9,0.3-17.7
					c-0.3-3.5-1.1-5.9-2.2-7.5c-0.6-0.8-1.3-1.4-2.1-1.8c-0.1-0.3-0.2-0.7-0.2-1.2c1.5,0.6,2.7,1.7,3.7,3.4c0.9,1.6,1.5,3.9,1.8,7
					C64.7,80.2,64.2,85.5,63.7,90.2z"/>
			</g>
		</g>
		<path class="st23" d="M55.9,73.4c-0.4-0.6-1.3-1.7-2.3-2.8c-1.5-1.8-3.3-3.7-3.3-3.7s-1.7,2.3-3,4.1c-0.8,1.1-1.5,2.1-1.7,2.4
			c-3.9-3.6-7.6-8.5-3.6-12c0,0-0.8,5,8.3,5.4c4.4-0.2,7.7-2,8.3-5.3C60.5,63,62.6,65.7,55.9,73.4z"/>
		<g>
			<path class="st17" d="M60.3,42.5c-3,0.7-5.3,0.5-7.1,0c-2.7-0.7-2.1-5.4-2.1-5.4c0-0.1,0.1-0.3,0.1-0.4c-0.5-0.1-1.3-0.1-2.1,0
				c0.1,0.1,0.1,0.2,0.1,0.4c0,0,0.6,4.7-2.1,5.4c-1.9,0.5-4.1,0.7-7.1,0c-3.1-0.8-2.6-5.3-2.6-5.3c0-0.4,0.5-0.8,1.2-0.8h9.4
				c0.4,0,0.7,0.1,0.9,0.3c0.5-0.1,1.4-0.2,2.4,0c0.2-0.2,0.6-0.3,0.9-0.3h9.4c0.7,0,1.2,0.4,1.2,0.8C62.9,37.2,63.5,41.7,60.3,42.5
				z"/>
			<g>
				<path class="st18" d="M49.3,37.2c0-0.1-0.1-0.3-0.1-0.4c0-0.1-0.1-0.1-0.2-0.2c-0.2-0.2-0.6-0.3-0.9-0.3h-9.4
					c-0.7,0-1.2,0.4-1.2,0.8c0,0-0.5,4.5,2.6,5.3c3,0.7,5.3,0.5,7.1,0C49.9,41.8,49.3,37.2,49.3,37.2z M47.1,42.3
					c-1.1,0.3-2.2,0.4-3.3,0.4c-1.2,0-2.4-0.1-3.6-0.5c-2.9-0.7-2.4-5-2.4-5.1c0-0.3,0.4-0.6,0.9-0.6h9.4c0.2,0,0.4,0,0.6,0.1
					c0.1,0,0.2,0.1,0.2,0.1C49,37,49,37.1,49,37.2C49,37.2,49.5,41.7,47.1,42.3z"/>
				<path class="st18" d="M62.9,37.2c0-0.4-0.5-0.8-1.2-0.8h-9.4c-0.4,0-0.7,0.1-0.9,0.3c-0.1,0-0.1,0.1-0.2,0.2
					c-0.1,0.1-0.1,0.3-0.1,0.4c0,0-0.6,4.7,2.1,5.4c1.9,0.5,4.1,0.7,7.1,0C63.5,41.7,62.9,37.2,62.9,37.2z M60.2,42.3
					c-1.3,0.3-2.5,0.5-3.6,0.5c-1.1,0-2.2-0.1-3.3-0.4c-2.4-0.6-1.9-5.1-1.9-5.1c0-0.1,0.1-0.3,0.2-0.4c0.1,0,0.1-0.1,0.2-0.1
					c0.2-0.1,0.3-0.1,0.5-0.1h9.4c0.5,0,0.9,0.3,0.9,0.6C62.6,37.2,63.1,41.5,60.2,42.3z"/>
			</g>
			<path class="st18" d="M51.8,36.7c-0.1,0-0.2,0.1-0.2,0.1c-0.1,0-0.2,0-0.3-0.1c-0.5-0.1-1.3-0.1-2.1,0c-0.1,0-0.2,0-0.3,0.1
				c-0.1-0.1-0.1-0.1-0.2-0.1c0.1,0,0.2-0.1,0.4-0.1c0.5-0.1,1.4-0.2,2.4,0C51.5,36.6,51.7,36.7,51.8,36.7z"/>
		</g>
	</g>
</g>
</svg>
