<?xml version="1.0" encoding="utf-8"?>
<!-- Generator: Adobe Illustrator 22.1.0, SVG Export Plug-In . SVG Version: 6.00 Build 0)  -->
<svg version="1.1" id="Layer_1" xmlns="http://www.w3.org/2000/svg" xmlns:xlink="http://www.w3.org/1999/xlink" x="0px" y="0px"
	 viewBox="0 0 100 100" style="enable-background:new 0 0 100 100;" xml:space="preserve">
<style type="text/css">
	.st0{opacity:0.19;fill:#203C66;}
	.st1{fill:none;}
	.st2{fill:url(#SVGID_1_);}
	.st3{fill:#F7D9AB;}
	.st4{fill:url(#SVGID_2_);}
	.st5{fill:url(#SVGID_3_);}
	.st6{fill:url(#SVGID_4_);}
	.st7{fill:#99B237;}
	.st8{fill:url(#SVGID_5_);}
	.st9{fill:url(#SVGID_6_);}
	.st10{fill:url(#SVGID_7_);}
	.st11{fill:url(#SVGID_8_);}
	.st12{fill:url(#SVGID_9_);}
	.st13{fill:url(#SVGID_10_);}
	.st14{fill:url(#SVGID_11_);}
	.st15{fill:url(#SVGID_12_);}
	.st16{fill:#F0C999;}
	.st17{fill:url(#SVGID_13_);}
	.st18{fill:url(#SVGID_14_);}
	.st19{fill:url(#SVGID_15_);}
	.st20{fill:url(#SVGID_16_);}
	.st21{fill:url(#SVGID_17_);}
	.st22{fill:url(#SVGID_18_);}
	.st23{fill:url(#SVGID_19_);}
	.st24{fill:url(#SVGID_20_);}
	.st25{fill:url(#SVGID_21_);}
	.st26{fill:url(#SVGID_22_);}
	.st27{fill:url(#SVGID_23_);}
	.st28{fill:url(#SVGID_24_);}
	.st29{fill:url(#SVGID_25_);}
	.st30{fill:url(#SVGID_26_);}
	.st31{fill:#DDDDDD;}
	.st32{fill:url(#SVGID_27_);}
	.st33{fill:url(#SVGID_28_);}
	.st34{fill:url(#SVGID_29_);}
	.st35{fill:url(#SVGID_30_);}
	.st36{fill:#FFFFFF;}
	.st37{fill:url(#SVGID_31_);}
	.st38{fill:#DBA779;}
	.st39{fill:#391B13;}
	.st40{fill:url(#SVGID_32_);}
	.st41{fill:url(#SVGID_33_);}
	.st42{fill:url(#SVGID_34_);}
	.st43{fill:url(#SVGID_35_);}
	.st44{fill:url(#SVGID_36_);}
	.st45{fill:url(#SVGID_37_);}
	.st46{fill:url(#SVGID_38_);}
	.st47{fill:url(#SVGID_39_);}
	.st48{fill:url(#SVGID_40_);}
	.st49{fill:url(#SVGID_41_);}
	.st50{fill:url(#SVGID_42_);}
	.st51{fill:#FBCDAC;}
	.st52{fill:url(#SVGID_43_);}
	.st53{fill:url(#SVGID_44_);}
	.st54{fill:url(#SVGID_45_);}
	.st55{fill:url(#SVGID_46_);}
	.st56{fill:url(#SVGID_47_);}
	.st57{fill:url(#SVGID_48_);}
	.st58{fill:url(#SVGID_49_);}
	.st59{fill:url(#SVGID_50_);}
	.st60{fill:url(#SVGID_51_);}
	.st61{fill:url(#SVGID_52_);}
	.st62{fill:url(#SVGID_53_);}
	.st63{fill:url(#SVGID_54_);}
	.st64{fill:url(#SVGID_55_);}
	.st65{fill:url(#SVGID_56_);}
	.st66{fill:url(#SVGID_57_);}
	.st67{fill:url(#SVGID_58_);}
	.st68{fill:url(#SVGID_59_);}
	.st69{fill:#961B27;}
	.st70{fill:#F86D78;}
	.st71{fill:url(#SVGID_60_);}
	.st72{fill:url(#SVGID_61_);}
	.st73{fill:url(#SVGID_62_);}
	.st74{fill:#FF9AA2;}
</style>
<g>
	<ellipse transform="matrix(0.895 -0.4461 0.4461 0.895 -17.0548 27.5577)" class="st0" cx="50" cy="50" rx="47.8" ry="47.8"/>
	<ellipse transform="matrix(0.895 -0.4461 0.4461 0.895 -17.0548 27.5577)" class="st1" cx="50" cy="50" rx="47.8" ry="47.8"/>
	<g>
		<linearGradient id="SVGID_1_" gradientUnits="userSpaceOnUse" x1="49.4672" y1="34.3824" x2="52.8081" y2="71.2437">
			<stop  offset="0" style="stop-color:#6B3329"/>
			<stop  offset="0.3023" style="stop-color:#663127"/>
			<stop  offset="0.6359" style="stop-color:#592A21"/>
			<stop  offset="0.9833" style="stop-color:#432017"/>
			<stop  offset="1" style="stop-color:#421F16"/>
		</linearGradient>
		<path class="st2" d="M54.7,20.1c-2.3-1.4-21.5,5.4-22.7,8.1c-0.5,1.1-6.3,25.9,8.7,39.1c0,0,0.4-2.4,9-2.4c8,0,9.6,2.5,9.6,2.5
			S85.8,38.9,54.7,20.1z"/>
		<path class="st3" d="M70.3,71.9c-2.4-0.2-12.2,0-13.1-3.2c-1.2-3.9,0.2-9,0.2-9L42.6,59c1.7,2.8,1.6,5.7,1.5,8.7
			c-0.1,3.3-2.6,2.9-3.1,3.1c-2.1,0.7-7.3,1.4-10.8,1.7c-1.9,0.2-8,3.5-8.9,6.8c-0.7,2.4-1,5.3-1.1,8.3c4.7,3.8,10.2,6.6,16.2,8.4
			h26.3c6.3-1.8,12.1-5,17.1-9.1c-0.4-3.9-1.1-7.5-2.4-10.1C76.3,74.4,71,72,70.3,71.9z"/>
		<linearGradient id="SVGID_2_" gradientUnits="userSpaceOnUse" x1="25.2508" y1="96.2468" x2="24.6439" y2="77.4327">
			<stop  offset="0" style="stop-color:#F0C999"/>
			<stop  offset="0.517" style="stop-color:#F1CB9C"/>
			<stop  offset="0.8546" style="stop-color:#F4D3A4"/>
			<stop  offset="1" style="stop-color:#F7D9AB"/>
		</linearGradient>
		<path class="st4" d="M21.7,78c-0.2,0.3-0.6,2.4-0.6,2.4c2.2,2.3,4.6,5.4,5.3,6.7c0.3,0.6,0.5,2.9,0.7,5.1c0.6,0.3,1.1,0.6,1.7,0.9
			C28.1,83,21.7,78,21.7,78z"/>
		<linearGradient id="SVGID_3_" gradientUnits="userSpaceOnUse" x1="74.821" y1="95.9427" x2="74.1751" y2="75.9201">
			<stop  offset="0" style="stop-color:#F0C999"/>
			<stop  offset="0.517" style="stop-color:#F1CB9C"/>
			<stop  offset="0.8546" style="stop-color:#F4D3A4"/>
			<stop  offset="1" style="stop-color:#F7D9AB"/>
		</linearGradient>
		<path class="st5" d="M72.9,87.6c0.6-2.6,3.7-7.2,5.2-9l-0.8-2.2c0,0-5.7,8.5-6.5,16.4c0.6-0.3,1.2-0.6,1.7-0.9
			C72.6,90.3,72.7,88.7,72.9,87.6z"/>
		<linearGradient id="SVGID_4_" gradientUnits="userSpaceOnUse" x1="51.3228" y1="97.0332" x2="50.4845" y2="71.0463">
			<stop  offset="0" style="stop-color:#F0C999"/>
			<stop  offset="0.517" style="stop-color:#F1CB9C"/>
			<stop  offset="0.8546" style="stop-color:#F4D3A4"/>
			<stop  offset="1" style="stop-color:#F7D9AB"/>
		</linearGradient>
		<path class="st6" d="M68.9,71.8c-1.7,4.7-15.5,17.4-20.4,17.1C44.3,88.6,32.9,77,31.5,72.4c-1.2,0.1-1.2,0.1-1.2,0.1
			s2.3,20.6,17.6,20.4c15.4-0.3,22.8-20.9,22.8-20.9S69.8,71.8,68.9,71.8z"/>
		<path class="st7" d="M77.9,77.3c0,0-1.2-5.4-8.1-5.5C66,80.5,51.4,89.7,49.1,89.9c-3.3,0.3-16.7-10.4-18.2-17.7
			c-8.7-0.8-9.8,7.3-9.8,7.3c2.6,2.7,5.2,5.3,6.2,8.1c0.3,1.8,0.5,3.5,0.6,4.9c6.5,3.4,13.9,5.3,21.7,5.3c8,0,15.6-2,22.3-5.6
			c0.1-1.3,0.2-2.8,0.4-4.8C74,82.2,77.9,77.3,77.9,77.3z"/>
		<linearGradient id="SVGID_5_" gradientUnits="userSpaceOnUse" x1="43.9254" y1="64.1934" x2="56.7429" y2="78.1468">
			<stop  offset="0" style="stop-color:#F0C999"/>
			<stop  offset="0.517" style="stop-color:#F1CB9C"/>
			<stop  offset="0.8546" style="stop-color:#F4D3A4"/>
			<stop  offset="1" style="stop-color:#F7D9AB"/>
		</linearGradient>
		<path class="st8" d="M57,66c-0.1-0.7-0.2-2.6-0.2-3.5c-0.2,0.2-12.8-0.2-13.3-0.9l-1.5,0c0,0,0.4,4.6-0.3,8
			c-0.2,1-9.2,2.6-9.2,2.6c3.6,0.1,7.2,0.8,8.5,0.6c1.1-0.2,3.1-1.1,4.5-1.7c7.6-3.5,9.9-4.6,9.9-4.6c0.4,3.2,2.7,5.3,2.6,5.3
			c4.6,1.1,11.5,0.1,11.5,0.1c-8.7-0.7-11.1-2.1-11.6-2.4C57.6,69.2,57.2,67.7,57,66z"/>
		<linearGradient id="SVGID_6_" gradientUnits="userSpaceOnUse" x1="58.5218" y1="75.1113" x2="48.3721" y2="76.6077">
			<stop  offset="0" style="stop-color:#F0C999"/>
			<stop  offset="0.517" style="stop-color:#F1CB9C"/>
			<stop  offset="0.8546" style="stop-color:#F4D3A4"/>
			<stop  offset="1" style="stop-color:#F7D9AB"/>
		</linearGradient>
		<path class="st9" d="M48.9,75.6c0,0,2.7,0.5,3.4,1.3C52.4,77,51.6,74.8,48.9,75.6z"/>
		<linearGradient id="SVGID_7_" gradientUnits="userSpaceOnUse" x1="50.6965" y1="74.413" x2="66.8218" y2="71.896">
			<stop  offset="0" style="stop-color:#FFDEB3"/>
			<stop  offset="1" style="stop-color:#F7D9AB"/>
		</linearGradient>
		<path class="st10" d="M52.5,75.1c2.4-1.8,4.7-1.3,7.7-1.7c3-0.3,8.2-1.5,8.2-1.5c-1.4,0.3-13.1,0.7-14.1,0.9
			C53.2,73.1,52.5,75.1,52.5,75.1z"/>
		<linearGradient id="SVGID_8_" gradientUnits="userSpaceOnUse" x1="49.7807" y1="75.2294" x2="35.6254" y2="71.5126">
			<stop  offset="0" style="stop-color:#FFDEB3"/>
			<stop  offset="1" style="stop-color:#F7D9AB"/>
		</linearGradient>
		<path class="st11" d="M46.7,73.1c-1.3-0.4-11.2-1.1-13-0.9c0,0,12.5,1.3,15.1,2.8C48.7,75.1,48,73.6,46.7,73.1z"/>
		<linearGradient id="SVGID_9_" gradientUnits="userSpaceOnUse" x1="28.9118" y1="85.9398" x2="28.2076" y2="93.1303">
			<stop  offset="0" style="stop-color:#99B237"/>
			<stop  offset="0.652" style="stop-color:#81962E"/>
			<stop  offset="1" style="stop-color:#738529"/>
		</linearGradient>
		<path class="st12" d="M27.7,92.5c0.6,0.3,1.3,0.6,1.9,0.9l-2.3-5.8C27.4,88.5,27.6,90.6,27.7,92.5z"/>
		<linearGradient id="SVGID_10_" gradientUnits="userSpaceOnUse" x1="71.7378" y1="85.3679" x2="70.9848" y2="93.0563">
			<stop  offset="0" style="stop-color:#99B237"/>
			<stop  offset="0.652" style="stop-color:#81962E"/>
			<stop  offset="1" style="stop-color:#738529"/>
		</linearGradient>
		<path class="st13" d="M70.1,93.1c0.6-0.3,1.2-0.6,1.8-0.9c0.1-1.9,0.2-4,0.3-4.8L70.1,93.1z"/>
		<linearGradient id="SVGID_11_" gradientUnits="userSpaceOnUse" x1="48.4367" y1="60.0156" x2="50.2449" y2="67.6757">
			<stop  offset="0" style="stop-color:#DBA779"/>
			<stop  offset="0.4797" style="stop-color:#E4B586"/>
			<stop  offset="1" style="stop-color:#F0C999"/>
		</linearGradient>
		<path class="st14" d="M41.8,59.6c0.6,1.6,0.5,7.5,0.5,7.5c8.5,2.7,14.5-3.3,14.5-3.3l0-1.8L41.8,59.6z"/>
		<g>
			<linearGradient id="SVGID_12_" gradientUnits="userSpaceOnUse" x1="48.418" y1="121.0437" x2="49.2002" y2="22.4857">
				<stop  offset="0.2335" style="stop-color:#492219"/>
				<stop  offset="1" style="stop-color:#652F23"/>
			</linearGradient>
			<path class="st15" d="M48.5,19C29,21.1,31,37.2,32.7,46.8c1.7,9.6,29.9,22.8,33.3-0.4C69.4,23.1,53.2,18.5,48.5,19z"/>
			<g>
				<path class="st16" d="M67.1,44.5c-0.5,0-1.1,1.3-1.1,1.3c-0.8,4.4-1.1,7.7-1.1,7.7C67.8,52.6,69.9,44.4,67.1,44.5z"/>
				<linearGradient id="SVGID_13_" gradientUnits="userSpaceOnUse" x1="67.5875" y1="45.3777" x2="65.6756" y2="53.8502">
					<stop  offset="0" style="stop-color:#DBA779"/>
					<stop  offset="0.23" style="stop-color:#E2B384"/>
					<stop  offset="0.6675" style="stop-color:#ECC393"/>
					<stop  offset="1" style="stop-color:#F0C999"/>
				</linearGradient>
				<path class="st17" d="M66.7,48.7c0.3,1.6-0.4,2.6-0.4,2.6s1-1.2,1.2-2.3c0.3-2.1-0.5-2.2-0.2-2.7C67.6,45.8,68,47,68,47
					C68.4,44.3,65.9,44.9,66.7,48.7z"/>
				<path class="st16" d="M32.5,44.3c-2.9-0.1-1,8.1,1.8,9.1c0,0-0.2-3.3-0.8-7.7C33.5,45.6,33,44.3,32.5,44.3z"/>
				<linearGradient id="SVGID_14_" gradientUnits="userSpaceOnUse" x1="31.8114" y1="44.93" x2="33.7233" y2="54.8645">
					<stop  offset="0" style="stop-color:#DBA779"/>
					<stop  offset="0.23" style="stop-color:#E2B384"/>
					<stop  offset="0.6675" style="stop-color:#ECC393"/>
					<stop  offset="1" style="stop-color:#F0C999"/>
				</linearGradient>
				<path class="st18" d="M32.9,48.6c0.6-4.1-2.2-4.3-1.5-1.6c0,0,0.4-1.3,0.7-0.9c0.4,0.5-0.5,0.7,0,2.8c0.2,1.1,1.4,2.2,1.4,2.2
					S32.7,50.3,32.9,48.6z"/>
				<path class="st3" d="M52.2,24.1c-9.7-1.6-16.6,6.9-18.5,17.3c-1,5.8-0.6,11,2.5,15.3c1.3,1.7,2.8,2.6,4.6,3.9
					c1.2,0.9,3,2.7,4.2,3.6c1.1,0.8,2.3,1.5,3.8,1.5c4.6,0.2,7.6-3.2,8.9-4.5c4.6-4.3,8.9-5.9,7.9-17.9C65,33.9,58.6,24.3,52.2,24.1
					z"/>
				<linearGradient id="SVGID_15_" gradientUnits="userSpaceOnUse" x1="58.9137" y1="50.0458" x2="58.7707" y2="39.942">
					<stop  offset="0" style="stop-color:#F7D9AB"/>
					<stop  offset="0.517" style="stop-color:#F6D7A8"/>
					<stop  offset="0.8546" style="stop-color:#F3CFA0"/>
					<stop  offset="1" style="stop-color:#F0C999"/>
				</linearGradient>
				<path class="st19" d="M57.6,39c-5.4,1-5.2,5.1-5.6,9.8c8.8,3.6,13.8-0.6,13.8-0.6s0-5.3-1.2-7.1C64.1,40.4,62.7,38.1,57.6,39z"
					/>
				
					<radialGradient id="SVGID_16_" cx="60.6927" cy="50.7437" r="6.2726" fx="58.9135" fy="50.8448" gradientUnits="userSpaceOnUse">
					<stop  offset="0" style="stop-color:#F9AC8E"/>
					<stop  offset="0.4665" style="stop-color:#F8BF9A"/>
					<stop  offset="1" style="stop-color:#F7D9AB"/>
				</radialGradient>
				<path class="st20" d="M59.3,45.1c-2.8,0.5-5.3,2.8-5.1,6c0.2,3.9,2.2,5.8,4.8,6.9c3.4,1.3,6.8-3.3,7-8.4
					C66.1,44.3,62.1,44.7,59.3,45.1z"/>
				<linearGradient id="SVGID_17_" gradientUnits="userSpaceOnUse" x1="41.0098" y1="50.5105" x2="41.0574" y2="40.1684">
					<stop  offset="0" style="stop-color:#F7D9AB"/>
					<stop  offset="0.517" style="stop-color:#F6D7A8"/>
					<stop  offset="0.8546" style="stop-color:#F3CFA0"/>
					<stop  offset="1" style="stop-color:#F0C999"/>
				</linearGradient>
				<path class="st21" d="M41,39.2c-2.2-0.2-4,0.5-5.2,1.3c-2.7,2-1.1,7.3-1.1,7.3s4.2,4.9,13,1.4C47.2,45.5,48.2,39.7,41,39.2z"/>
				
					<radialGradient id="SVGID_18_" cx="39.0412" cy="50.9263" r="6.2376" fx="38.6031" fy="51.2395" gradientUnits="userSpaceOnUse">
					<stop  offset="0" style="stop-color:#F9AC8E"/>
					<stop  offset="0.4665" style="stop-color:#F8BF9A"/>
					<stop  offset="1" style="stop-color:#F7D9AB"/>
				</radialGradient>
				<path class="st22" d="M40.7,45.9c-2.6-0.6-6.7-2.1-6.8,3.7c-0.2,5.7,3.1,8.5,6.6,9c2.7,0.3,4.8-4,4.9-7.4
					C45.3,48,43.4,46.5,40.7,45.9z"/>
				<linearGradient id="SVGID_19_" gradientUnits="userSpaceOnUse" x1="51.6211" y1="6.4833" x2="49.2431" y2="51.7559">
					<stop  offset="0" style="stop-color:#DBA779"/>
					<stop  offset="0.4797" style="stop-color:#E4B586"/>
					<stop  offset="1" style="stop-color:#F0C999"/>
				</linearGradient>
				<path class="st23" d="M53.7,24.3c0,0-10.3-2.8-16.9,7.9C33.4,37.6,32.2,47,34,52.3c0,0-0.5-5.8,1.7-7.2c0,0,1.2-12.4,6.5-15.7
					c1.2,4.5,4,6.3,10.2,8c5.7,1.6,11.2,3.2,13.4,10.4c0,0,0.5-5.7-1.5-11.4C62.4,31,58.8,25.3,53.7,24.3z"/>
				<linearGradient id="SVGID_20_" gradientUnits="userSpaceOnUse" x1="46.0732" y1="62.8571" x2="51.8152" y2="62.8571">
					<stop  offset="0" style="stop-color:#FFDEB3"/>
					<stop  offset="0.6815" style="stop-color:#FCDCB0"/>
					<stop  offset="1" style="stop-color:#F7D9AB"/>
				</linearGradient>
				<path class="st24" d="M49.8,62.1c-1.2-0.1-2.2,0.2-2.3,0.6c0,0.4,0.9,0.8,2.1,0.9c1.2,0.1,2.2-0.2,2.3-0.6
					C52,62.5,51,62.2,49.8,62.1z"/>
				<linearGradient id="SVGID_21_" gradientUnits="userSpaceOnUse" x1="55.895" y1="54.0795" x2="66.127" y2="54.0795">
					<stop  offset="0" style="stop-color:#FFDEB3"/>
					<stop  offset="0.6815" style="stop-color:#FCDCB0"/>
					<stop  offset="1" style="stop-color:#F7D9AB"/>
				</linearGradient>
				<path class="st25" d="M63.8,45.1c3.5,5-0.1,10.5-3,13c-3.1,2.8-4.4,4.4-4.9,4.9c0.5-0.4,4.6-4,5.8-4.9c1.1-0.8,5.3-5,4.3-10.2
					C66,48,65.3,45.8,63.8,45.1z"/>
				<path class="st16" d="M39,58.8c-6.2-4.5-4.3-12.4-4.3-12.4c-3.2,8.1,2.3,11.7,3.4,12.5c2.3,1.5,6.2,4.7,6.2,4.7
					C43.4,62.7,42.4,61.2,39,58.8z"/>
				<linearGradient id="SVGID_22_" gradientUnits="userSpaceOnUse" x1="49.8852" y1="63.7999" x2="50.2227" y2="68.2435">
					<stop  offset="0" style="stop-color:#DBA779"/>
					<stop  offset="0.4797" style="stop-color:#E4B586"/>
					<stop  offset="1" style="stop-color:#F0C999"/>
				</linearGradient>
				<path class="st26" d="M44.9,64c0,0,3.8,5,10-0.2C54.9,63.8,49.9,67.7,44.9,64z"/>
				<linearGradient id="SVGID_23_" gradientUnits="userSpaceOnUse" x1="53.9864" y1="39.5916" x2="63.5728" y2="39.5916">
					<stop  offset="0" style="stop-color:#673024"/>
					<stop  offset="0.3355" style="stop-color:#53271C"/>
					<stop  offset="0.677" style="stop-color:#462118"/>
					<stop  offset="1" style="stop-color:#421F16"/>
				</linearGradient>
				<path class="st27" d="M55.4,39.2c-1.2,0.5-2,2.1-1,1.7c1-0.3,4.7-1.7,5.5-1.8c1.3,0,3.1,0.6,3.6,0.9c0,0-2.3-1.7-3.6-1.9
					C58.6,38.1,56,38.9,55.4,39.2z"/>
				<linearGradient id="SVGID_24_" gradientUnits="userSpaceOnUse" x1="35.6514" y1="39.5439" x2="45.3061" y2="39.5439">
					<stop  offset="0" style="stop-color:#421F16"/>
					<stop  offset="0.323" style="stop-color:#462118"/>
					<stop  offset="0.6645" style="stop-color:#53271C"/>
					<stop  offset="1" style="stop-color:#673024"/>
				</linearGradient>
				<path class="st28" d="M43.9,39.2c-0.6-0.3-3.4-1.1-4.8-0.9c-1.4,0.2-3.5,2.1-3.5,2.1c0.5-0.3,2.4-1.2,3.6-1.1
					c0.8,0,4.6,1.2,5.6,1.5C45.8,41.1,45.1,39.7,43.9,39.2z"/>
				<g>
					<linearGradient id="SVGID_25_" gradientUnits="userSpaceOnUse" x1="44.9797" y1="43.4051" x2="37.2006" y2="46.4261">
						<stop  offset="0" style="stop-color:#F0C999"/>
						<stop  offset="0.5203" style="stop-color:#E4B586"/>
						<stop  offset="1" style="stop-color:#DBA779"/>
					</linearGradient>
					<path class="st29" d="M40.3,41.8c-1.2,0.1-3.6,0.5-3.6,2.7c0,2.7,2.9,3.4,4.2,3.4c1.6,0,2.7-0.5,3.7-0.8
						c0.7-0.2,1.1-0.3,1.4-0.4C45.9,44.7,45.1,41.8,40.3,41.8z"/>
					<linearGradient id="SVGID_26_" gradientUnits="userSpaceOnUse" x1="43.0538" y1="45.3725" x2="45.7512" y2="45.3725">
						<stop  offset="0" style="stop-color:#FFFFFF"/>
						<stop  offset="0.4667" style="stop-color:#FDFCFC"/>
						<stop  offset="0.7734" style="stop-color:#F6F4F4"/>
						<stop  offset="1" style="stop-color:#ECE7E7"/>
					</linearGradient>
					<path class="st30" d="M43.1,43.5c0.5,0.4,1,1.3,1.1,2c0,0.9-0.3,1.3-0.8,1.8c0.7-0.2,1.4-0.6,2.5-0.7
						C45.8,46.6,44.8,44.4,43.1,43.5z"/>
					<path class="st31" d="M43.3,43.8c0.5,0.4,0.8,0.9,0.9,1.4c0.8,0.5,1.4,1.1,1.7,1.4C45.8,46.6,44.8,44.5,43.3,43.8z"/>
					<linearGradient id="SVGID_27_" gradientUnits="userSpaceOnUse" x1="38.1259" y1="45.2942" x2="40.3703" y2="45.2942">
						<stop  offset="0" style="stop-color:#FFFFFF"/>
						<stop  offset="0.4667" style="stop-color:#FDFCFC"/>
						<stop  offset="0.7734" style="stop-color:#F6F4F4"/>
						<stop  offset="1" style="stop-color:#ECE7E7"/>
					</linearGradient>
					<path class="st32" d="M41.1,43c-1.2,0.1-2.6,0.7-4.3,2.1c0,0,1,2.1,3.8,2.4c-0.7-0.4-1.1-1-1.2-1.9
						C39.4,44.5,40.1,43.4,41.1,43z"/>
					<linearGradient id="SVGID_28_" gradientUnits="userSpaceOnUse" x1="45.6533" y1="48.7829" x2="39.1967" y2="44.1978">
						<stop  offset="0" style="stop-color:#B89C8C"/>
						<stop  offset="1" style="stop-color:#715241"/>
					</linearGradient>
					<path class="st33" d="M44.2,45.2c-1.7-1.1-3.4-1.1-4.8-0.7c-0.2,0.4-0.3,0.8-0.2,1.3c0.1,0.9,0.5,1.4,1.2,1.8
						c1.1,0.2,2.8-0.2,3-0.3c0.6-0.5,0.9-1,0.8-1.8C44.2,45.3,44.2,45.3,44.2,45.2z"/>
					<path class="st31" d="M37.3,45.2l0.3,0.6c0,0,0.6-0.5,1.6-0.9c0.2-0.6,0.6-1.1,1.1-1.3C39.1,43.8,38,44.4,37.3,45.2z"/>
					<linearGradient id="SVGID_29_" gradientUnits="userSpaceOnUse" x1="50.5021" y1="49.2885" x2="43.7944" y2="45.7027">
						<stop  offset="0" style="stop-color:#B89C8C"/>
						<stop  offset="1" style="stop-color:#715241"/>
					</linearGradient>
					<path class="st34" d="M43.3,43.8c-0.2-0.1-0.4-0.2-0.7-0.2c-0.7-0.1-1.5-0.1-2.2,0c-0.5,0.3-1,0.8-1.1,1.4
						c0.7-0.3,1.6-0.5,2.6-0.5c1,0.1,1.8,0.4,2.4,0.8C44.1,44.6,43.7,44.1,43.3,43.8z"/>
					<radialGradient id="SVGID_30_" cx="41.2471" cy="45.422" r="1.8429" gradientUnits="userSpaceOnUse">
						<stop  offset="0" style="stop-color:#2A3A3B"/>
						<stop  offset="1" style="stop-color:#1C2727"/>
					</radialGradient>
					<path class="st35" d="M41.6,43.7c-0.9,0.1-1.5,0.8-1.5,1.7c0.1,0.9,0.8,1.5,1.7,1.4c0.9-0.1,1.5-0.8,1.5-1.7
						C43.2,44.3,42.5,43.6,41.6,43.7z"/>
					<path class="st36" d="M42,44.6c-0.2-0.1-0.5,0-0.6,0.2c-0.1,0.2,0,0.5,0.2,0.6c0.2,0.1,0.5,0,0.6-0.2
						C42.3,45,42.2,44.8,42,44.6z"/>
					<path class="st36" d="M43.5,45.3c-0.3-0.1-0.7,0-0.8,0.3c-0.1,0.3,0,0.6,0.3,0.8c0.3,0.1,0.7,0,0.8-0.3
						C43.9,45.8,43.8,45.4,43.5,45.3z"/>
					<linearGradient id="SVGID_31_" gradientUnits="userSpaceOnUse" x1="35.6824" y1="45.0678" x2="45.7542" y2="45.0678">
						<stop  offset="0" style="stop-color:#5A2A1F"/>
						<stop  offset="0.2944" style="stop-color:#4A2319"/>
						<stop  offset="0.657" style="stop-color:#3D1D15"/>
						<stop  offset="1" style="stop-color:#391B13"/>
					</linearGradient>
					<path class="st37" d="M38.6,43.1c-1.5,0.7-2.8,0.1-2.8,0.1c0,0.1-0.2,1.7,1,2.2c0,0,0,0.1,0,0.2c-0.5,0-0.7,0.3-0.8,0.4
						c0,0,0.5-0.3,1.6,0.5c0.7,0.5,1.9,1.1,3,1.1c-1.6-0.6-2.4-1-3.2-2.3c1.3-1.1,2.9-1.5,4.4-1.5c2.2,0.1,4,2.8,4,2.8
						C45.1,43.7,42.8,41.4,38.6,43.1z"/>
					<path class="st38" d="M42.8,42c-1.6-0.5-3.1-0.3-4.3,0.1c0,0,2.5-0.5,4.2,0.2c1.7,0.6,2.4,1.4,2.4,1.4S44.3,42.6,42.8,42z"/>
					<path class="st39" d="M42.2,43.6c-3.7-0.4-4.8,1.7-4.8,1.7c0.9-0.7,2.6-1.6,4.6-1.4c2.1,0.2,3.8,2.7,3.8,2.7
						S44.9,43.9,42.2,43.6z"/>
				</g>
				<g>
					<linearGradient id="SVGID_32_" gradientUnits="userSpaceOnUse" x1="62.0569" y1="43.1875" x2="53.1302" y2="46.6542">
						<stop  offset="0" style="stop-color:#DBA779"/>
						<stop  offset="0.4797" style="stop-color:#E4B586"/>
						<stop  offset="1" style="stop-color:#F0C999"/>
					</linearGradient>
					<path class="st40" d="M58.9,41.6c-4.8,0-5.6,2.9-5.7,5c0.4,0.1,0.7,0.2,1.4,0.4c1,0.3,2.1,0.8,3.7,0.8c1.3,0,4.1-0.7,4.2-3.4
						C62.5,42.1,60,41.7,58.9,41.6z"/>
					<linearGradient id="SVGID_33_" gradientUnits="userSpaceOnUse" x1="53.3051" y1="45.2076" x2="56.0025" y2="45.2076">
						<stop  offset="0" style="stop-color:#FFFFFF"/>
						<stop  offset="0.4667" style="stop-color:#FDFCFC"/>
						<stop  offset="0.7734" style="stop-color:#F6F4F4"/>
						<stop  offset="1" style="stop-color:#ECE7E7"/>
					</linearGradient>
					<path class="st41" d="M53.4,46.4c1,0.1,1.7,0.5,2.5,0.7c-0.6-0.5-0.9-1-0.8-1.8c0-0.7,0.6-1.5,1.1-2
						C54.4,44.3,53.4,46.4,53.4,46.4z"/>
					<path class="st31" d="M53.4,46.4c0.3-0.3,0.8-0.9,1.7-1.4c0.1-0.6,0.4-1.1,0.9-1.4C54.4,44.3,53.4,46.4,53.4,46.4z"/>
					<linearGradient id="SVGID_34_" gradientUnits="userSpaceOnUse" x1="59.3338" y1="45.1293" x2="61.5782" y2="45.1293">
						<stop  offset="0" style="stop-color:#FFFFFF"/>
						<stop  offset="0.4667" style="stop-color:#FDFCFC"/>
						<stop  offset="0.7734" style="stop-color:#F6F4F4"/>
						<stop  offset="1" style="stop-color:#ECE7E7"/>
					</linearGradient>
					<path class="st42" d="M59.8,45.5c0,0.9-0.5,1.4-1.2,1.9c2.8-0.4,3.8-2.4,3.8-2.4c-1.7-1.4-3.1-2-4.3-2.1
						C59.1,43.2,59.8,44.3,59.8,45.5z"/>
					<linearGradient id="SVGID_35_" gradientUnits="userSpaceOnUse" x1="60.6912" y1="47.5208" x2="54.3913" y2="43.5833">
						<stop  offset="0" style="stop-color:#B89C8C"/>
						<stop  offset="1" style="stop-color:#715241"/>
					</linearGradient>
					<path class="st43" d="M55,45c0,0.1,0,0.2,0,0.3c-0.1,0.8,0.3,1.3,0.8,1.8c0.2,0.1,1.9,0.5,3,0.3c0.7-0.4,1.2-1,1.2-1.8
						c0-0.5-0.1-0.9-0.2-1.3C58.5,43.9,56.7,43.9,55,45z"/>
					<path class="st31" d="M58.8,43.4c0.5,0.3,0.9,0.8,1.1,1.3c1,0.4,1.6,0.9,1.6,0.9l0.3-0.6C61.2,44.2,60.1,43.6,58.8,43.4z"/>
					<linearGradient id="SVGID_36_" gradientUnits="userSpaceOnUse" x1="65.9152" y1="45.2738" x2="57.7309" y2="44.3035">
						<stop  offset="0" style="stop-color:#B89C8C"/>
						<stop  offset="1" style="stop-color:#715241"/>
					</linearGradient>
					<path class="st44" d="M58.8,43.4c-0.7-0.1-1.5-0.1-2.2,0c-0.2,0-0.5,0.1-0.7,0.2C55.5,44,55.1,44.5,55,45
						c0.6-0.4,1.4-0.7,2.4-0.8c1-0.1,1.9,0.2,2.6,0.5C59.8,44.1,59.4,43.7,58.8,43.4z"/>
					<radialGradient id="SVGID_37_" cx="57.0331" cy="45.2571" r="1.8429" gradientUnits="userSpaceOnUse">
						<stop  offset="0" style="stop-color:#2A3A3B"/>
						<stop  offset="1" style="stop-color:#1C2727"/>
					</radialGradient>
					<path class="st45" d="M57.6,43.5c-0.9-0.1-1.6,0.6-1.7,1.4c-0.1,0.9,0.6,1.6,1.5,1.7c0.9,0.1,1.6-0.6,1.7-1.4
						C59.1,44.3,58.5,43.6,57.6,43.5z"/>
					<path class="st36" d="M57.9,44.4c-0.2-0.1-0.5,0-0.6,0.2c-0.1,0.2-0.1,0.5,0.1,0.6c0.2,0.1,0.5,0,0.6-0.2
						C58.1,44.8,58.1,44.6,57.9,44.4z"/>
					<path class="st36" d="M59.3,45.1c-0.3-0.2-0.7-0.1-0.8,0.2c-0.2,0.3-0.1,0.7,0.2,0.8c0.3,0.2,0.7,0.1,0.8-0.2
						C59.7,45.6,59.6,45.3,59.3,45.1z"/>
					<linearGradient id="SVGID_38_" gradientUnits="userSpaceOnUse" x1="53.3081" y1="44.9029" x2="63.38" y2="44.9029">
						<stop  offset="0" style="stop-color:#391B13"/>
						<stop  offset="0.343" style="stop-color:#3D1D15"/>
						<stop  offset="0.7056" style="stop-color:#4A2319"/>
						<stop  offset="1" style="stop-color:#5A2A1F"/>
					</linearGradient>
					<path class="st46" d="M63.4,43c0,0-1.3,0.7-2.8-0.1c-4.2-1.7-6.5,0.6-7.2,3.5c0,0,1.7-2.6,4-2.8c1.6-0.1,3.1,0.3,4.4,1.5
						c-0.8,1.3-1.6,1.7-3.2,2.3c1.2,0,2.3-0.6,3-1.1c1.1-0.8,1.6-0.5,1.6-0.5c-0.1-0.1-0.3-0.4-0.8-0.4c0-0.1,0-0.2,0-0.2
						C63.6,44.8,63.4,43.1,63.4,43z"/>
					<path class="st38" d="M56.4,41.9c-1.6,0.5-2.3,1.7-2.3,1.7s0.7-0.7,2.4-1.4c1.7-0.6,4.2-0.2,4.2-0.2
						C59.5,41.6,57.9,41.3,56.4,41.9z"/>
					<path class="st39" d="M57,43.4c-2.7,0.3-3.7,3-3.7,3s1.7-2.5,3.8-2.7c2.1-0.2,3.7,0.7,4.6,1.4C61.8,45.1,60.7,43.1,57,43.4z"/>
				</g>
				<g>
					<linearGradient id="SVGID_39_" gradientUnits="userSpaceOnUse" x1="49.785" y1="54.9517" x2="49.7642" y2="52.6398">
						<stop  offset="0" style="stop-color:#F7D9AB"/>
						<stop  offset="0.517" style="stop-color:#F6D7A8"/>
						<stop  offset="0.8546" style="stop-color:#F3CFA0"/>
						<stop  offset="1" style="stop-color:#F0C999"/>
					</linearGradient>
					<path class="st47" d="M49.9,54.3c0.5-0.1,2.8-1.6,2.8-1.6l-5.8,0C46.9,52.7,49.3,54.3,49.9,54.3z"/>
					<g>
						<linearGradient id="SVGID_40_" gradientUnits="userSpaceOnUse" x1="50.4635" y1="52.6496" x2="48.5042" y2="47.5935">
							<stop  offset="0" style="stop-color:#FFDEB3"/>
							<stop  offset="1" style="stop-color:#F7D9AB"/>
						</linearGradient>
						<path class="st48" d="M49.8,50.3c-1.5,0-2,0.4-1.9,0.8c0.3,1,0.9,1.2,1.9,1.2c1,0,1.8-0.2,2-1.3
							C51.8,50.7,51.3,50.2,49.8,50.3z"/>
						<linearGradient id="SVGID_41_" gradientUnits="userSpaceOnUse" x1="52.8006" y1="52.2273" x2="50.8653" y2="53.1853">
							<stop  offset="0" style="stop-color:#DBA779"/>
							<stop  offset="0.4797" style="stop-color:#E4B586"/>
							<stop  offset="1" style="stop-color:#F0C999"/>
						</linearGradient>
						<path class="st49" d="M50.8,53c0,0,2.8,0,1.9-0.9C52.4,51.8,50.8,53,50.8,53z"/>
						<linearGradient id="SVGID_42_" gradientUnits="userSpaceOnUse" x1="46.8133" y1="52.3308" x2="48.8827" y2="53.1739">
							<stop  offset="0" style="stop-color:#DBA779"/>
							<stop  offset="0.4797" style="stop-color:#E4B586"/>
							<stop  offset="1" style="stop-color:#F0C999"/>
						</linearGradient>
						<path class="st50" d="M46.9,52.2c-0.9,0.8,2,0.8,2,0.8S47.2,51.9,46.9,52.2z"/>
						<path class="st16" d="M49.8,52.6c-2.9,0-3.2-1.4-3.6-0.5c-0.2,0.4,0.1,0.5,0.6,0.7c0,0-0.2-0.4,0.5-0.4c0.5,0,0.8,1,2.5,1
							c1.8-0.1,2-0.9,2.5-1c0.4,0,0.4,0.4,0.4,0.4s0.8-0.4,0.5-0.8C52.6,51.2,52.4,52.6,49.8,52.6z"/>
					</g>
				</g>
				<path class="st51" d="M63.1,47.2c-0.9,0.2-1.5,0.8-1.4,1.3c0.1,0.5,1,0.7,1.8,0.4c0.9-0.2,1.5-0.8,1.4-1.3
					C64.8,47.2,64,47,63.1,47.2z"/>
				<path class="st51" d="M36.6,47.9c-0.9-0.2-1.7,0.1-1.8,0.6c-0.1,0.5,0.6,1,1.5,1.2c0.9,0.1,1.7-0.1,1.8-0.6
					C38.1,48.6,37.5,48.1,36.6,47.9z"/>
			</g>
			<linearGradient id="SVGID_43_" gradientUnits="userSpaceOnUse" x1="65.4668" y1="32.304" x2="66.1214" y2="52.692">
				<stop  offset="0" style="stop-color:#6B3329"/>
				<stop  offset="0.2833" style="stop-color:#5B2B21"/>
				<stop  offset="0.7012" style="stop-color:#492219"/>
				<stop  offset="1" style="stop-color:#421F16"/>
			</linearGradient>
			<path class="st52" d="M66,47.7l0.4-2.8c0,0-0.8-5.2-1.2-6.1C65.2,38.8,65.6,45.9,66,47.7z"/>
			<linearGradient id="SVGID_44_" gradientUnits="userSpaceOnUse" x1="33.0985" y1="46.1614" x2="34.113" y2="34.6638">
				<stop  offset="0" style="stop-color:#6B3329"/>
				<stop  offset="0.2833" style="stop-color:#5B2B21"/>
				<stop  offset="0.7012" style="stop-color:#492219"/>
				<stop  offset="1" style="stop-color:#421F16"/>
			</linearGradient>
			<path class="st53" d="M33.1,46.9c0.5-2.2,1.1-8.5,1.1-8.5l-1.4,5.9L33.1,46.9z"/>
			<linearGradient id="SVGID_45_" gradientUnits="userSpaceOnUse" x1="36.0274" y1="116.243" x2="36.8168" y2="16.7761">
				<stop  offset="0.2335" style="stop-color:#492219"/>
				<stop  offset="1" style="stop-color:#652F23"/>
			</linearGradient>
			<path class="st54" d="M35.7,32.4c1.8-8.1,13.8-13.7,13.8-13.7S39,16.1,31.1,28.1c-7.3,11.1-8.7,27.1-5.8,32
				c3.8,6.5,16.6,8.1,16.6,8.1c-6.8-8.3-9.3-14.8-7.4-25.5C35.2,38.5,35.1,34.9,35.7,32.4z"/>
			<linearGradient id="SVGID_46_" gradientUnits="userSpaceOnUse" x1="61.591" y1="119.1317" x2="62.3724" y2="20.6756">
				<stop  offset="0.2335" style="stop-color:#492219"/>
				<stop  offset="1" style="stop-color:#652F23"/>
			</linearGradient>
			<path class="st55" d="M49.5,18.7c0,0,6.4,3.6,10.9,10.5c9.7,14.8,5.2,32.2-2.7,39.3c0,0,10.9-1.6,15.4-8.4
				c3.5-5.2,2.8-22.9-6.5-33.8C58.2,16.6,49.5,18.7,49.5,18.7z"/>
			<linearGradient id="SVGID_47_" gradientUnits="userSpaceOnUse" x1="48.9295" y1="115.0998" x2="49.7133" y2="16.3362">
				<stop  offset="0.2335" style="stop-color:#492219"/>
				<stop  offset="1" style="stop-color:#652F23"/>
			</linearGradient>
			<path class="st56" d="M59.1,24.6c-6.3-4.8-12.2-3.4-16.9-1.5c-13.8,5.8-8.4,28.1-8.4,28.1c0,0.2-0.2-20.9,9-23.1
				c0,0,3.7,6.6,15,8c7.6,0.9,7.8,15.7,7.8,15.7C67.4,37.9,64.8,28.9,59.1,24.6z"/>
			<linearGradient id="SVGID_48_" gradientUnits="userSpaceOnUse" x1="67.081" y1="121.9725" x2="64.1885" y2="49.8095">
				<stop  offset="0.2335" style="stop-color:#492219"/>
				<stop  offset="1" style="stop-color:#652F23"/>
			</linearGradient>
			<path class="st57" d="M56.8,27.6c0,0,23.1,21.8,0.8,40.9C57.7,68.5,89.2,51.4,56.8,27.6z"/>
			<linearGradient id="SVGID_49_" gradientUnits="userSpaceOnUse" x1="37.1052" y1="123.1743" x2="34.2127" y2="51.0115">
				<stop  offset="0.2335" style="stop-color:#492219"/>
				<stop  offset="1" style="stop-color:#652F23"/>
			</linearGradient>
			<path class="st58" d="M34.7,31.4c-20.1,27.4,7.1,36.8,7.1,36.8C23.4,54.1,34.7,31.4,34.7,31.4z"/>
			<linearGradient id="SVGID_50_" gradientUnits="userSpaceOnUse" x1="50.9594" y1="40.1933" x2="50.8844" y2="14.5555">
				<stop  offset="0" style="stop-color:#673024"/>
				<stop  offset="0.3791" style="stop-color:#6C3327"/>
				<stop  offset="0.7968" style="stop-color:#793B30"/>
				<stop  offset="1" style="stop-color:#824137"/>
			</linearGradient>
			<path class="st59" d="M62.8,22.2c-8.5-5.7-13.3-3.5-13.3-3.5s-4.8-1.8-9.7,0.7c-8.6,4.4-11.9,14.7-11.9,14.7
				c9.1-19.5,21.9-14.2,21.9-14.2C67.6,18.7,74,41.8,74,41.8S71.2,27.9,62.8,22.2z"/>
			<linearGradient id="SVGID_51_" gradientUnits="userSpaceOnUse" x1="53.6326" y1="36.2766" x2="52.6431" y2="13.0598">
				<stop  offset="0" style="stop-color:#673024"/>
				<stop  offset="0.3791" style="stop-color:#6C3327"/>
				<stop  offset="0.7968" style="stop-color:#793B30"/>
				<stop  offset="1" style="stop-color:#824137"/>
			</linearGradient>
			<path class="st60" d="M45.5,23.9c0,0-0.1,3.5,3.7,6c3.8,2.6,12.1,4.3,12.1,4.3s-8-3.7-10.5-5.7C49.6,27.6,47.5,26.6,45.5,23.9z"
				/>
			<linearGradient id="SVGID_52_" gradientUnits="userSpaceOnUse" x1="63.2321" y1="20.9723" x2="66.2223" y2="84.2629">
				<stop  offset="0.2335" style="stop-color:#492219"/>
				<stop  offset="1" style="stop-color:#652F23"/>
			</linearGradient>
			<path class="st61" d="M59.4,69.2c9.1-1.1,11.8-9.7,11.8-9.7C67.5,65.4,59.4,69.2,59.4,69.2z"/>
			<linearGradient id="SVGID_53_" gradientUnits="userSpaceOnUse" x1="30.3904" y1="17.8071" x2="33.7397" y2="88.6981">
				<stop  offset="0.2335" style="stop-color:#492219"/>
				<stop  offset="1" style="stop-color:#652F23"/>
			</linearGradient>
			<path class="st62" d="M26.7,59c0,0,2.7,8.6,11.7,9.7C38.4,68.7,30.4,65,26.7,59z"/>
			<linearGradient id="SVGID_54_" gradientUnits="userSpaceOnUse" x1="49.3561" y1="40.3532" x2="46.7896" y2="14.3426">
				<stop  offset="0" style="stop-color:#673024"/>
				<stop  offset="0.5852" style="stop-color:#4E251B"/>
				<stop  offset="1" style="stop-color:#421F16"/>
			</linearGradient>
			<path class="st63" d="M42.5,27c0,0-0.3,3.4,3.4,6.5c3.8,3.1,8.6,2.8,8.6,2.8s-3.3-0.5-7-3.3C43.9,30.2,42.5,27,42.5,27z"/>
			<linearGradient id="SVGID_55_" gradientUnits="userSpaceOnUse" x1="60.3466" y1="36.7443" x2="59.1216" y2="8.0027">
				<stop  offset="0" style="stop-color:#673024"/>
				<stop  offset="0.3791" style="stop-color:#6C3327"/>
				<stop  offset="0.7968" style="stop-color:#793B30"/>
				<stop  offset="1" style="stop-color:#824137"/>
			</linearGradient>
			<path class="st64" d="M62.1,24.9c-5.1-4.2-11.4-3.5-11.4-3.5C60,23,69.2,34.2,69.2,34.2S67.2,29,62.1,24.9z"/>
			<linearGradient id="SVGID_56_" gradientUnits="userSpaceOnUse" x1="40.3766" y1="32.0634" x2="39.5287" y2="12.1694">
				<stop  offset="0" style="stop-color:#673024"/>
				<stop  offset="0.3791" style="stop-color:#6C3327"/>
				<stop  offset="0.7968" style="stop-color:#793B30"/>
				<stop  offset="1" style="stop-color:#824137"/>
			</linearGradient>
			<path class="st65" d="M32.1,30.9c0,0,5-9.1,16-9.6C48.1,21.3,36.7,18,32.1,30.9z"/>
			<linearGradient id="SVGID_57_" gradientUnits="userSpaceOnUse" x1="49.4384" y1="51.837" x2="44.7312" y2="4.1308">
				<stop  offset="0" style="stop-color:#673024"/>
				<stop  offset="0.5852" style="stop-color:#4E251B"/>
				<stop  offset="1" style="stop-color:#421F16"/>
			</linearGradient>
			<path class="st66" d="M60.8,36.8c-1.9-1.6-4.6-1.5-10.8-3.9c-0.8-0.3-5.7-3.3-6.8-6.1c0,0-2.8,1-5,2.9c-1.8,1.6-3,5.4-3.4,8.7
				c-0.4,3.7-0.8,8.5-0.8,8.5s1.8-9.4,2.4-11c0.6-1.8,2.4-6.3,6.4-7.6c0,0,1.7,3,5,4.9c4.1,2.4,8.9,2.8,10.7,3.4
				c1.8,0.6,3.1,1,4.6,3.9C63.2,40.5,62.7,38.4,60.8,36.8z"/>
			<g>
				<linearGradient id="SVGID_58_" gradientUnits="userSpaceOnUse" x1="48.9043" y1="57.4652" x2="42.8364" y2="55.6574">
					<stop  offset="0" style="stop-color:#F7D9AB"/>
					<stop  offset="0.517" style="stop-color:#F6D7A8"/>
					<stop  offset="0.8546" style="stop-color:#F3CFA0"/>
					<stop  offset="1" style="stop-color:#F0C999"/>
				</linearGradient>
				<path class="st67" d="M42.2,55.2c-0.3,1,1.9,1,3.7,1.8C44.6,56.4,42.3,54.8,42.2,55.2z"/>
				<linearGradient id="SVGID_59_" gradientUnits="userSpaceOnUse" x1="58.8074" y1="57.1891" x2="54.1018" y2="55.7872">
					<stop  offset="0" style="stop-color:#F7D9AB"/>
					<stop  offset="0.517" style="stop-color:#F6D7A8"/>
					<stop  offset="0.8546" style="stop-color:#F3CFA0"/>
					<stop  offset="1" style="stop-color:#F0C999"/>
				</linearGradient>
				<path class="st68" d="M53.2,57c1.8-0.8,4-0.7,3.7-1.8C56.8,54.8,54.6,56.4,53.2,57z"/>
				<path class="st69" d="M56,55.5c-1.2,0.5-2.2,1-3.5,1c-0.4,0-5.5-0.1-5.8-0.1c-0.8-0.1-2.3-0.3-3.2-0.7c-0.4-0.2-1-0.5-1.1-0.5
					c-0.1,0.1,0,0.7,0.7,0.6c1.6,0.2,2.1,1.4,3,1.5c0.3,0,5.9,0,6.1,0c1.4,0,1.9-1.3,3.5-1.5c0.8,0,0.8-0.6,0.8-0.6
					C56.6,55.2,56.4,55.3,56,55.5z"/>
				<path class="st70" d="M51.4,56c-0.6,0-1.2,0.2-1.9,0.2c-0.4,0-1.2-0.2-1.7-0.2c-0.1,0-2.8,0.1-4.4-0.4c0.1,0,1.7,1.3,6.2,1.4
					c3.4,0.1,5.3-0.9,5.8-1.3C53.9,56.1,51.5,56,51.4,56z"/>
				<linearGradient id="SVGID_60_" gradientUnits="userSpaceOnUse" x1="49.5325" y1="55.9885" x2="49.5124" y2="56.9733">
					<stop  offset="0" style="stop-color:#F96E7E"/>
					<stop  offset="3.454573e-02" style="stop-color:#FA7080"/>
					<stop  offset="0.2473" style="stop-color:#FE7A86"/>
					<stop  offset="0.5279" style="stop-color:#FF7D88"/>
					<stop  offset="0.764" style="stop-color:#FD7985"/>
					<stop  offset="0.9974" style="stop-color:#F86D7D"/>
					<stop  offset="1" style="stop-color:#F86D7D"/>
				</linearGradient>
				<path class="st71" d="M51,56.1c-0.3,0.1-1.3,0.2-1.6,0.3c-0.2,0-0.7-0.1-1.4-0.3c-0.1,0-2.4,0-2.5,0.1c0,0.1,3.7,0.7,4,0.7
					c0.5,0,3.8-0.6,4-0.7C53.7,56.1,51.1,56,51,56.1z"/>
				<linearGradient id="SVGID_61_" gradientUnits="userSpaceOnUse" x1="44.9876" y1="58.2386" x2="54.1686" y2="58.2386">
					<stop  offset="0" style="stop-color:#DBA779"/>
					<stop  offset="0.4797" style="stop-color:#E4B586"/>
					<stop  offset="1" style="stop-color:#F0C999"/>
				</linearGradient>
				<path class="st72" d="M45,56.9c0.9,1.4,2.5,2.8,4.7,2.8c1.1,0,2.7-0.8,4.4-2.7C54.2,57,49.4,58,45,56.9z"/>
				<path class="st70" d="M49.5,57.1C45.1,57,44.4,56,43.8,56c0.9,0.5,1.9,1.7,2.4,2.1c0.7,0.6,2.2,1.2,3.5,1.2
					c1.6-0.1,2.7-0.7,3.2-1.1c0.7-0.4,2.1-1.9,2.9-2.3C55,55.8,53.7,57.2,49.5,57.1z"/>
				<linearGradient id="SVGID_62_" gradientUnits="userSpaceOnUse" x1="49.2117" y1="59.2411" x2="49.4412" y2="57.2462">
					<stop  offset="0" style="stop-color:#F96E7E"/>
					<stop  offset="3.454573e-02" style="stop-color:#FA7080"/>
					<stop  offset="0.2473" style="stop-color:#FE7A86"/>
					<stop  offset="0.5279" style="stop-color:#FF7D88"/>
					<stop  offset="0.764" style="stop-color:#FD7985"/>
					<stop  offset="0.9974" style="stop-color:#F86D7D"/>
					<stop  offset="1" style="stop-color:#F86D7D"/>
				</linearGradient>
				<path class="st73" d="M49.2,57.2c-2.6-0.1-3.9-0.6-3.8-0.5c0.1,0.3,0.6,1,1.3,1.4c0.7,0.4,1.7,0.6,2.8,0.5
					c1.4,0,1.7-0.1,2.6-0.5c0.7-0.4,1.5-1.3,1.5-1.4C53.6,56.7,51.9,57.3,49.2,57.2z"/>
				<path class="st74" d="M49.7,57.7c-0.3,0.2,0.9,0.3,1.4,0.3c0.5,0,1.4-0.4,1.3-0.5C52.3,57.3,49.7,57.7,49.7,57.7z"/>
			</g>
		</g>
	</g>
</g>
</svg>
