<?xml version="1.0" encoding="utf-8"?>
<!-- Generator: Adobe Illustrator 24.1.2, SVG Export Plug-In . SVG Version: 6.00 Build 0)  -->
<svg version="1.1" id="Calque_1" xmlns="http://www.w3.org/2000/svg" xmlns:xlink="http://www.w3.org/1999/xlink" x="0px" y="0px"
	 viewBox="0 0 1920 1080" style="enable-background:new 0 0 1920 1080;" xml:space="preserve">
<style type="text/css">
	.st0{opacity:9.000000e-02;fill:#ACB6C3;enable-background:new    ;}
</style>
<g transform="translate(-200.747 252.673)">
	<path class="st0" d="M1886.7-333.4c151.9-40.7,234.5,59.5,259.7,153.5S2127.9,6.1,1976,46.8s-354.6,14.8-379.8-79.2
		S1734.7-292.6,1886.7-333.4z"/>
	<path class="st0" d="M1375-108.6c267.6,102.7,281.8,338.9,218.3,504.5S1367,650.3,1099.4,547.6S560.8,189.6,624.4,24
		S1107.5-211.3,1375-108.6z"/>
	<path class="st0" d="M1208-441.1c79.5-21.3,122.8,31.2,135.9,80.4c13.2,49.2-9.6,97.4-89.2,118.7s-185.7,7.8-198.9-41.5
		C1042.7-332.7,1128.5-419.8,1208-441.1z"/>
	<path class="st0" d="M2216,587.4c267.6,102.7,281.8,338.9,218.3,504.5s-226.3,254.4-493.9,151.7s-538.6-358.1-475-523.6
		S1948.5,484.7,2216,587.4z"/>
	<path class="st0" d="M800.7,766.6c151.9-40.7,234.5,59.5,259.7,153.5c25.2,94-18.4,185.9-170.3,226.7s-354.6,14.8-379.8-79.2
		C485,973.7,648.7,807.4,800.7,766.6z"/>
</g>
</svg>
