<svg xmlns="http://www.w3.org/2000/svg" width="2028.748" height="1042.304" viewBox="0 0 2028.748 1042.304"><defs><style>.a{fill:#eaf4f7;opacity:0.4;}</style></defs><g transform="translate(5.929 148.89)"><path class="a" d="M358.442-79c157.25,0,211.011,118.2,211.011,215.5S503.535,311.321,346.285,311.321,0,233.8,0,136.5,201.192-79,358.442-79Z" transform="matrix(0.966, -0.259, 0.259, 0.966, 1392.194, 74.803)"/><path class="a" d="M653.287-79c286.6,0,384.584,215.422,384.584,392.762S917.73,632.389,631.13,632.389,0,491.1,0,313.762,366.687-79,653.287-79Z" transform="translate(561.156 -68.912) rotate(21)"/><path class="a" d="M187.673-79c82.333,0,110.481,61.885,110.481,112.831s-34.513,91.533-116.846,91.533S0,84.776,0,33.831,105.34-79,187.673-79Z" transform="matrix(0.966, -0.259, 0.259, 0.966, 14.517, 437.803)"/></g></svg>