<?xml version="1.0" encoding="utf-8"?>
<!-- Generator: Adobe Illustrator 22.1.0, SVG Export Plug-In . SVG Version: 6.00 Build 0)  -->
<svg version="1.1" id="Layer_1" xmlns="http://www.w3.org/2000/svg" xmlns:xlink="http://www.w3.org/1999/xlink" x="0px" y="0px"
	 viewBox="0 0 35 35" style="enable-background:new 0 0 35 35;" xml:space="preserve">
<style type="text/css">
	.st0{clip-path:url(#SVGID_2_);}
	.st1{fill:#203C66;}
	.st2{fill:none;stroke:#203C66;stroke-miterlimit:10;}
</style>
<g>
	<g>
		<defs>
			<circle id="SVGID_1_" cx="17.3" cy="17.4" r="16.4"/>
		</defs>
		<clipPath id="SVGID_2_">
			<use xlink:href="#SVGID_1_"  style="overflow:visible;"/>
		</clipPath>
		<g class="st0">
			<g>
				<path class="st1" d="M31,38.5H3.7c-0.2,0-0.3-0.2-0.3-0.3s0.2-0.3,0.3-0.3H31c0.2,0,0.3,0.2,0.3,0.3S31.2,38.5,31,38.5z"/>
			</g>
			<g>
				<path class="st1" d="M13.4,38.5c-0.2,0-0.3-0.2-0.3-0.3v-28l-3.4,0.8v27.3c0,0.2-0.2,0.3-0.3,0.3S9,38.3,9,38.1V10.6
					c0-0.2,0.1-0.3,0.3-0.3l4.1-0.9c0.1,0,0.2,0,0.3,0.1c0.1,0.1,0.1,0.2,0.1,0.3v28.4C13.8,38.3,13.6,38.5,13.4,38.5z"/>
			</g>
			<g>
				<path class="st1" d="M19.1,38.5c-0.2,0-0.3-0.2-0.3-0.3V13.6L13.2,10c-0.2-0.1-0.2-0.3-0.1-0.5c0.1-0.2,0.3-0.2,0.5-0.1l5.6,3.7
					c0.1,0.1,0.2,0.2,0.2,0.3v24.7C19.4,38.3,19.3,38.5,19.1,38.5z"/>
			</g>
			<g>
				<path class="st1" d="M21.7,38.5c-0.2,0-0.3-0.2-0.3-0.3V17.9l-2.2,0.6c-0.2,0.1-0.4-0.1-0.4-0.2c-0.1-0.2,0.1-0.4,0.2-0.4
					l2.6-0.7c0.1,0,0.2,0,0.3,0.1c0.1,0.1,0.1,0.2,0.1,0.3v20.7C22,38.3,21.9,38.5,21.7,38.5z"/>
			</g>
			<g>
				<path class="st1" d="M25.9,38.5c-0.2,0-0.3-0.2-0.3-0.3V20.3l-4.1-2.6c-0.2-0.1-0.2-0.3-0.1-0.5c0.1-0.2,0.3-0.2,0.5-0.1
					l4.2,2.7c0.1,0.1,0.2,0.2,0.2,0.3v18C26.2,38.3,26.1,38.5,25.9,38.5z"/>
			</g>
			<g>
				<polygon class="st1" points="14.3,12.5 18,14.6 18,15.1 14.3,13 				"/>
			</g>
			<g>
				<polygon class="st1" points="14.3,15.1 18,17.2 18,17.8 14.3,15.7 				"/>
			</g>
			<g>
				<polygon class="st1" points="14.3,17.8 18,19.9 18,20.5 14.3,18.4 				"/>
			</g>
			<g>
				<polygon class="st1" points="14.3,20.5 18,22.6 18,23.2 14.3,21.1 				"/>
			</g>
			<g>
				<polygon class="st1" points="14.3,23.2 18,25.3 18,25.9 14.3,23.8 				"/>
			</g>
			<g>
				<polygon class="st1" points="14.3,25.9 18,28 18,28.6 14.3,26.5 				"/>
			</g>
			<g>
				<polygon class="st1" points="14.3,28.6 18,30.7 18,31.3 14.3,29.2 				"/>
			</g>
			<g>
				<polygon class="st1" points="14.3,31.3 18,33.4 18,33.9 14.3,31.8 				"/>
			</g>
			<g>
				<polygon class="st1" points="14.3,33.9 18,36 18,36.6 14.3,34.5 				"/>
			</g>
			<g>
				<polygon class="st1" points="22.5,19.3 25.1,21.2 25.1,21.7 22.5,19.9 				"/>
			</g>
			<g>
				<polygon class="st1" points="22.5,21.7 25.1,23.6 25.1,24.2 22.5,22.3 				"/>
			</g>
			<g>
				<polygon class="st1" points="22.5,24.2 25.1,26.1 25.1,26.6 22.5,24.7 				"/>
			</g>
			<g>
				<polygon class="st1" points="22.5,26.6 25.1,28.5 25.1,29 22.5,27.1 				"/>
			</g>
			<g>
				<polygon class="st1" points="22.5,29 25.1,30.9 25.1,31.4 22.5,29.5 				"/>
			</g>
			<g>
				<polygon class="st1" points="22.5,31.4 25.1,33.3 25.1,33.9 22.5,32 				"/>
			</g>
			<g>
				<polygon class="st1" points="22.5,33.9 25.1,35.7 25.1,36.3 22.5,34.4 				"/>
			</g>
		</g>
	</g>
	<circle class="st2" cx="17.7" cy="17.6" r="16.4"/>
</g>
</svg>
