<?xml version="1.0" encoding="utf-8"?>
<!-- Generator: Adobe Illustrator 24.3.0, SVG Export Plug-In . SVG Version: 6.00 Build 0)  -->
<svg version="1.1" id="Calque_1" xmlns="http://www.w3.org/2000/svg" xmlns:xlink="http://www.w3.org/1999/xlink" x="0px" y="0px"
	 viewBox="0 0 50 50" style="enable-background:new 0 0 50 50;" xml:space="preserve">
<style type="text/css">
	.st0{fill:#1A56A7;}
</style>
<g>
	<path class="st0" d="M25.1,20.7H4.8c-1.5,0-2.8,1.2-2.8,2.8v12.2c0,1.5,1.2,2.8,2.8,2.8h9l0.1,0.1l9,5.4v-5.5h2.3
		c1.5,0,2.8-1.2,2.8-2.8V23.5C27.9,21.9,26.7,20.7,25.1,20.7z M26.5,35.7c0,0.7-0.6,1.3-1.3,1.3h-3.8v4.4L14.2,37H4.8
		c-0.7,0-1.3-0.6-1.3-1.3V23.5c0-0.7,0.6-1.3,1.3-1.3h20.4c0.7,0,1.3,0.6,1.3,1.3V35.7z"/>
	<rect x="37.4" y="19.5" transform="matrix(0.7071 -0.7071 0.7071 0.7071 -3.0124 32.8)" class="st0" width="1.5" height="1.2"/>
	<path class="st0" d="M45.2,6.1H14.7c-1.5,0-2.8,1.2-2.8,2.8v9.1h1.5V8.8c0-0.1,0-0.1,0-0.1l0.1-0.5l0.4,0.2l16.2,11.9L46.5,8.2
		l0.1,0.5c0,0.1,0,0.1,0,0.1v18.6l-5.2-5.2l-1,1l5.2,5.2H30.6v1.5h14.6c1.5,0,2.8-1.2,2.8-2.8V8.8C48,7.3,46.8,6.1,45.2,6.1z
		 M29.9,18.5l-15-11h29.9L29.9,18.5z"/>
</g>
</svg>
