<svg id="Calque_1" data-name="Calque 1" xmlns="http://www.w3.org/2000/svg" viewBox="0 0 63.2 52"><defs><style>.cls-1{fill:#b92200;}</style></defs><path class="cls-1" d="M35.63,24.8h-28a3.8,3.8,0,0,0-3.8,3.8V45.4a3.8,3.8,0,0,0,3.8,3.8h12.3l.1.1,12.4,7.4V49.2h3.2a3.8,3.8,0,0,0,3.8-3.8V28.6A3.8,3.8,0,0,0,35.63,24.8Zm1.8,20.6a1.79,1.79,0,0,1-1.8,1.8h-5.2v6l-9.9-6H7.63a1.79,1.79,0,0,1-1.8-1.8V28.6a1.79,1.79,0,0,1,1.8-1.8h28a1.79,1.79,0,0,1,1.8,1.8Z" transform="translate(-3.83 -4.7)"/><rect class="cls-1" x="52.44" y="23.08" width="2" height="1.6" transform="translate(-5.06 40.08) rotate(-45)"/><path class="cls-1" d="M63.23,4.7h-42a3.8,3.8,0,0,0-3.8,3.8V21h2V8.3l.1-.7.5.3,22.2,16.3L64.93,7.6l.1.7V34.1l-7.2-7.2-1.4,1.4,7.2,7.2H43.13v2h20.1A3.8,3.8,0,0,0,67,33.7V8.5A3.8,3.8,0,0,0,63.23,4.7Zm-21,17.1L21.63,6.7h41.1Z" transform="translate(-3.83 -4.7)"/></svg>