<?xml version="1.0" encoding="utf-8"?>
<!-- Generator: Adobe Illustrator 22.1.0, SVG Export Plug-In . SVG Version: 6.00 Build 0)  -->
<svg version="1.1" id="Layer_1" xmlns="http://www.w3.org/2000/svg" xmlns:xlink="http://www.w3.org/1999/xlink" x="0px" y="0px"
	 viewBox="0 0 1000 274" enable-background="new 0 0 1000 274" xml:space="preserve">
<g id="Calque_1">
	<g>
		<path fill="#1A56A7" d="M169.4,105.9H24.7c-10.8,0-19.7,8.8-19.7,19.7v86.8c0,10.8,8.8,19.7,19.7,19.7h63.7l0.5,0.3l64,38.4V232
			h16.5c10.8,0,19.7-8.8,19.7-19.7v-86.8C189.1,114.7,180.3,105.9,169.4,105.9z M178.7,212.4c0,5.1-4.2,9.3-9.3,9.3h-26.9v30.7
			l-51.3-30.7H24.7c-5.1,0-9.3-4.2-9.3-9.3v-86.8c0-5.1,4.2-9.3,9.3-9.3h144.8c5.1,0,9.3,4.2,9.3,9.3V212.4z"/>
		<polygon fill="#1A56A7" points="422.1,118.6 505.8,118.6 505.8,194.8 529.7,194.8 529.7,23.9 505.8,23.9 505.8,95.9 422.1,95.9 
			422.1,23.9 398.2,23.9 398.2,194.8 422.1,194.8 		"/>
		<path fill="#1A56A7" d="M561.1,151.2v-9.9h80.7v-35.6c0-20.3-16.7-35.6-38.5-35.6h-17.9c-30.5,0-47.2,15.2-47.2,43.6v37.3
			c0,29.3,22.1,44.8,52,44.8c16.4,0,31.1-3,42.7-7.8v-21.5c-17,5.7-26.9,8.1-43,8.1C570.3,174.8,561.1,167,561.1,151.2z
			 M561.1,113.8c0-16.7,5.7-22.1,24.5-22.1h18.2c9.6,0,15.2,5.4,15.2,14v14.9h-58L561.1,113.8L561.1,113.8z"/>
		<path fill="#1A56A7" d="M704.5,108.1v-5.4c0-7.8,4.5-12.8,20.6-12.8c15.8,0,26.9,1.8,44.5,8.4V76.5c-12-5.4-26.9-8.1-44.8-8.1
			c-24.5,0-43.3,12-43.3,34.4v3.9c0,47.8,73.8,28.7,73.8,50.5v4.8c0,5.7-1.2,13.1-26,13.1c-15.8,0-31.7-2.4-47.2-7.8v22.1
			c13.7,4.5,28.1,6.9,47.5,6.9c33.8,0,48.7-14.6,48.7-34.4v-5.7C778.3,111.7,704.5,132.9,704.5,108.1z"/>
		<path fill="#1A56A7" d="M805.8,108.1v-5.4c0-7.8,4.5-12.8,20.6-12.8c15.8,0,26.9,1.8,44.5,8.4V76.5c-12-5.4-26.9-8.1-44.8-8.1
			c-24.5,0-43.3,12-43.3,34.4v3.9c0,47.8,73.8,28.7,73.8,50.5v4.8c0,5.7-1.2,13.1-26,13.1c-15.8,0-31.7-2.4-47.2-7.8v22.1
			c13.7,4.5,28.1,6.9,47.5,6.9c33.8,0,48.7-14.6,48.7-34.4v-5.7C879.6,111.7,805.8,132.9,805.8,108.1z"/>
		<polygon fill="#1A56A7" points="969.6,70.2 934,164.3 900.9,70.2 874,70.2 922.4,196 901.8,256.3 926,256.3 946.3,194.8 995,70.2 
					"/>
		<polygon fill="#1A56A7" points="673.4,23.9 650.4,10 650.4,194.8 673.4,194.8 		"/>
		<polygon fill="#1A56A7" points="416.4,240.7 403.6,219.1 398.9,219.1 398.9,256.4 404.2,256.4 404.2,230 415,247.7 417.7,247.7 
			428.4,230 428.4,256.4 433.7,256.4 433.7,219.1 429.1,219.1 		"/>
		<path fill="#1A56A7" d="M453.6,229.2h-3.9c-6.7,0-10.3,3.3-10.3,9.5v8.1c0,6.4,4.8,9.8,11.4,9.8c3.6,0,6.8-0.7,9.3-1.7v-4.7
			c-3.7,1.2-5.9,1.8-9.4,1.8c-4.2,0-6.2-1.7-6.2-5.2v-2.1H462v-7.8C462,232.5,458.4,229.2,453.6,229.2z M457.1,240.2h-12.7v-1.5
			c0-3.6,1.2-4.8,5.4-4.8h4c2.1,0,3.3,1.2,3.3,3.1L457.1,240.2L457.1,240.2z"/>
		<polygon fill="#1A56A7" points="452.3,223.8 457,217.3 452.3,217.3 447.6,223.8 		"/>
		<path fill="#1A56A7" d="M484.5,230.6c-2-0.9-4.8-1.6-7.3-1.6c-6.8,0-10.3,3.8-10.3,10.9v6.6c0,5.4,3.5,10.1,10.4,10.1
			c2.2,0,4.8-0.5,7.2-1.8v1.6h5v-39.3h-5V230.6z M484.5,250.3c-2.3,0.8-4.9,1.4-7.3,1.4c-3.9,0-5.3-2.1-5.3-5.2V240
			c0-4.9,1.4-6.1,5.4-6.1c2.4,0,4.6,0.6,7.2,1.5V250.3z"/>
		<path fill="#1A56A7" d="M509.5,229.2h-3.9c-6.7,0-10.3,3.3-10.3,9.5v8.1c0,6.4,4.8,9.8,11.4,9.8c3.6,0,6.8-0.7,9.3-1.7v-4.7
			c-3.7,1.2-5.9,1.8-9.4,1.8c-4.2,0-6.2-1.7-6.2-5.2v-2.1h17.6v-7.8C517.9,232.5,514.2,229.2,509.5,229.2z M512.9,240.2h-12.7v-1.5
			c0-3.6,1.2-4.8,5.4-4.8h4c2.1,0,3.3,1.2,3.3,3.1L512.9,240.2L512.9,240.2z"/>
		<path fill="#1A56A7" d="M522.7,238.9v7.8c0,6.2,3.8,10,11.4,10c3.9,0,6.7-0.7,9.1-1.7v-4.8c-3.4,1.1-6.6,1.8-9.2,1.8
			c-5.1,0-6.3-1.6-6.3-5.4v-7.5c0-3.6,1.2-5.4,6.4-5.4c3.1,0,5.5,0.6,9.1,1.8v-4.8c-2.3-0.9-6-1.7-9.2-1.7
			C526.5,228.9,522.7,232.6,522.7,238.9z"/>
		<rect x="549.1" y="229.2" fill="#1A56A7" width="5" height="27.2"/>
		<rect x="549.1" y="221.8" fill="#1A56A7" width="5" height="4.5"/>
		<path fill="#1A56A7" d="M573.1,229c-2.7,0-5.1,0.7-7.2,1.6v-1.4h-5v27.2h5v-21.2c2.1-0.8,4.5-1.4,7.3-1.4c4,0,5.3,1.3,5.3,5v17.7
			h5v-17.7C583.5,232.5,579.9,229,573.1,229z"/>
		<path fill="#1A56A7" d="M602.5,229.2h-3.9c-6.7,0-10.3,3.3-10.3,9.5v8.1c0,6.4,4.8,9.8,11.4,9.8c3.6,0,6.8-0.7,9.3-1.7v-4.7
			c-3.7,1.2-5.9,1.8-9.4,1.8c-4.2,0-6.2-1.7-6.2-5.2v-2.1h17.6v-7.8C610.9,232.5,607.3,229.2,602.5,229.2z M606,240.2h-12.7v-1.5
			c0-3.6,1.2-4.8,5.4-4.8h4c2.1,0,3.3,1.2,3.3,3.1L606,240.2L606,240.2z"/>
		<path fill="#1A56A7" d="M637.1,230.8v12.9c0,8.3,4.8,12.9,14.5,12.9c7.2,0,12-1.6,12-1.6v-5.2c0,0-6.3,1.8-12,1.8
			c-7,0-9.3-2.4-9.3-8v-12.9c0-4.5,2.1-7,9.3-7c5.7,0,12,1.8,12,1.8v-5.2c0,0-4.8-1.6-12-1.6C642.1,218.8,637.1,223.3,637.1,230.8z"
			/>
		<path fill="#1A56A7" d="M681.5,229.2h-4.9c-5.7,0-9.3,3.6-9.3,8.9v9.3c0,5.4,3.6,8.9,9.4,8.9h4.9c5.7,0,9.3-3.6,9.3-8.9v-9.3
			C690.9,232.8,687.3,229.2,681.5,229.2z M685.9,247.5c0,2.8-1.2,4.2-4.4,4.2h-4.9c-3.1,0-4.3-1.4-4.3-4.2v-9.3
			c0-2.8,1.2-4.2,4.4-4.2h4.9c3.1,0,4.3,1.4,4.3,4.2V247.5z"/>
		<path fill="#1A56A7" d="M708.7,229c-2.7,0-5.1,0.7-7.2,1.6v-1.4h-5v27.2h5v-21.2c2.1-0.8,4.5-1.4,7.3-1.4c4,0,5.3,1.3,5.3,5v17.7
			h5v-17.7C719,232.5,715.4,229,708.7,229z"/>
		<path fill="#1A56A7" d="M737.1,229c-2.7,0-5.1,0.7-7.2,1.6v-1.4h-5v27.2h5v-21.2c2.1-0.8,4.5-1.4,7.3-1.4c4,0,5.3,1.3,5.3,5v17.7
			h5v-17.7C747.4,232.5,743.9,229,737.1,229z"/>
		<path fill="#1A56A7" d="M766.5,229.2h-3.9c-6.7,0-10.3,3.3-10.3,9.5v8.1c0,6.4,4.8,9.8,11.4,9.8c3.6,0,6.8-0.7,9.3-1.7v-4.7
			c-3.7,1.2-5.9,1.8-9.4,1.8c-4.2,0-6.2-1.7-6.2-5.2v-2.1h17.6v-7.8C774.9,232.5,771.2,229.2,766.5,229.2z M769.9,240.2h-12.7v-1.5
			c0-3.6,1.2-4.8,5.4-4.8h4c2.1,0,3.3,1.2,3.3,3.1L769.9,240.2L769.9,240.2z"/>
		<path fill="#1A56A7" d="M779.7,238.9v7.8c0,6.2,3.8,10,11.4,10c3.9,0,6.7-0.7,9.1-1.7v-4.8c-3.4,1.1-6.6,1.8-9.2,1.8
			c-5.1,0-6.3-1.6-6.3-5.4v-7.5c0-3.6,1.2-5.4,6.4-5.4c3.1,0,5.5,0.6,9.1,1.8v-4.8c-2.3-0.9-6-1.7-9.2-1.7
			C783.5,228.9,779.7,232.6,779.7,238.9z"/>
		<path fill="#1A56A7" d="M813.9,248.6v-14.9h6.9v-4.6h-6.9v-8H809v8h-3.9v4.6h3.9v15.3c0,5.1,3,7.7,8.3,7.7c2.4,0,4.6-0.3,6.5-0.7
			v-4.9c-2.3,0.5-4,0.8-6.5,0.8C814.8,251.9,813.9,251,813.9,248.6z"/>
		<polygon fill="#1A56A7" points="844.2,217.3 839.5,217.3 834.8,223.8 839.5,223.8 		"/>
		<path fill="#1A56A7" d="M840.9,229.2h-3.9c-6.7,0-10.3,3.3-10.3,9.5v8.1c0,6.4,4.8,9.8,11.4,9.8c3.6,0,6.8-0.7,9.3-1.7v-4.7
			c-3.7,1.2-5.9,1.8-9.4,1.8c-4.2,0-6.2-1.7-6.2-5.2v-2.1h17.6v-7.8C849.3,232.5,845.6,229.2,840.9,229.2z M844.3,240.2h-12.7v-1.5
			c0-3.6,1.2-4.8,5.4-4.8h4c2.1,0,3.3,1.2,3.3,3.1L844.3,240.2L844.3,240.2z"/>
		<path fill="#1A56A7" d="M868.3,229.2h-3.9c-6.7,0-10.3,3.3-10.3,9.5v8.1c0,6.4,4.8,9.8,11.4,9.8c3.6,0,6.8-0.7,9.3-1.7v-4.7
			c-3.7,1.2-5.9,1.8-9.4,1.8c-4.2,0-6.2-1.7-6.2-5.2v-2.1h17.6v-7.8C876.7,232.5,873.1,229.2,868.3,229.2z M871.8,240.2h-12.7v-1.5
			c0-3.6,1.2-4.8,5.4-4.8h4c2.1,0,3.3,1.2,3.3,3.1L871.8,240.2L871.8,240.2z"/>
		
			<rect x="255.9" y="97.3" transform="matrix(0.7071 -0.7071 0.7071 0.7071 4.8195 214.3251)" fill="#1A56A7" width="10.4" height="8.2"/>
		<path fill="#1A56A7" d="M311.8,2.1H94.7C83.8,2.1,75,10.9,75,21.7v64.6h10.4V21.7c0-0.3,0-0.6,0.1-0.9l0.5-3.4l2.8,1.8L203.3,103
			l117.4-85.9l0.4,3.5c0.1,0.5,0.1,0.8,0.1,1v132.2l-37.5-37.5l-7.4,7.4l37.5,37.5H208.2v10.4h103.6c10.8,0,19.7-8.8,19.7-19.7V21.7
			C331.5,10.9,322.6,2.1,311.8,2.1z M203.2,90.2L97,12.5h212.4L203.2,90.2z"/>
	</g>
</g>
</svg>
